<svg width="351" height="683" viewBox="0 0 351 683" fill="none" xmlns="http://www.w3.org/2000/svg">
<path d="M309.76 295.52C309.44 388.74 225.55 483.94 125.65 481.47L81.4 682.04L0.549988 575.33C34.55 531.86 68.55 488.39 102.55 444.92C128.56 440.39 167.09 429.06 201.51 398.82C204.37 396.31 271.01 336.46 257.89 283.94C254.27 269.45 246.5 264.16 245.01 262.78C228.33 247.36 197.83 252.59 187.22 272.38C191.17 331.32 160.51 392.05 118.59 423.75C76.21 378.46 59.08 304.42 79.21 243.35C86.75 215.44 105.17 184.84 135.1 186.93C164.23 186.42 187.47 212.12 186.34 239.78C194.69 203.32 160.38 167.5 123.56 174.42C77.78 57.97 270.88 4.15993 270.26 131.34C280.81 132.7 287.68 146.79 284.39 157.58C266.87 129.96 223.84 136.24 212.31 161.23C200.88 181.22 209.41 208.77 229.83 218.91C277.43 208.92 314.49 245.62 309.76 295.51V295.52Z" fill="#F6871F"/>
<path d="M284.94 82.0399C283.27 77.1699 283.71 72.18 284.58 62.19C285.31 53.94 286.82 47.81 287.82 43.85C291.57 28.93 293.45 21.47 297.56 16.27C299.08 14.34 302.37 10.65 301.87 6.10995C301.55 3.16995 299.83 1.69995 300.46 0.939953C301.65 -0.490047 309.7 2.23996 314.1 8.12996C319.27 15.06 317.42 23.7599 316.93 25.8099C321.97 27.2599 325.02 29.73 326.59 31.24C332.44 36.87 333.08 44.0099 333.86 52.8699C334.46 59.6499 333.47 62.41 332.09 64.36C330.54 66.55 328.49 67.74 327.08 68.38C330.99 67.14 333.35 67.82 334.6 68.38C341.23 71.44 342.07 83.6799 342.5 89.8699C342.93 96.0699 342.07 97.83 343.5 102.07C345.16 107.03 348.3 110.48 350.67 112.61C349.61 112.94 348 113.27 346.16 112.93C343.33 112.4 342.67 110.78 340.74 110.5C337.57 110.04 336.59 114.02 332.67 115.51C328.26 117.18 323.4 114.46 315.11 109.82C310.35 107.16 307 104.69 306 103.94C294.42 95.3 287.82 90.38 284.94 82.02V82.0399Z" fill="#FEE254"/>
<path d="M276.32 180.49C278.17 179.44 280.01 178.4 281.86 177.35C279.51 173.3 277.16 168.17 275.66 162.02C270.65 141.47 278.59 123.95 281.89 117.6C284.74 117.7 289.92 117.5 295.7 114.99C302.5 112.04 306.51 107.45 308.3 105.13C304.6 103.18 299.41 99.84 294.58 94.34C286.35 84.96 283.98 74.77 283.2 69.99C281.12 72.52 275.4 80.14 275 91.32C274.73 98.96 277.06 104.85 278.52 107.88C276.93 111.51 274.81 116.93 273.07 123.73C271.24 130.91 267.5 146.29 271.38 164.9C272.78 171.63 274.8 176.98 276.33 180.5L276.32 180.49Z" fill="#F6871F"/>
</svg>
