<?xml version="1.0" encoding="UTF-8"?>
<svg id="Layer_1" xmlns="http://www.w3.org/2000/svg" version="1.1" viewBox="0 0 1190.55 841.89">
  <!-- Generator: Adobe Illustrator 29.0.0, SVG Export Plug-In . SVG Version: 2.1.0 Build 186)  -->
  <defs>
    <style>
      .st0 {
        fill: #ff8706;
      }
    </style>
  </defs>
  <g id="Layer_11" data-name="Layer_1">
    <g>
      <path class="st0" d="M248.4,909.92c3.98,4.77,3.45,2.25,4.23,2.8-1.72-1.9-2.87-2.98-3.58-3.59-.7-.62-1.01-.7-1.12-.55-.21.3.43,1.55.47,1.34Z"/>
      <path class="st0" d="M219.13,812.2c.09.64.21,1.28.33,1.92.09-5.22.38-10.48.99-15.71-.63,4.59-1.08,9.19-1.32,13.79h0Z"/>
      <path class="st0" d="M258.74,722.34c-1.87,1.51-4.28,4.03-6.87,7.26-2.44,3.34-5.34,7.19-7.87,11.59-2.74,4.27-5.1,9.05-7.58,13.58-2.17,4.68-4.49,9.13-6.35,13.16-.55.83-1.03,1.69-1.55,2.53-.49,2.69-.81,5.41-1.16,8.09,1.68-5.08,3.66-10.49,6.07-15.85,1.25-2.66,2.46-5.38,3.76-8.04,1.4-2.61,2.8-5.22,4.17-7.77,5.78-10.09,12.29-18.85,17.38-24.54h0Z"/>
      <path class="st0" d="M300.44,689.52c-1.57.62.63-1.2.86-1.39-.11.09-.3.24-1.86,1.45-1.57,1.26-4.28,3.52-8.83,7.31.95-.71,1.28-.85,1.86-1.24.84-.66,1.83-1.44,3.1-2.45.64-.5,1.35-1.05,2.15-1.67.79-.62,1.68-1.31,2.71-2.02h.01Z"/>
      <path class="st0" d="M292.49,695.66c-1.03.8-1.67,1.38-2.06,1.75-.39.37-.53.52-.5.53.07.02.83-.57,1.68-1.22,1.74-1.27,3.77-2.89.88-1.05h0Z"/>
      <path class="st0" d="M332.21,668.51c-3.86,2.5-7.78,4.9-11.51,7.58,2.63-1.21,13.35-7.05,9.57-4.52,1.5-.92,2.78-1.7,3.84-2.35,1.08-.63,1.95-1.14,2.63-1.56,1.35-.84,1.92-1.27,1.87-1.4-.09-.25-2.68.69-6.41,2.25h.01Z"/>
      <path class="st0" d="M343.12,661.08c-2.13,1.09-4.17,2.37-6.25,3.55.61-.2,1.34-.5,2.33-1.06.99-.55,2.23-1.38,3.93-2.49h0Z"/>
      <path class="st0" d="M323.89,672.56c4.3-2.67,8.54-5.46,12.98-7.93-.97.31-1.58.34-2.41.71-.82.38-1.88,1.04-3.63,2.8.78-1.17-1.55.85-6.93,4.42h-.01Z"/>
      <path class="st0" d="M316.41,676.79c-6.74,3.81-15.23,9.23-4.09.86-2.73,1.88-5.08,3.48-7,4.9-1.89,1.45-3.39,2.65-4.53,3.58-2.28,1.87-3.1,2.72-2.59,2.58,1.06-.21,7.16-4.68,18.2-11.93h0Z"/>
      <path class="st0" d="M260.43,717.02c-1.22,1.26-2.53,2.46-3.69,3.77l-3.54,3.92c-.85,1.27-1.74,2.5-2.54,3.8l-2.37,3.91c.59-.97,1.66-2.47,2.91-4.16,1.33-1.63,2.87-3.44,4.29-5.13.71-.85,1.39-1.66,2.01-2.41.61-.75,1.23-1.37,1.7-1.93.95-1.1,1.47-1.78,1.24-1.77h-.01Z"/>
      <path class="st0" d="M412.76,637.97c.72-.66-4.86.06-6.01-.16-3.24,1.17-6.5,2.27-9.72,3.49,5.14-1.31,14.86-3.83,15.73-3.33Z"/>
      <path class="st0" d="M406.75,637.81c2.42-.88,4.89-1.65,7.33-2.48,2.45-.83,4.9-1.63,7.38-2.39-13.4,3.46-15.69,4.64-14.71,4.86h0Z"/>
      <path class="st0" d="M344.32,657.87c-3.72,2.02-7.31,4.28-10.93,6.47-1.82,1.07-3.56,2.27-5.33,3.42l-5.28,3.48c8.38-5.52,17.01-10.74,25.94-15.5l-4.4,2.14h0Z"/>
      <path class="st0" d="M470.36,624.68l-8.43,2.76c5.01-1.57,10.05-3.09,15.1-4.58l-6.67,1.83h0Z"/>
      <path class="st0" d="M509.22,617.44c-3.15.99-.89.97,1.36.92,2.25-.05,4.51-.17,1.04.72,5.4-1.02,10.69-2.24,15.73-3.97,5.04-1.71,9.84-3.9,14.14-6.69-4.66,2.82-9.75,4.74-15.13,6.14-5.38,1.39-11.09,2.21-17.14,2.88h0Z"/>
      <path class="st0" d="M554.4,596.2c-1.61,2.34-3.53,4.54-5.73,6.67-.57.52-1.15,1.04-1.73,1.56-.57.46-1.15.92-1.74,1.39-1.19.9-2.42,1.8-3.71,2.61,1.24-.72,2.44-1.56,3.62-2.39l1.73-1.34c.58-.47,1.17-1.01,1.74-1.52,2.25-2.11,4.23-4.42,5.82-6.97h0Z"/>
      <path class="st0" d="M447.22,626.99c1.23,0,3.65.23,12.24-1.27h-6.24c-1.83.39-3.89.83-5.99,1.27h-.01Z"/>
      <path class="st0" d="M453,625.73h.22c6.49-1.38,11.04-2.21,12.97-2.6-1.66.34-5.66,1.04-13.19,2.6Z"/>
      <path class="st0" d="M445.72,627.33c.55-.12.96-.21,1.5-.33-.6,0-.96.04-1.5.33Z"/>
      <path class="st0" d="M382.21,643.48c2.09-.9,4.74-2.08,7.33-3.1,2.58-1.03,5.05-2.04,6.7-2.79,3.31-1.47,3.32-2-5.64.32-2.99,1.42-1.91,1.47-1.69,1.82.22.34-.42.97-6.7,3.75h0Z"/>
      <path class="st0" d="M437.96,627.44c-5.38,1.19-10.76,2.36-16.11,3.68.4.25,3.4-.02-.88,1.45,5.63-1.8,11.3-3.47,16.99-5.13h0Z"/>
      <polygon class="st0" points="445.77 625.26 437.96 627.44 443.96 626.19 445.77 625.26"/>
      <path class="st0" d="M525.04,612.46c3.71-1.26,7.67-2.7,11.78-4.69,4.11-2.07,8.33-4.52,12.35-8.5-.55.49-1.09.99-1.65,1.48l-1.77,1.37c-1.19.85-2.34,1.64-3.56,2.35-2.42,1.45-4.93,2.69-7.45,3.7-5.05,2.05-10.11,3.37-14.92,4.4-.63.34-1.98.91-1.84,1.11.06.1.5.12,1.58-.04s2.8-.49,5.48-1.19h0Z"/>
      <path class="st0" d="M489.57,618.76c.48-.11,1.1-.25,1.56-.35-.98.07-1.76.17-1.56.35Z"/>
      <path class="st0" d="M504.64,565c.14-.06.27-.08.42-.16-.01-.13-.02-.21-.04-.38-.12.18-.25.36-.38.54Z"/>
      <path class="st0" d="M518.13,612.7c-3.68.61-6.54,1.11-8.97,1.63-2.42.52-4.44,1.05-6.42,1.59,2.63-.51,5.34-1.03,8.14-1.57,2.83-.53,5.81-1.09,8.94-1.77.57-.31.66-.45-1.69.11h0Z"/>
      <path class="st0" d="M559.58,564.74c.8,2.61,1.41,5.47,1.41,8.38.02,2.9-.31,5.86-1.11,8.64.79-2.24,1.51-5.98,1.34-9.52-.03-.88-.08-1.74-.23-2.55-.14-.81-.25-1.56-.42-2.23-.39-1.32-.75-2.31-.98-2.73h-.01Z"/>
      <path class="st0" d="M493.56,618.33c-.35.08-.66.15-1.04.24,2.35-.14,2.04-.22,1.04-.24Z"/>
      <path class="st0" d="M493.56,618.33c3.58-.83,6.37-1.64,9.19-2.41-4.27.84-8.21,1.69-11.62,2.48.89-.07,1.78-.08,2.43-.07Z"/>
      <path class="st0" d="M490.6,562.43c.57.35,1.66,3.03,3.12,6.61.79,1.77,1.65,3.87,3.35,5.66.85.88,1.99,1.58,3.3,1.83.65.13,1.33.14,2.01.1.34-.04.68-.08,1.02-.13.33-.09.67-.15.99-.3,1.01-.39,1.86-1.11,2.58-1.93s1.34-1.73,1.93-2.66c1.17-1.87,2.24-3.83,3.53-5.73,1.75-3.61,3.08-5.61,3.51-6.77.44-1.14-.15-1.5-1.61-1-1.44.48-3.65,2.01-5.76,4.28-1.46,1.09-2.49,1.92-3.51,2.46.04.26.1.5,0,.96-.05.23-.15.53-.35.9-.2.36-.5.83-1.06,1.22-.44.33-1.18.66-2.18.65-.49-.03-1.04-.18-1.55-.53-.51-.35-.95-.87-1.35-1.51.17.58.51,1.61,1.4,2.51.44.44,1.03.82,1.72.99.67.14,1.43.22,2.14.04,1.43-.4,2.35-1.67,3.14-2.73.78-1.1,1.46-2.16,2.03-2.87.56-.72.99-1.11,1.08-.93s-.17.95-.87,2.68c-.83,1.74-1.56,3.28-2.38,4.51-.81,1.22-1.74,2.13-2.71,2.5-1.81.6-3.33.32-4.3-.28-.98-.62-1.53-1.42-1.92-2.22-.78-1.61-1.14-3.28-1.75-6.14.15,1.74-.21,1.71-.94.34-.36-.69-.79-1.67-1.3-2.93-.29-.75-.61-1.54-.93-2.37-.34-.86-.71-1.74-1.12-2.63-.81-1.77-1.77-3.56-2.93-5.07-1.14-1.52-2.54-2.73-3.77-3.38-.32-.16-.6-.32-.89-.43-.29-.1-.56-.19-.81-.26-.48-.17-.91-.15-1.2-.16-.59.02-.7.25-.27.7,1.43.45,2.75,1.27,3.84,2.34,1.09,1.06,1.99,2.35,2.76,3.73,1.5,2.77,2.52,5.84,3.5,8.85-.11.25-.77-1.3-1.26-2.21-.51-.91-.81-1.24-.22,1.33v-.02Z"/>
      <path class="st0" d="M531.18,548.32c2.79.03,5.58.37,8.34,1.06-2.34-.67-4.54-1.12-6.73-1.33-2.19-.26-4.36-.3-6.66-.17-.58.04-1.16.09-1.75.13-.59.08-1.19.17-1.81.25-.58.06-1.33.24-2.05.41-.73.17-1.47.42-2.23.68-1.51.55-3.03,1.3-4.53,2.24-1.48.95-2.89,2.1-4.2,3.38-1.29,1.55-2.2,2.97-2.93,4.22-.34.6-.71,1.25-.92,1.69-.04.15-.08.29-.12.42-.16.56-.27,1.05-.36,1.47-.18.84-.24,1.34-.22,1.7.57-.9,1.02-1.87,1.57-2.8l.36-.59c.2-.35.44-.7.66-1.06.46-.71.95-1.42,1.49-2.14,1.08-1.43,2.35-2.85,3.87-4.15,1.51-1.29,3.26-2.44,5.14-3.3,1.84-.86,3.97-1.44,5.59-1.72,3.45-.65,6.92-.77,10.35-.4-.96,0-1.92-.05-2.87,0h0Z"/>
      <path class="st0" d="M559.37,580.35c.04-1.71.04-4.34-.35-7.06-.34-2.74-1.36-5.53-2.36-7.55-.57-.98-1.08-1.81-1.52-2.39-.48-.56-.83-.89-1.01-.93-.4-.07.08.95.95,3.84,1.09,2.79,1.49,5.28,1.65,7.36.06,1.04.04,1.98.04,2.85-.07.85-.13,1.63-.19,2.34-.39,2.79-.78,4.48-1.13,5.88-.19.69-.32,1.34-.53,1.99-.21.64-.43,1.31-.72,2.1-.66,1.51-1.53,3.54-3.63,6.31,2.93-3.68,4.38-6.76,5.31-8.91.91-2.18,1.22-3.49,1.44-4.05.39-1.15.07.55-.44,2.56-.53,2-1.45,4.21-1.33,4.42.06.1.37-.3,1.06-1.53.64-1.25,1.71-3.35,2.55-6.95-.7,3.97-2.1,7.47-3.83,10.55-1.74,3.08-3.83,5.76-6.16,8.1,5.18-4.9,8.86-10.9,10.71-17.51-.11.37-.19.63-.31.91l-.05.19v-.04c-.66,1.66-.93,2.19-.26.3.02-.14.16-.62.22-.83-.11-.32-.1-1.11-.09-1.94.18-.72.29-1.38.36-1.97.08-.59.15-1.09.21-1.53.09-.88.1-1.48.13-1.83.05-.7.09-.44.11.34,0,.39.03.91,0,1.49-.05.58-.1,1.22-.16,1.88-.11,1.32-.42,2.61-.57,3.56.02.15,0,.47.05.53.02-.04.04-.09.06-.14.83-3.37,1.16-6.99.73-10.66-.41-3.67-1.65-7.34-3.61-10.55-1.97-3.23-4.69-5.93-7.67-7.92-2.99-2-6.23-3.34-9.5-4.17,2.06.58,4.21,1.46,6.5,2.65,2.28,1.23,4.68,2.91,6.98,5.33,2.29,2.41,4.39,5.63,5.65,9.6,1.27,3.96,1.66,8.64.72,13.4v-.02Z"/>
      <path class="st0" d="M406.11,630.22c.99-.16.97-.06,1.07.01,1.96-.71,2.69-1.03-1.07-.01Z"/>
      <path class="st0" d="M419.05,627.49c-2.22.74-3.95,1.77-11.28,3.67-6.41,1.47-.15-.63-.59-.92-4.3,1.61-15.04,5.45-1.17,1.95.7-.28,1.42-.53,2.13-.79,3.14-.75,6.5-1.52,9.78-2.16,3.28-.62,6.44-1.18,9.15-1.63,5.43-.81,9-1.21,7.93-.86-3.92-.24-7.35-.33-15.94.75h0Z"/>
      <path class="st0" d="M492.7,614.43l13.11-2.62c4.36-.87,8.79-1.7,13.23-2.76-4.63.62-9.19.97-13.72,1.39l.8.54c-15.03,2.34-11.64,2.62-13.41,3.45h0Z"/>
      <path class="st0" d="M503.66,564.85c.23-.9.28-1.79.23-2.57-.1.49-.29,1.04-.62,1.48-.41.51-.99.91-1.61,1.04-.61.11-1.17-.07-1.64-.41.37.5.88.92,1.5,1.06.63.11,1.31-.05,1.86-.39.1-.06.18-.14.27-.21h.01Z"/>
      <path class="st0" d="M493.46,547.28c.73.3,1.37.6,2.06.95-.6-.88-1.26-1.72-2.13-2.73-.86-.91-1.75-1.76-2.74-2.5-1.95-1.51-4.21-2.55-6.54-3.2l-.98-.21.95.29c3.88,1.35,7.17,4.05,9.38,7.4Z"/>
      <path class="st0" d="M861.08,350.19l1.38-7.59c-.71,3.58-1.12,5.89-1.38,7.59Z"/>
      <path class="st0" d="M844.37,403.7l.06,1.5c.63-2.55.74-3.65-.06-1.5Z"/>
      <path class="st0" d="M486.3,365.1c-4.33-4.45-9.43-8.81-13.54-11.6-4.1-2.81-7.04-4.18-6.61-3.25,1.01.94,1.98,1.89,2.9,2.9,1.98.94,3.76,1.99,5.45,2.96,1.63,1.05,3.2,2.01,4.59,3.05.7.51,1.38,1.01,2.04,1.5.64.52,1.25,1.02,1.86,1.51,1.22.97,2.29,1.99,3.32,2.94h-.01Z"/>
      <path class="st0" d="M553.33,745.57c-1.09.06-2.22.18-3.35.18-2.68.79-5.21,1.66-7.51,2.21,1.66-.26,3.4-.65,5.23-1.05.91-.2,1.84-.4,2.79-.6.94-.21,1.89-.49,2.85-.73h0Z"/>
      <path class="st0" d="M560,738.69c4.8-.79,9.55-1.92,14.28-3.16-1.62.35-3.57.83-5.91,1.41-1.18.26-2.46.53-3.86.83-.69.16-1.41.32-2.16.48-.75.14-1.54.28-2.35.43h0Z"/>
      <path class="st0" d="M732.12,135.02c-1.42.3-2.81.75-4.21,1.11l-2.09.58-2.07.66c6.63-.97,8.48-1.19,8.79-1.48.31-.27-.93-.51-.42-.87h0Z"/>
      <path class="st0" d="M646.68,552.08c6.47-7.67,11.29-14.06,15.31-19.81-1.84,2.4-3.7,4.62-5.39,6.68-.85,1.03-1.66,2.02-2.44,2.96-.78.93-1.53,1.82-2.22,2.66-1.38,1.68-2.56,3.16-3.45,4.43-.91,1.26-1.54,2.29-1.81,3.09h0Z"/>
      <path class="st0" d="M868.53,375.39c.61-2.37.97-4.07,1.13-5.19.17-1.11.17-1.61.01-1.58-1.11,4.91-1.78,7.67-1.15,6.77h.01Z"/>
      <path class="st0" d="M677.74,507.73c-1.02,1.5-1.98,2.99-3.02,4.48-1.85,3.23-3.73,6.42-5.83,9.68-1.05,1.63-2.13,3.31-3.25,5.05-1.15,1.72-2.37,3.48-3.65,5.32,1.37-1.77,2.8-3.6,4.19-5.52,1.38-1.93,2.77-3.92,4.14-5.96,2.71-4.09,5.29-8.48,7.42-13.06h0Z"/>
      <path class="st0" d="M244.23,493.52c.2.78.49,1.72.66,2.43.25.18-.1-.89-.66-2.43Z"/>
      <path class="st0" d="M418.82,765.69c-2.6-1.97-6.77-5.3-10.71-8.42,1.86,1.6,5.08,4.16,10.71,8.42Z"/>
      <path class="st0" d="M464.42,652.9c-1.71-1.27-2.55-2.04-2.94-2.36-.38-.32-.29-.22.04.08.34.29.88.81,1.46,1.25s1.15.85,1.43,1.03h.01Z"/>
      <path class="st0" d="M445.77,618.93c.73,1.45,1.46,2.47,1.8,2.53-.54-.44-1.19-1.31-1.8-2.53Z"/>
      <path class="st0" d="M681.66,433.92c-.09-.2-.16-.35-.26-.58.35,1.04.45,1.48.46,1.51,0,.03-.04-.36-.2-.93h0Z"/>
      <path class="st0" d="M455.7,643.81c.49.6.99,1.23,1.52,1.88.57.62,1.15,1.26,1.75,1.92.3.33.61.66.92,1,.33.32.67.64,1.01.97.69.65,1.39,1.32,2.13,1.98-.63-.6-1.53-1.47-2.79-2.69-.63-.61-1.28-1.36-2.06-2.18-.79-.81-1.6-1.78-2.5-2.87h.02Z"/>
      <path class="st0" d="M456.36,645.48c-.92-1.1-1.78-2.06-2.51-2.99-.72-.94-1.38-1.81-2.03-2.66-.4-.35-.5-.32.11.51.61.81,1.85,2.48,4.43,5.15h0Z"/>
      <path class="st0" d="M474.53,659.18c-4.42-2.17-8.21-4.79-11.49-7.62,1.25,1.1,1.76,1.58,1.38,1.34.5.38,1.04.79,1.66,1.26.64.43,1.36.91,2.16,1.45.4.27.83.55,1.28.84.47.27.96.55,1.48.85,1.04.6,2.18,1.27,3.53,1.88h0Z"/>
      <path class="st0" d="M453.97,116.15c-.35-.32-.76-.7-1.15-1.05-6.09-4.04-3.51-2.15,1.15,1.05Z"/>
      <path class="st0" d="M370.47,456.4c0-.34-.04-.52-.05-.83-.02.34-.05.77-.06,1.07l.11-.24h0Z"/>
      <path class="st0" d="M371.86,482.5c-2.03-11.04-1.9-17.44-1.51-25.85l-1.91,4.31-1.84,4.36c1.61,5.79,3.45,11.51,5.25,17.18h.01Z"/>
      <path class="st0" d="M857.96,220.24c1.72,5.7,3.13,11.47,4.24,17.28-1.81-5.05-3.62-9.67-5.21-13.53-1.63-3.84-3.03-6.93-4.01-8.9-1.01-1.97-1.53-2.86-1.5-2.28.02.59.68,2.61,1.78,6.56.6.09,1.43,1.15,2.4,2.97.49.9,1.04,1.99,1.56,3.25.53,1.26,1.13,2.66,1.66,4.21,2.25,6.17,4.45,14.49,5.86,22.93.39,2.11.66,4.23.98,6.32.24,2.11.47,4.2.7,6.22.12,1.01.24,2.01.35,2.98.08.98.15,1.94.23,2.88.15,1.88.32,3.66.49,5.31.46,6.64,1.01,11.32,1.96,11.96l-.58,5.93c-.19,1.97-.52,3.94-.77,5.91.23-3.39.12-3.95.22-7.3-.27,2.87-.65,5.29-.82,7.38-.21,2.09-.23,3.87-.33,5.44-.15,3.16.04,5.54.22,8.15.1,2.61.23,5.44.01,9.49-.16,2.02-.42,4.34-.8,7.08-.36,2.75-1.05,5.89-1.83,9.58-2.5,10.24-4.99,17.19-3.69,10.12-1.57,7.65-3.23,15.31-5.23,22.91-2.06,6.53-2.25,4.72-.2-1.78-3.32,11.48-7.09,22.87-11.21,34.16l-.02-.29c-.63,2.51-1.77,6.57-2.97,10.7-1.2,4.12-2.41,8.32-3.37,11.02-4.11,8.24,1.39-4.41,0-2.44-2.3,6.26-4.55,12.55-6.89,18.82-2.2,3.49-1.72,1.39-.15-3.22,1.53-4.62,4.32-11.68,7.01-18.03-5.44,7.85-6.85,11.71-9.06,18.2-1.15,3.22-2.62,7.05-4.93,12.32-.58,1.32-1.21,2.72-1.91,4.23-.7,1.51-1.45,3.12-2.35,4.81-1.77,3.39-3.86,7.23-6.34,11.61l3.92-8.56c1.3-2.85,2.64-5.69,3.82-8.6-1.75,2.53-3.52,5.22-5.26,8.16s-3.48,6.13-5.32,9.58c-.46.86-.93,1.74-1.4,2.64-.5.88-1.01,1.78-1.53,2.7-1.04,1.83-2.12,3.73-3.24,5.71-1.14,1.96-2.33,4-3.56,6.13-1.22,2.13-2.6,4.28-4.07,6.49,1.65-1.95,7.34-10.93,11.59-16.96,2.15-3,3.81-5.33,4.43-5.64.31-.15.36.19.07,1.2-.28,1.02-.95,2.67-2.12,5.12-1.56,2.63-3.31,5.71-5.26,9.47-.99,1.87-1.97,3.95-3.11,6.17s-2.34,4.64-3.59,7.28c-.66-.31-2.31,2.07-4.66,6.08-.58,1.01-1.22,2.11-1.91,3.29-.7,1.17-1.45,2.43-2.24,3.75-1.57,2.65-3.29,5.57-5.1,8.64l-1.14-1.83c-3.68,6.77-5.39,9.88-6.49,12.45-1.13,2.55-1.8,4.45-3.89,8.51-.59.9-1.15,1.75-1.7,2.55-.57.79-1.11,1.54-1.63,2.25-1.04,1.41-1.99,2.66-2.86,3.78-1.74,2.22-3.17,3.89-4.4,5.2-2.46,2.61-4.05,3.81-5.77,5.07-8.17,11.03-4.91,7.54-1.95,4.6,2.96-2.94,5.64-5.33-3.78,7.98-.87,1.14-1.73,2.25-2.57,3.35-.86,1.08-1.71,2.15-2.55,3.2-1.67,2.1-3.29,4.16-4.86,6.2-1.56,2.05-3.1,4.08-4.64,6.1-1.56,2.01-3.13,4.01-4.71,6.05-1.57,2.05-3.16,4.12-4.8,6.25-1.63,2.13-3.26,4.36-5.07,6.58-3.58,4.47-7.36,9.34-11.69,14.67-11.32,11.41,1.02-2.86-3.27,1.03l-8.47,11.53c-2.39,2.54-1.99,1.36-1.75.8-7.91,9.02.71,2.02-12.06,15.97-.54,1.26-2.68,3.45-5.83,6.31-1.57,1.43-3.4,3.02-5.39,4.74-1,.86-2.04,1.76-3.12,2.68-1.09.91-2.22,1.84-3.37,2.8-9.24,7.67-20.32,16.46-28.73,24.51-4.83,3.09,1.45-2.62-.39-2.13-5.96,5.22-10.41,8.7-13.91,11.42-1.77,1.33-3.29,2.48-4.68,3.53-1.41,1.02-2.67,1.93-3.9,2.82-1.22.91-2.44,1.73-3.71,2.63-1.28.9-2.61,1.87-4.17,2.89s-3.25,2.25-5.32,3.53c-1.03.65-2.13,1.35-3.31,2.11-1.19.75-2.5,1.5-3.9,2.34-6.85,2.84-13.8,5.27-20.86,7.2,7.83-2.01,7.1-.94,2.21,1.66-1.21.68-2.73,1.3-4.42,2.05-.85.37-1.74.76-2.68,1.14-.95.35-1.93.72-2.94,1.1-1.02.37-2.06.75-3.12,1.14-1.08.34-2.17.68-3.28,1.03-1.11.34-2.22.72-3.35,1.02-1.13.3-2.26.6-3.39.89,1.48-.1,2.91-.19,4.27-.28,1.36-.15,2.65-.29,3.86-.42,2.44-.23,4.53-.61,6.21-.91-9.51,2.97-19.33,5.09-29.33,6.17-3.66-.13-.63-.86,4.13-2.17-2,.33-3.91.72-5.4.92-5.36-.1-6.63-.53-5.64-1.05.49-.27,1.55-.58,2.94-.91,1.39-.35,3.13-.63,4.97-1.11,1.79.01,3.58.08,5.36.07,1.78-.04,3.55-.09,5.29-.13,7.03-2.29,13.22-5.22,11.5-5.94-1.78.63-5.25,1.67-9.16,2.43,1.78-.65,2.89-1.14,2.01-1.17-1-.04-3.85,1.01-8.47,2.08-2.25-.36-4.5-.95-6.7-1.44l-1.5.99c-6.23.16-12.43-.04-18.57-.7-6.12-.76-12.15-1.91-18.02-3.56-12.86-2.24-24.98-6.04-37.61-13.61-3.18-1.85-6.31-4.04-9.54-6.39-3.17-2.43-6.42-5.08-9.65-8.09-3.22-3.02-6.48-6.33-9.72-10.02-3.23-3.71-6.45-7.77-9.65-12.24,3.75,4.04,4.64,4.09,4.77,3.14.14-.97-.41-2.97.51-3.27,2.59,5.34,7.8,11.98,14.69,18.68,6.88,6.72,15.37,13.49,24.46,19.52-1.17-.81-2.16-1.51-2.98-2.11-.81-.61-1.44-1.15-1.95-1.58-1-.87-1.46-1.36-1.55-1.61-.18-.48,1.08.07,2.34.78-5.39-3.51-10.54-7.47-15.41-11.83-4.86-4.36-9.45-9.09-13.77-14.09,1.75-.24-4.39-7.21-9.39-16.29.9,4.08-3.73-1.73-9.05-10.78-2.65-4.52-5.46-9.84-7.99-14.97-2.54-5.13-4.81-10.07-6.61-13.76.27-.66,1.02-.19,2.65,2.75,1.67,2.92,4.17,8.31,8.53,17.21-3.91-10.26-7.48-16.35-11.03-22.53-1.77-3.08-3.49-6.2-5.1-9.87-.81-1.84-1.61-3.8-2.38-5.97-.74-2.18-1.43-4.56-2.09-7.2,1.63,4.62,2.33,7.17,3.51,8.8-1.25-2.58-2.57-6.25-3.98-10.12-1.41-3.88-2.63-8.07-3.73-11.7-2.03-7.32-3.12-12.56-1.78-9.53l1.4,4.67c-.56-1.95-1.15-4.02-1.77-6.2-.58-2.19-1.2-4.49-1.83-6.87-1.32-4.75-2.49-9.88-3.8-15.14-2.46-10.57-4.73-21.81-6.62-32.27-.86-5.24-1.79-10.25-2.46-14.9-.37-2.32-.72-4.54-1.05-6.64-.31-2.1-.6-4.08-.88-5.92-.6-3.67-1.05-6.76-1.49-9.08-.44-2.32-.85-3.87-1.21-4.45.3-.34,3.41,4.03,4.07,5.92l-1.64-7.12-1.48-7.16c-1.04-4.78-1.81-9.6-2.71-14.44l-1.15-7.27c-.39-2.43-.76-4.87-1.09-7.31-.66-4.88-1.24-9.8-1.65-14.76.94,2.65,3.01-.92,4.79-1.68.9-.39,1.71-.09,2.29,1.96.57,2.05.91,5.84,1.1,12.51.21-3.83.5-8.1.87-13.38.38-5.28.85-11.57,1.83-19.41-1.23,4.91-4.94,12.34-4.24,5.22,1.28-4.78,2.32-7.91,3.11-10.34.41-1.21.75-2.25,1.08-3.22.33-.96.64-1.85.96-2.78.67-1.84,1.35-3.81,2.56-6.63,1.24-2.81,2.87-6.5,5.95-11.39-1.86,3.23-2.63,2.69-2.31-.14.4-2.77,2.12-7.85,5.8-12.8-.35.93.49,1.21,1.13,1.75.66.55,1.03,1.27.02,3.18,4.44-8.72,10.57-16.81,18.51-23.07-1.51,1.13-2.22,1.89-2.33,2.38-.12.47.32.61,1.1.5.8-.08,1.97-.34,3.29-.77.65-.23,1.39-.39,2.11-.63.74-.21,1.47-.51,2.23-.73-1.44.46,3.9-2.74,11.11-4.26,3.58-.8,7.56-1.19,11.12-1.18,3.55-.04,6.66.42,8.54.58-3.91-.9-7.93-1.35-11.95-1.34,4.01-.22,7.54,0,10.67.33,1.58.12,3.04.39,4.45.56,1.39.25,2.72.46,3.97.71,5.02,1.02,9.07,2.08,13.09,3.41,4.01,1.34,7.99,3,12.6,5.8,2.27,1.44,4.74,3.12,7.32,5.32,2.61,2.17,5.36,4.83,8.19,8.15-1.63-1.4-4.21-2.52-4.86-1.7-.33.41-.19,1.29.71,2.86.86,1.61,2.52,3.88,4.92,7.34,1.52,1.28,3.89,3.42,6.77,6.5,2.86,3.09,6.13,7.18,9.17,12.39,1.55,2.59,2.99,5.46,4.41,8.52,1.37,3.08,2.66,6.37,3.81,9.84,2.26,6.94,3.92,14.6,4.74,22.51-.19,2.05-.44,4.09-.69,6.12.18,2.4.34,4.8.46,7.21.02.44,0,.97,0,1.23v.71l-.06,1.39-.12,2.68c-.08,1.74-.14,3.38-.17,4.93-.23-.66-.47-1.61-.64-3.22-.08-.81-.15-1.79-.2-3-.02-.63-.04-1.29-.07-2-.01-.37-.03-.75-.04-1.15,0-.21-.02-.43-.03-.65,0-.29-.02-.6-.05-.92-1.39-8.15-3.47-19.39-6.82-30.25-1.64-5.43-3.62-10.74-5.73-15.57-.52-1.21-1.06-2.39-1.61-3.53-.52-1.15-1.09-2.25-1.63-3.32-1.1-2.14-2.16-4.06-3.24-5.83,2.21,5.77,2.06,6.76,2.51,8.35.3,1.64,1.3,3.85,3.57,12.98.24,3.36-.59.89-1.81-2.96-1.22-3.87-3.07-9.05-4.11-11.55,4.9,13.42,7.06,27.91,7.49,42.63.68-.75,1.39,3.4,1.77,9.06,0,.06.02.1.03.19,0,.11.02.12,0,.38-.03.54-.06,1.08-.09,1.63-.09,1.09-.17,2.19-.26,3.31-.18,2.19-.36,4.44-.55,6.67-.34,4.39-.52,8.5-.48,11.74.08,6.52.9,9.45,1.33,8.05-.45-4.14-.47-9.25-.14-14.91.16-2.82.4-5.76.67-8.77l.41-4.55.18-2.3.04-.58.02-.46c0-.17,0-.3-.02-.41-.38-8.44-1.22-16.84-2.71-24.99.52-.67,1.66,1.52,2.86,5.92,1.21,4.39,2.42,11.04,3.03,19.07.02.25.04.45.04.81-.01.41-.03.82-.04,1.24-.05.82-.09,1.65-.14,2.48-.11,1.63-.23,3.3-.35,4.99-.24,3.34-.46,6.67-.6,9.95-.26,6.58-.31,12.75.48,18.8.18,2.22.23,3.19-.02,3.53-.23.34-.7.04-1.22-.42-1.04-.89-2.34-2.64-2.54-1.84.26.52.66,1.74,1.25,3.26.61,1.52,1.34,3.35,2.66,5.22.67.92,1.52,1.9,2.84,2.62.66.35,1.44.59,2.23.69.74.07,1.72.13,2.02-.28.76-.66,1.31-1.38,1.88-2.06.56-.7,1.09-1.36,1.57-1.97,1.32-1.79,2.4-3.07,2.77-3.28l-2.87,4.33c-.59.82-1.16,1.58-1.74,2.29-.59.71-1.13,1.38-1.87,1.95.75-.43,1.27-.93,1.84-1.44.56-.52,1.1-1.07,1.65-1.66.8-.94,1.6-1.93,2.46-3,.42-.54.86-1.07,1.31-1.69s.92-1.37,1.39-2.16c1.92-3.02,3.89-8.37,5.8-13.38,1.95-5.08,3.87-10.16,6.27-15.29.3-.64.62-1.28.95-1.92.17-.32.33-.64.52-.95l.27-.47.15-.22c.09-.13.14-.2.28-.37l.47-.58c.32-.39.64-.78.96-1.18,1.3-1.59,2.74-3.2,4.32-4.83,2.34-2.83,6.39-6.58,9.96-9.66,3.56-3.09,6.59-5.59,6.63-6.45-5.04,3.31-9.2,4.36-11.63,3.64-2.42-.71-3.13-3.31-.83-6.93.99-.92,8.43-7.85,17.25-14.19,4.39-3.19,9.08-6.25,13.22-8.67,4.16-2.43,7.78-4.12,9.81-4.91,2.97-1.1,3.54-.81,2.89.1-.65.91-2.48,2.5-4.28,4.17-3.62,3.36-7.02,7.01-2.4,4.82.04-.34,1.32-1.58,2.96-2.85,1.62-1.29,3.57-2.63,4.75-3.37,3.51-1.57,3.01-.77,3.45-.64.22.09.67,0,2.01-.52,1.34-.51,3.53-1.53,7.35-3.04.46-.72,2.67-1.81,5.38-2.77,2.72-.95,5.92-1.78,8.28-2.2,2.36-.47,3.86-.63,3.16-.62-.69.06-3.58.16-9.96,1.48,3.87-1.26,6.92-1.97,9.56-2.39,2.64-.45,4.87-.61,7.18-.72,2.31-.04,4.71-.08,7.66.17,2.95.24,6.48.63,10.9,1.8-1.32-.68-.95-1.04.69-1.13,1.61,0,4.52.25,7.96,1.41,3.44,1.13,7.46,3.09,11.05,5.99,3.61,2.86,6.79,6.57,8.99,10.32-.47-.33-.39.46-.13,1.52.28,1.06.58,2.47.83,3.36,3.31,7.98,4.17,15.73,4.06,22.76-.17,7.07-1.47,13.52-3.42,19.65-.95,3.08-2.09,6.07-3.37,9.05-1.27,2.98-2.68,5.95-4.25,8.95-3.11,6.01-6.81,12.15-11.15,18.92-.99,1.13-3.78,4.82-5.92,7.51-2.16,2.67-3.75,4.28-2.24,1.32-1.13,2.02-2.21,3.96-3.62,6.48-1.48,2.47-3.35,5.49-6.25,9.5-6.4,7.19-3.17,2.7.34-2.26,3.43-5.03,7.14-10.53,2.06-5.2.06.42-.75,2-2.11,4.31-1.39,2.3-3.37,5.3-5.61,8.62-4.54,6.59-10.26,14.32-14.51,19.97,1.04-.54,2.88-2.38,5.18-5.01,2.23-2.68,5-6.09,7.73-9.91,2.79-3.78,5.58-7.93,8.2-11.85,2.54-3.97,4.95-7.68,6.76-10.72,1.06.69-1.29,6.52-6.54,15.57s-13.48,21.28-24.17,34.5c-2.18,2.58-3.95,4.64-5.39,6.26-1.46,1.61-2.6,2.79-3.46,3.65-1.73,1.72-2.41,2.14-2.61,2.04-.42-.2,1.02-2.47-.43-.63-8.68,9.19-14.97,15.65-19.78,20.86-2.44,2.56-4.5,4.82-6.37,6.89-1.88,2.06-3.57,3.92-5.21,5.72-1.64,1.81-3.29,3.52-5.05,5.33-1.75,1.8-3.68,3.69-5.98,5.7-4.6,4.01-10.57,8.75-19.95,14.14-1.93.96-3.42,1.62-4.56,2.04-1.13.44-1.92.64-2.42.69-1.01.1-.91-.39-.46-1.07.93-1.35,3.2-3.51,1.31-3.07,4.66-2.9,8.67-5.6,12.3-8.12,3.62-2.52,6.86-4.85,9.88-7.1,3.03-2.25,5.82-4.45,8.54-6.69,1.36-1.12,2.73-2.23,4.08-3.4,1.34-1.18,2.69-2.38,4.05-3.64-4.66,3.94-9.38,7.78-14.18,11.55,1.25-1.21,2.84-2.76,4.62-4.49,1.79-1.7,3.77-3.57,5.77-5.47,1.99-1.9,4.05-3.78,5.95-5.54,1.9-1.77,3.68-3.37,5.21-4.66-1.39,1.06-3.4,2.77-5.91,5-2.53,2.2-5.6,4.87-9.08,7.91-6.93,6.08-15.68,13.43-25.9,20.02-10.18,6.59-21.94,12.45-33.97,14.97-2.99.65-5.99,1.05-8.94,1.24-2.95.21-5.85.14-8.63-.14-5.59-.52-10.68-2.07-14.99-4.04-.82-.22-1.65-.61-2.55-.95-.45-.18-.9-.36-1.36-.54l-1.33-.64c-1.8-.81-3.46-1.82-4.83-2.58-2.64-1.66-4.08-2.43-2.05-.42,3.31,2.47,6.9,4.59,10.7,6.19,2.5,1.38,2.4,1.62.98,1.31-.35-.08-.79-.19-1.28-.33-.48-.18-1.02-.38-1.6-.59-.58-.23-1.19-.47-1.82-.71-.61-.29-1.22-.6-1.84-.89-.61-.31-1.23-.58-1.78-.9s-1.08-.63-1.56-.9c-.96-.54-1.73-.98-2.12-1.21-.78-.46-.33.25,3,2.64-7.57-4.28-14.59-10.71-20.33-19.04-5.71-8.34-10.23-18.54-12.44-30.51.3-1.63.6-3.22,1-4.8-.24.29.09,4.23,1.15,8.82,1.01,4.59,2.87,9.78,4.45,12.77-1.18-2.22-2.35-5.59-3.4-9.53-1.01-3.95-1.82-8.52-2.27-13.15-.47-4.63-.47-9.33-.25-13.54.22-4.22.73-7.95.92-10.84-.98,2.73-1.76,5.55-2.24,8.41-.51,2.86-.83,5.76-.92,8.65-.37-4.4-.46-9.18.29-14.2.2-1.25.39-2.52.71-3.79.26-1.28.64-2.55,1.03-3.83.39-1.29.89-2.54,1.41-3.83.6-1.27,1.16-2.61,1.91-3.82,1.37-2.53,3.15-4.83,5.07-7.04,1.99-2.15,4.2-4.15,6.67-5.87,2.49-1.68,5.16-3.21,8.1-4.26l1.09-.41,1.13-.33c.76-.21,1.51-.44,2.28-.61,1.57-.28,3.13-.59,4.75-.64-.74-.04-1.42-.11-2.03-.09-.61.03-1.16.06-1.66.08-.51.04-.96.08-1.38.11-.41.07-.78.14-1.12.21-1.36.28-2.28.55-3.33.99-.53.2-1.11.42-1.82.69-.69.29-1.49.64-2.49,1.06-1.03.39-2.14,1.02-3.6,1.69-1.38.77-3.07,1.63-4.94,2.91,1.72-.99,2.2-1.07,1.82-.51-.19.28-.61.71-1.19,1.28-.29.28-.63.6-1,.96-.35.37-.74.77-1.16,1.21-1.7,1.71-3.71,4.1-5.63,6.96-.46.73-.94,1.47-1.4,2.24-.42.8-.85,1.61-1.28,2.42-.77,1.64-1.51,3.27-2.08,4.96-2.46,6.73-3.02,13.48-2.94,16.88.06,1.71.18,2.64.38,2.43.1-.1.22-.49.36-1.2.13-.71.3-1.74.58-3.13-.88,4.1-1.1,8.01-.95,11.79.16,3.79.69,7.46,1.48,11.21s1.83,7.56,3.16,11.72c1.34,4.15,2.94,8.64,5.11,13.65.08-.43-.55-2.26-.14-1.86.19.21.67.96,1.69,2.69.25.43.54.93.87,1.49.35.55.73,1.17,1.17,1.86.84,1.4,1.98,3.03,3.36,5,.69.58,2.11,2.07,3.05,2.97.37.46.51.62.83,1.01-.24-.31-.41-.54-.65-.85.62.57.68.61-.24-.31-1.33-1.87-2.51-3.56-3.32-5.03-.42-.72-.78-1.37-1.06-1.93-.27-.56-.47-1.03-.59-1.39,1.53,1.78,3.82,4.59,6.73,7.72,2.9,3.13,6.56,6.51,10.66,9.39,4.08,2.9,8.63,5.22,12.77,6.73,4.15,1.51,7.89,2.26,10.4,2.53,2.74.52,3.83.73,4,.82.17.11-.58.15-1.49.11-1.82-.02-4.33-.2-1.31.63,5.15.43,10.27.15,15.19-.69.2.15.81.24,1.68.29.87.07,2,.05,3.22-.02,2.45-.1,5.26-.5,7.22-.76,1.96-.27,3.07-.4,2.14.11-.46.26-1.44.66-3.13,1.18-.83.28-1.86.56-3.08.86-1.21.33-2.65.61-4.31.93,8.04-1.17,15.62-3.65,22.76-6.75,6.46-2.4,13.69-6.12,20.22-10.29,6.53-4.18,12.39-8.77,16.55-12.58,4.25-3.3,8.85-7.94,11.77-10.9,2.87-2.99,4-4.28,1.01-.83,8.36-7.94,16.45-16.16,24.26-24.63h.46c5.93-6.12,11.71-12.56,17.37-19.29,5.62-6.75,11.2-13.71,16.67-20.95,5.47-7.23,10.96-14.63,16.43-22.26,1.4-1.88,2.73-3.83,4.12-5.75s2.78-3.85,4.15-5.81c2.78-3.89,5.6-7.81,8.43-11.87,2.88-5.06,5.7-10.34,8.68-16.75,1.49-3.2,2.98-6.71,4.44-10.66,1.45-3.95,2.86-8.36,4-13.4.69-1.22,1.25-2.53,1.88-3.83.51-4.05.95-9.14.78-14.64-.15-5.5-1.02-11.43-2.65-16.95-1.61-5.52-4.04-10.6-6.64-14.41-.61-.98-1.32-1.82-1.93-2.63-.32-.4-.61-.79-.92-1.15-.32-.35-.63-.68-.92-.99-.59-.63-1.13-1.18-1.62-1.65-.51-.44-.96-.8-1.34-1.08-.34-.48-.73-.99-1.15-1.53-.44-.52-.94-1.05-1.47-1.61-1.03-1.15-2.35-2.25-3.77-3.46-2.93-2.3-6.67-4.59-11.03-6.37-4.36-1.79-9.31-3.08-14.48-3.7-5.17-.63-10.55-.59-15.86-.04-10.65,1.08-20.95,4.29-29.89,8.17-8.96,3.88-16.6,8.47-22.38,12.33,0,.61.02,1.22.04,1.83-7.51,5.27-14.44,11.03-21.26,17.67-6.79,6.66-13.5,14.2-20.22,23.31l1.91-.26c-.82,1.16-1.67,2.37-2.55,3.62-.44.63-.89,1.26-1.35,1.91-.23.33-.44.59-.8,1.14-.15.24-.32.5-.45.72l-.15.28c-.78,1.5-1.51,3.16-2.28,4.82-1.53,3.34-3.06,6.62-4.54,9.5-.26.51-.53,1-.8,1.49-.14.24-.28.48-.43.71-.08.11-.16.23-.25.34-.09.09-.18.25-.36.21-.65-.01-1.34-.46-1.69-1.15-.37-.67-.55-1.44-.66-2.18-.4-3.02-.14-5.81,0-8.4.55,0,.16,2.97.02,6.22.39-4.11.92-6.8,1.24-9.12.17-1.15.31-2.21.42-3.26l.15-1.58.05-.8v-.41l.03-.53c.01-.28.01-.61.01-.93-.28-12.62-1.85-25.31-4.74-37.38-1.45-6.03-3.17-11.9-5.2-17.53-.53-1.41-.99-2.8-1.57-4.2-.55-1.4-1.09-2.79-1.7-4.14-.29-.68-.59-1.36-.88-2.03-.31-.66-.62-1.33-.93-1.99-.59-1.33-1.26-2.61-1.89-3.9-2.4-3.59-4.51-6.62-6.54-9.32-1.98-2.73-3.87-5.14-5.74-7.51.53.6,1.02,1.12,1.45,1.56-.58-.67-1.4-1.68-2.34-2.65-2.39-2.97-5.06-5.86-8.16-8.83,1.3,1.28,2.48,2.62,3.65,3.85,1.11,1.29,2.23,2.45,3.21,3.6-2.32-2.37-5.34-5.27-8.97-8.08-3.61-2.83-7.76-5.63-12.12-7.99l-1.47-1.7-1.55-1.64c-.74-.36-1.3-.7-2.1-1.03-1.09-.59-2.03-1.08-2.83-1.47-.81-.37-1.48-.63-2.02-.83-1.07-.38-1.61-.46-1.72-.3-.23.32,1.26,1.51,3.41,3.06-4.65-1.85-9.12-3.01-12.63-3.57-3.51-2.17-10.19-3.23-17.21-3-7.06.19-14.24,1.79-19.92,2.46-.77.43-2.08,1.09-3.8,1.88-.85.41-1.77.93-2.78,1.45-.5.27-1.04.53-1.57.83-.52.31-1.07.64-1.62.97-4.46,2.63-9.52,6.41-13.86,10.76-4.38,4.33-8.05,9.17-10.51,13.3-.65,1.01-1.17,2.02-1.65,2.94-.47.93-.92,1.75-1.22,2.53-.63,1.55-1.01,2.73-1.05,3.43-.22.06-.7.7-.82.75-.11.06.07-.51,1.4-2.75-2.84,4.54-5.27,9.35-7.14,14.22-1.87,4.85-3.21,9.74-3.97,14.43-.92,1.31-1.88,2.64-2.77,4-.39,3.89-.58,7.77-.69,11.62-.07,3.85-.04,7.68.11,11.49-1.05,6.85-1.54,11.73-2.07,13.16-.49,1.43-1.04-.55-1.45-7.5.18,8.38.5,14.18.78,18.68.25,4.5.37,7.69.6,10.72.42,6.06.7,11.54,2.89,25.41l-1.29-1.27c.37,5,1.47,11.44,2.4,17.38,1.02,5.93,1.86,11.36,1.86,14.42.14,2.81.45,6.64,1.12,11.27.33,2.32.66,4.85,1.12,7.55.48,2.7,1,5.58,1.54,8.62,2.35,12.14,5.85,26.73,10.49,42.13,4.65,15.42,10.33,31.61,16.9,47.15,6.59,15.52,14.19,30.23,22.01,42.67-.87-2.84-.42-2.79.77-1.13,1.19,1.67,3.16,4.95,5.53,8.5,2.33,3.58,5.12,7.4,7.56,10.3,2.46,2.9,4.59,4.85,5.48,4.81,1.73,3.06,7.35,9.25,0,2.92,10.94,10.6,20.16,17.66,29.06,23.07,4.47,2.68,8.89,4.87,13.5,6.69,1.16.44,2.32.87,3.5,1.28,1.2.36,2.4.71,3.62,1.05,1.23.32,2.44.71,3.72.95,1.27.25,2.56.48,3.88.71,3.2,1.77-6.7-.64-3.81.69,1.22.26,3.64.79,6.15,1.33,2.52.45,5.1,1.04,6.64,1.58.76.25.85.37.48.4-.37.04-1.19,0-2.26-.18-1.07-.17-2.39-.38-3.75-.59-.68-.11-1.37-.23-2.04-.34-.67-.14-1.32-.28-1.93-.41,7.76,2.01,13.92,2.81,18.72,2.99,1.2.05,2.32.09,3.35.11,1.04.03,2-.06,2.88-.09,1.78-.1,3.26-.25,4.52-.42,5.01-.94,6.32-2.14,7.4-3.39,1.94.04,3.75.08,5.47.11,1.72,0,3.33-.11,4.87-.18.77-.05,1.52-.09,2.25-.14.73-.06,1.44-.16,2.14-.24,1.4-.17,2.73-.36,4.04-.57,2.59-.46,5.02-1.08,7.47-1.75,2.42-.8,4.87-1.59,7.45-2.69,2.67-.32,6.24-.87,6.85-.75.61.13-1.63,1.32-10.86,3.65,1.31-.29,3.3-.68,5.73-1.34,1.22-.31,2.56-.66,4-1.03,1.42-.43,2.94-.89,4.53-1.36,6.35-1.97,13.75-4.75,20.59-7.93,6.84-3.19,13.16-6.74,17.75-9.59,2.27-1.47,4.13-2.74,5.42-3.7,1.27-1,1.97-1.68,1.95-1.96.76-.35,1.92-1.01,3.27-1.84,1.33-.85,2.84-1.89,4.32-2.93,2.96-2.09,5.74-4.31,6.8-5.21,4.76-3.5,8.37-6.27,11.41-8.68,1.51-1.21,2.89-2.32,4.2-3.37,1.29-1.07,2.52-2.09,3.74-3.11,4.85-4.1,9.62-8.23,17.98-16.16-1.62,1.39-3.26,2.75-4.9,4.11,1.29-1.96,2.78-3.78,4.5-5.62,1.73-1.82,3.65-3.7,5.82-5.73,2.19-2.02,4.6-4.24,7.32-6.74,1.35-1.26,2.79-2.58,4.26-4.03,1.45-1.47,2.97-3.04,4.56-4.73l-.2.55c3.85-3.67,6.93-6.65,9.42-9.09,2.46-2.49,4.3-4.47,5.79-6.07,2.98-3.21,4.44-4.95,5.91-6.68.73-.86,1.46-1.72,2.37-2.76.89-1.05,1.95-2.3,3.38-3.91s3.22-3.58,5.56-6.11c1.17-1.26,2.48-2.66,3.94-4.23,1.48-1.55,3.01-3.36,4.77-5.31l-2.55.85c.02-1.25,1.58-3.6,4.14-6.73,2.55-3.13,6.16-7,9.99-11.52,7.84-8.89,17.12-19.98,23.6-30.32-.94,1.13-1.86,2.27-2.83,3.39l-2.91,3.32c.86-1.43,1.92-2.91,3.08-4.48,1.13-1.59,2.4-3.23,3.76-4.91,2.72-3.37,5.81-6.89,8.95-10.4,3.03-3.58,6.1-7.15,8.9-10.52,1.4-1.69,2.72-3.32,3.93-4.88,1.2-1.57,2.23-3.1,3.15-4.51.87-1.18.37-.14-.6,1.66-.49.89-1.07,1.99-1.69,3.06s-1.25,2.14-1.77,3.02c2.61-3.56,4.4-6.41,5.81-8.58,1.39-2.18,2.32-3.71,2.92-4.8,1.2-2.18,1.08-2.59.77-2.79-.32-.2-.84-.2-.47-1.56.37-1.36,1.69-4.06,4.77-9.83,3.26-3.71-.82,6.71,8.02-8.58,1.3-1.79,3.19-5.67,5.58-10.73,1.18-2.53,2.5-5.36,3.92-8.39,1.42-3.02,2.76-6.33,4.25-9.69,1.48-3.36,3.01-6.84,4.55-10.33,1.49-3.51,2.97-7.04,4.48-10.47,1.49-3.43,3.06-6.74,4.51-9.9,1.42-3.17,2.84-6.15,4.23-8.82-2.78,4.59-5.54,9.1-1.37-2.31.87-2.16,1.87-4.48,2.97-6.92,1.05-2.47,2.16-5.07,3.31-7.76,2.31-5.38,4.93-11.05,7.2-16.81,4.66-11.47,8.55-23.07,9.74-31.51.85-2.23,1.29-3.04,1.5-3.08,1.72-6.95,4.3-18.31,6.1-29.09.96-5.38,1.56-10.65,2.07-15.08.35-4.46.6-8.08.5-10.26.78-1.57,1.47-4.15,2.09-7.46.33-1.65.5-3.5.72-5.49.18-1.99.43-4.13.51-6.38.47-9.02-.03-19.85-1.27-30.14-.35-2.57-.69-5.11-1.03-7.59-.42-2.48-.82-4.89-1.29-7.2-.42-2.31-.94-4.51-1.37-6.59-.48-2.07-.93-4.01-1.34-5.8-1.69-7.13-2.81-11.72-1.68-12-4.49-14.24-10.75-27.94-18.73-40.61l1.02.75c-7.44-12.34-14.11-19.66-19.42-24.83-5.38-5.14-9.58-8.09-13.8-10.87-2.45-2.23-2.74-2.6-2.26-2.48.48.12,1.63.85,1.91.93-4.05-3.37-7.8-6.2-11.36-8.5-1.74-1.21-3.49-2.2-5.11-3.21-1.64-.98-3.24-1.82-4.76-2.66-6.13-3.23-11.42-5.24-16.55-6.91-1.3-.38-2.58-.76-3.87-1.13-1.29-.35-2.61-.63-3.94-.94-.66-.15-1.33-.3-2.01-.45-.68-.12-1.37-.24-2.07-.37-1.4-.23-2.83-.51-4.32-.7-5.97-.83-12.86-1.27-21.6-.96l-3.63-1.5c-.6.05-1.36.08-2.26.12-.91.06-1.96.11-3.16.15-2.39.05-5.32.26-8.7.48-6.75.51-15.28,1.63-24.58,3.89-4.66,1.08-9.48,2.55-14.39,4.2-4.88,1.73-9.84,3.69-14.69,5.98-4.85,2.31-9.65,4.82-14.2,7.65-2.31,1.36-4.5,2.89-6.69,4.34-1.07.77-2.13,1.54-3.19,2.3-1.06.76-2.09,1.54-3.09,2.35.23-.37.72-1.14,3.32-3.14-9.36,6.82-19.17,15.02-28.16,24.15-4.47,4.57-8.79,9.33-12.85,14.18-4.04,4.86-7.78,9.84-11.23,14.74-3.43,4.92-6.48,9.8-9.2,14.47-2.66,4.7-5.01,9.16-6.88,13.31-3.78,8.28-5.93,15.14-6.24,19.51l-.32.88c-.12.34-.25.72-.35,1.04-.22.68-.39,1.32-.56,1.96-.34,1.27-.63,2.51-.91,3.74-.56,2.46-1.07,4.9-1.56,7.33l-2.85,14.55c9.47-37.11.9,6.1,5.51-8.99-1.62,7.34-4.26,16.7-6.06,21.94s-2.65,6.4-.58-2.58l.94-2.74c-.61-3.64-3.51,7.9-6.92,19.87-.86,2.99-1.77,6-2.73,8.73-.48,1.36-.97,2.66-1.47,3.78-.25.57-.5,1.07-.74,1.48l-.17.28-.15.21s-.06.07-.09.1c0,.02-.02-.02.02,0,.13.1.27.21.39.33.25.21.51.51.7.7.36.29.68.85.82,1.03.08.14.12.33.14.35.01.03.02.07.02.11v.05c-.03,2.55.04-3.45.04-2.83v.07c0,.42-.07.74-.11.85-.1.26,0-.1.62-.54.12-.08.34-.25.53-.35l.15-.08s.01,0,.02-.01v-.02s0-.1-.02-.16c-.02-.15-.05-.37-.06-.58-.04-.9.11-1.63.35-1.52-.05-.49-.08-1.03-.11-1.6l-.12-1.97c-.07-.84-.16-1.67-.35-2.48-.17-.82-.52-1.57-.87-2.32l-.41-.88c-.1-.23-.22-.43-.3-.67l-.55-1.4c-.36-.95-.68-1.93-.98-2.92-.6-2-1.1-4.08-1.55-6.2-.9-4.24-1.55-8.66-2.25-13.13s-1.43-9.1-2.62-13.75c-1.13-4.39-2.27-8.77-3.49-13.13-4.83-17.44-10.43-34.61-17.3-51.21-13.62-33.19-32.91-64.03-58.32-88.41,1.57,2.4,2.95,4.94,4.36,7.42-5.72-6.09-11.97-11.67-18.39-17.03-2.44-2.22-3.94-3.92-3.05-3.68.87.26,4.28,2.34,11.05,8.32-1.61-1.77-3.87-3.88-6.44-5.94-2.65-1.97-5.49-4.05-8.26-5.74-2.79-1.66-5.36-3.11-7.29-4.12-1.98-.93-3.28-1.47-3.46-1.44-1.83-1.22-3.39-2.26-4.71-3.14-1.35-.82-2.45-1.5-3.32-2.05-1.74-1.11-2.57-1.73-2.73-1.98-.33-.51,1.99.44,4.99,1.79,5.96,2.76,14.26,7.78,9.7,4.75l-6.35-3.87c-2.12-1.28-4.35-2.38-6.52-3.58l2.81,1.85c-2.75-1.24-4.86-2.22-6.86-2.98-2.01-.74-3.85-1.4-5.94-2.22-2.07-.85-4.48-1.73-7.62-2.91-3.15-1.16-7.04-2.58-12.24-4.21-3.27-1.07-5.32-1.79-6.64-2.26-1.32-.49-1.89-.79-2.2-1.02-.64-.47-.26-.63-2.93-1.26.03-.07-.4-.23-1.65-.52-1.25-.26-3.32-.67-6.58-1.11-10.61-1.81-21.42-2.42-32.21-1.97,4.34.4,8.64.88,12.88,1.63-7.1.15-14.58.55-18.45,1.04-1.93.26-2.96.45-2.58.62.19.08.73.15,1.69.22.95.06,2.32.13,4.16.26-.67-.05-1.42-.09-2.24-.11-.82,0-1.7,0-2.65.03-1.9.01-4.05.19-6.42.39-4.73.49-10.31,1.4-16.33,2.95-12.03,3.06-25.84,8.91-37.65,17.47-11.83,8.53-21.51,19.18-28.07,28.45-.81,1.17-1.59,2.3-2.35,3.4-.75,1.1-1.51,2.13-2.13,3.19-1.3,2.08-2.48,3.98-3.53,5.67-1.94,3.46-3.51,5.99-4.32,7.43-3.98,9.07-7.46,18.16-10.73,27.86-3.26,9.7-6.28,20.02-9.11,31.54.83-2.83,2.02-4.96,2.26-3.93.13.52.02,1.81-.38,4.23-.21,1.21-.5,2.69-.89,4.49-.37,1.8-.82,3.92-1.33,6.41-1.2-4.07-3.56,4.97-6.24,17.04-1.13,6.07-2.35,12.89-3.63,19.19-.34,1.57-.6,3.13-.86,4.63-.27,1.5-.54,2.95-.81,4.32-.55,2.75-1.13,5.21-1.74,7.23.92-3.62.97-1.81.62,2.58-.15,2.2-.52,5.03-.65,8.17-.2,3.14-.41,6.57-.62,9.94-.19,3.37-.38,6.67-.55,9.54-.06,2.88-.02,5.34.04,7.02.15,3.35.56,3.57,1.46-2.17-.96,17-1.54.96-2.97,13.87v3.84c0,1.29.08,2.58.11,3.88.06,2.6.12,5.24.18,7.9.13,5.32.03,10.76.36,16.3.23,5.54.43,11.18.62,16.91.39,5.72.78,11.53,1.18,17.41,1.87,23.51,5.15,48.19,10.91,72.69.33.33.27-1.62.5-2.34.11-.36.29-.42.63.26.17.34.38.86.64,1.63.29.76.64,1.75,1.06,3.03l1.92,13.17c.33,2.2.62,4.41.99,6.6l1.23,6.55c1.52,4.74,2.9,6.72,4.3,9.75.73,1.51,1.37,3.31,2.22,5.8s1.76,5.71,2.77,10.15c-.4-2.57-.98-6.39,1.3-.15.91,2.93,1.83,5.87,2.74,8.81.95,2.93,2.07,5.8,3.1,8.71,1.06,2.9,2.13,5.8,3.19,8.71l1.61,4.36c.55,1.45,1.19,2.86,1.78,4.3,2.43,5.71,4.86,11.44,7.3,17.17,2.7,5.62,5.41,11.24,8.13,16.88,11.28,22.33,24.28,43.94,38.61,64.67,3.66,5.13,7.33,10.26,10.99,15.39l11.55,14.97c1.88,2.53,3.94,4.92,5.95,7.35l6.03,7.28,3.01,3.64,1.51,1.82,1.57,1.76,6.28,7.06,6.25,7.08c2.1,2.34,4.32,4.58,6.47,6.87l6.47,6.87,3.23,3.44,3.35,3.32c4.45,4.44,8.9,8.88,13.34,13.31,4.59,4.28,9.15,8.59,13.69,12.92-4.8-4.83-5.46-5.78-3.96-4.69.75.55,2.05,1.61,3.65,2.95s3.48,3,5.53,4.57c-5.1-4.38.95-.91.37-2.28l15.7,13.8,16.27,13.17c.46.18.99.44,1.61.77.63.31,1.34.68,2.1,1.11,1.54.86,3.33,1.95,5.29,3.19s4.08,2.62,6.27,4.06c1.09.73,2.21,1.47,3.33,2.21,1.12.75,2.24,1.51,3.4,2.2,4.61,2.82,9.12,5.58,12.78,7.68,1.83,1.05,3.44,1.93,4.75,2.58,1.31.64,2.34.96,2.93,1.03-1.97-.99-3.86-2.12-5.77-3.22l-5.72-3.31c8.07,3.64,3.45-.65-2.63-5.94-1.52-1.32-3.13-2.71-4.68-4.05-1.5-1.4-2.91-2.78-4.08-3.98-2.34-2.41-3.71-4.19-2.78-4.43-2.19-1.09-4.47-2.4-6.83-3.9-1.18-.75-2.38-1.53-3.6-2.37-1.19-.88-2.39-1.8-3.62-2.75-2.45-1.91-4.98-3.96-7.59-6.09-1.3-1.07-2.63-2.16-3.97-3.27-.67-.55-1.35-1.11-2.03-1.68-.66-.59-1.33-1.19-1.99-1.78-2.68-2.39-5.43-4.84-8.27-7.29-1.43-1.22-2.87-2.44-4.32-3.68-.73-.61-1.47-1.22-2.21-1.84-.72-.64-1.44-1.28-2.17-1.92-2.91-2.55-5.91-5.07-9.01-7.52s-6.34-4.79-9.5-7.22c-4.72-5.24,4.99,3.42,2.7.35-6.63-4.66-14.2-10.88-26.3-24.29l1.65,1.24c-2.22-2.25-4.4-4.39-6.44-6.54-1.99-2.19-3.91-4.3-5.77-6.36s-3.66-4.06-5.42-6.02c-1.76-1.95-3.48-3.85-5.05-5.82-6.35-7.79-12.32-14.84-17.79-22.53-1.4-1.9-2.81-3.8-4.23-5.73-.71-.96-1.43-1.93-2.15-2.91-.36-.49-.72-.98-1.08-1.47-.34-.51-.69-1.01-1.04-1.52-2.76-4.09-5.62-8.32-8.65-12.8-.76-1.12-1.53-2.25-2.3-3.4-.79-1.14-1.49-2.37-2.26-3.58-1.51-2.43-3.07-4.94-4.69-7.54s-3.3-5.28-5.04-8.07c-1.63-2.85-3.33-5.81-5.09-8.89l.92,4.35c-3.03-5.31-4.77-8.57-6.08-11.14-.65-1.29-1.21-2.39-1.74-3.51-.51-1.13-1.01-2.26-1.6-3.57-2.13-2.82-2.19-2.35-1.2-.2.49,1.08,1.25,2.57,2.13,4.28.96,1.66,2.05,3.55,3.15,5.44,4.39,7.55,8.85,15.26,4.58,10.37-.72-1.94-1.95-4.55-3.55-7.65-.8-1.55-1.69-3.23-2.66-5.01-.49-.89-.99-1.8-1.51-2.74-.49-.96-.99-1.94-1.5-2.94-4.07-8.05-9.24-17.3-13.6-26.8-1.13-2.35-2.25-4.7-3.36-7-.55-1.16-1.11-2.3-1.63-3.44-.49-1.16-.98-2.31-1.46-3.44-1.91-4.53-3.7-8.83-5.25-12.7-1.61-3.85-2.71-7.38-3.57-10.26-.85-2.88-1.37-5.12-1.48-6.54-3.35-8.74-3.25-7.32-3.14-5.9.05.71.11,1.43-.27.87-.37-.56-1.25-2.37-2.7-6.84l-.75-5.01-2.6-4.13c-.94-2.93-1.71-5.52-2.31-7.76-.52-2.27-.89-4.19-1.14-5.76-.51-3.14-.53-4.86-.23-5.19.77,2.88,2.55,8.07,3.57,11.1-.93-3.88-2.13-8.52-3.53-13.35-.72-2.41-1.45-4.88-2.18-7.35-.75-2.46-1.33-4.95-2-7.33-1.29-4.78-2.5-9.25-3.48-12.85-.24-.9-.46-1.75-.67-2.54-.17-.79-.33-1.52-.47-2.18-.28-1.32-.47-2.35-.57-3.03l.78,4.43c.24,1.48.62,2.93.92,4.4l1.91,8.8c-6.7-24.68-11.71-52.74-14.47-80.8-.3-3.51-.6-7.02-.9-10.52-.15-1.75-.3-3.5-.46-5.24l-.23-2.61c-.07-.87-.09-1.74-.14-2.61-.35-6.97-.69-13.87-1.03-20.67-.1-6.81-.22-13.51-.39-20.05.04-6.55.08-12.95.12-19.14l-.81,3.73c.02-2.37.03-4.56.05-6.6,0-2.04.18-3.91.26-5.66.21-3.5.41-6.47.62-9.09.42-5.26.78-9.15,1.46-13.13.61-3.98,1.26-8.07,2.02-13.75.2-1.42.36-2.94.63-4.57s.56-3.39.87-5.28c.61-3.8,1.29-8.17,2.04-13.31l-.08,1.52c.25-4.18,1.09-8.96,1.96-14.14.45-2.58.94-5.26,1.47-7.98.27-1.36.53-2.74.82-4.12.33-1.37.65-2.75.98-4.13-.81,5.2.66.47,2.12-3.81,1.5-4.27,2.9-8.12,1.63-1.4,2.19-9.95,3.88-16.05,4.98-20.1,1.15-4.04,1.63-6.08,2.03-7.68.82-3.21.52-4.97,4.87-17.78,1.15-1.75,2.45-3.41,3.69-5.09.39-1.08.74-2.04,1.06-2.92.35-.87.68-1.67.99-2.45.65-1.56,1.25-3.05,2.1-4.81.91-1.73,1.99-3.78,3.57-6.46.85-1.3,1.8-2.77,2.9-4.46.28-.42.56-.85.86-1.3.32-.43.65-.87.99-1.33.68-.91,1.41-1.88,2.18-2.91-4.78,6.97-2.42,4.6-.22,2.51,2.21-2.1,4.22-3.91-.9,3.81,6.69-8.2,13.11-14.67,19.22-19.9,3.03-2.64,5.98-4.96,8.88-7.03.72-.52,1.44-1.03,2.14-1.53.72-.47,1.43-.94,2.13-1.4,1.39-.95,2.8-1.77,4.16-2.59,5.47-3.24,10.65-5.66,15.66-7.36,5.02-1.69,9.87-2.66,14.75-2.84,4.54-1.73,4.63-2.23,2.25-2.08-2.37.14-7.16,1.06-12.09,2.48-9.91,2.8-19.93,8.16-15.15,5.5-4.33,1.54-1.06-.88,5.22-3.87,6.24-3.06,15.7-5.95,22.42-7.04,6.81-1.22,12.82-.97,21.23-.3,4.21.37,9.02.85,14.87,1.64,5.85.8,12.72,1.92,21,3.77-1.65-.37-2.54-.51-3.43-.65-.89-.11-1.79-.22-3.44-.54,6.17,1.5,12.24,2.72,18.57,4.53,6.31,1.83,12.87,4.17,19.56,8.31,1.08.28,2.21.58,3.28,1.02,1.08.45,2.15.95,3.21,1.47,2.11,1.06,4.22,2.12,6.03,3.3,1.84,1.13,3.52,2.14,4.96,2.83,1.46.66,2.58,1.16,3.45,1.01-8.83-5.79-18.19-10.72-27.86-14.75,2.09.76,4.12,1.66,6.18,2.51,2.05.87,4.19,1.62,6.23,2.63,2.08.96,4.2,1.94,6.37,2.95,2.11,1.14,4.29,2.3,6.54,3.51,8.86,5.08,18.58,11.94,28.88,22.82-1.02-.63-3.25-2.34-5.81-4.38-2.59-2-5.63-4.18-8.03-6.04,3.04,3.12,6.38,5.62,9.47,8.49,1.56,1.42,3.2,2.77,4.69,4.32,1.5,1.54,2.99,3.16,4.43,4.89-.88-.05-3.02-1.77-5.96-4.51-3.05-2.62-6.88-6.3-11.39-9.98-2.18-1.93-4.63-3.73-7.05-5.6-2.39-1.92-5.01-3.58-7.51-5.29-.63-.42-1.26-.84-1.88-1.25-.63-.41-1.28-.76-1.91-1.14-1.27-.73-2.52-1.45-3.73-2.14-2.4-1.43-4.84-2.46-7-3.43.94.66,2.14,1.4,3.51,2.19,1.38.76,2.84,1.75,4.41,2.66,1.55.95,3.21,1.84,4.76,2.84,1.55,1,3.07,1.98,4.46,2.88.7.45,1.36.89,1.99,1.29.62.42,1.16.85,1.67,1.23,1.01.76,1.8,1.4,2.28,1.85.96.9.67,1.07-1.6.12,1.6.73,3.22,1.59,4.85,2.6,1.58,1.07,3.19,2.27,4.83,3.57.81.66,1.66,1.3,2.46,2.03.79.74,1.6,1.5,2.43,2.27.81.78,1.64,1.57,2.48,2.38.42.41.84.82,1.26,1.23.41.43.81.87,1.23,1.31,6.72,6.92,13.57,15.24,21.55,23.86l-2.07-.37c.61.69,1.38,1.57,2.26,2.58.84,1.05,1.8,2.22,2.81,3.48,1,1.27,2.08,2.6,3.1,4,1,1.42,1.98,2.87,2.91,4.3-1.39-1.55-2.74-3.11-4.14-4.64l-4.28-4.48c6.17,7.13,10.67,15.11,14.74,23.1.99,2.02,2.01,4.01,2.97,6.03.93,2.04,1.87,4.06,2.83,6.08,1.91,4.04,3.79,8.11,5.84,12.15-3.87-8.66-6.28-13.32-7.41-15.91-1.13-2.59-1.09-3.04-.7-2.9.39.14,1.12.87,1.35.64.23-.22,0-1.43-1.76-5.06,6.08,10.07,9.27,17.01,11.32,22.2,2.06,5.2,2.93,8.7,3.84,12.37.89,3.67,1.77,7.52,3.52,13.55,1.72,6.04,4.36,14.24,8.22,26.87-1.08-3.41-2.85-9.88-3.9-14.18-1.08-4.29-1.34-6.45.73-1.24,1.42,4.83,2.95,10.48,4.19,15.7,1.23,5.23,2.21,10.01,2.64,13.11.29,1.06.56,2.04.82,2.96.21.83.41,1.6.59,2.31.17.74.33,1.42.47,2.04.14.64.26,1.23.38,1.76.45,2.15.74,3.46.93,4.12.38,1.33.38,0,.27-1.91-.1-1.91-.32-4.38-.32-5.46s.32-.95,1.21,2.55c.19,5.87.94,10.21,2.27,15,.65,2.39,1.46,4.92,2.44,7.84,1.01,2.92,2.15,6.25,4.1,10.25l-1.26.72c.07.15.13.3.18.41.26.49.3,1.02.31,1.5.02.46.04.9.05,1.33.03.57.06,1.13.09,1.67.08,1.16.21,2.4.55,3.81.18.72.42,1.49.79,2.32.39.86.94,1.8,1.77,2.72.82.93,2.03,1.78,3.24,2.27,1.25.52,2.38.65,3.4.69h.2l.33-.02c.22-.01.44-.04.65-.07.43-.07.86-.17,1.27-.3.6-.21,1.08-.46,1.57-.75.28-.17.4-.26.53-.37l.41-.33.39-.35c.13-.12.18-.18.27-.27.31-.33.64-.72.79-.95.18-.26.4-.56.51-.75.57-.92.84-1.54,1.13-2.16.26-.59.46-1.12.62-1.59.66-1.88.9-3.07,1.04-4,.14-.92.15-1.54.15-2.14,0-1.19-.02-2.27.64-5.24.66-2.97,1.97-7.84,4.43-16.62-.6,5.18-1.23,10.36-2,15.61,1.59-6.3,2.96-12.54,4.31-18.77l.65,4.23c1.91-10.27,3.22-16.92,4.8-23.44.79-3.25,1.62-6.48,2.63-10.03.51-1.76,1.06-3.64,1.68-5.49.16-.46.32-.91.48-1.34.08-.19.16-.43.23-.59.1-.22.19-.45.29-.67.46-1.04.93-2.13,1.43-3.26-1.34,1.93-1.71,1.09-.9-2.29.88-3.34,2.92-9.26,6.9-17.14,3.14-5.15,2.67-3.48,2.83-3.33.08.08.31-.22,1.27-1.9.95-1.68,2.6-4.77,5.77-10.11-2.12,5.29-4.22,11.05-10.16,20.14-.09,1.19-1.55,5.38-1.59,6.61,3.09-5.63,6.72-12.78,10.38-19.35,3.63-6.59,7.3-12.6,9.83-16.26-.5.7-1.02,1.43-1.54,2.16-.51.74-1.01,1.48-1.5,2.19-.97,1.41-1.89,2.66-2.51,3.52,2.87-5.22,5.92-10.34,9.21-15.32,3.3-4.97,6.81-9.8,10.53-14.49,2.11-1.89,2.48-1.94,2-1.07-.49.86-1.83,2.64-3.08,4.46.57-.7,1.12-1.37,1.65-2.03.54-.65,1.07-1.29,1.6-1.92,1.06-1.27,2.06-2.56,3.22-3.86,1.15-1.3,2.33-2.74,3.78-4.2.72-.74,1.48-1.52,2.29-2.35.82-.82,1.74-1.64,2.71-2.54-.62,1.36-.63,2.12-1.76,3.89-.55.89-1.39,2.03-2.73,3.6-.66.81-1.42,1.74-2.34,2.81-.46.53-.96,1.1-1.49,1.71-.52.62-1.08,1.28-1.68,1.99,1.78-2.16,3.69-4.19,5.56-6.28,1.93-1.99,3.83-4.01,5.86-5.92,4.02-3.85,8.21-7.54,12.65-10.95.52-.24,1.71-.9,3.17-1.68,1.45-.79,3.15-1.75,4.71-2.51,3.09-1.59,5.55-2.59,3.8-1.32,4.03-2.23,8.49-4.72,13.33-7.28,4.87-2.5,10.14-5.03,15.73-7.3,11.15-4.58,23.77-7.87,35.95-8.41.62-.16,1.56-.35,2.99-.56,1.43-.16,3.36-.35,5.95-.5,5.73-.03,11.27.47,16.72,1.28,2.73.38,5.41.96,8.11,1.5,1.34.33,2.67.66,4.02.99,1.35.31,2.66.76,4.01,1.13,5.35,1.59,10.7,3.54,16.17,5.94,5.46,2.43,11.03,5.32,16.81,8.82,3.79,3.48,7.35,7.16,10.6,11.07,3.92,3.44,4.98,4.28,4.9,3.79-.06-.5-1.37-2.23-2.38-3.66-.99-1.45-1.75-2.53-.5-1.88,1.18.72,4.5,3.08,10.61,9.64,4.32,4.65,6.5,7.77,7.73,9.62,1.19,1.88,1.34,2.6,1.19,2.89-.33.6-1.92-.39.33,3.4,3.9,4.87,9.09,11.84,13.68,20.78,4.6,8.9,8.66,19.73,10.53,31.34-2.23-7.43-3.73-13.32-6.39-20.05h.18ZM811.07,480.73c1.15-2.41,2.6-6.15,4.13-9.65s3.11-6.76,4.36-8.33c-.59,3.09-1.59,5.61-2.99,8.34-.7,1.37-1.5,2.79-2.41,4.37-.45.79-.93,1.62-1.43,2.5-.52.87-1.08,1.79-1.66,2.76h0ZM513.02,744.09c3.94-.06,9.87.86,16.73,1.25-2.48.05-5.14.1-7.93-.15-1.4-.12-2.84-.15-4.3-.4-1.46-.21-2.97-.45-4.5-.7h0ZM548.59,648.31c.19-.15.33-.25.48-.38,2.75-1.54,4.52-2.62,5.55-3.26,1.04-.63,1.33-.82,1.07-.64-.54.33-3.3,2.11-7.09,4.28h0ZM524.55,659.2c-2.49,1.05-2.26,1.18-1.11,1.01,1.69-.92,7.38-2.9,13.48-5.81-.93.24-2.18.68-4.11,1.45-1.93.78-4.53,1.9-8.26,3.35ZM387.42,73.33c1.63.44,3.24.95,4.85,1.43-5.59-1.05-7.61-1.31-7.82-1.47-.21-.14,1.38-.04,2.97.04Z"/>
      <path class="st0" d="M559.12,739.54c1.49-.09,1.95.08,2.36.27,1.95-.7,1.91-.98-2.36-.27Z"/>
      <path class="st0" d="M733.69,134.65l-.8.05c-.43.12-.65.23-.78.32l1.57-.37h.01Z"/>
      <path class="st0" d="M598.08,423.98c-4.39,2.12-6.81,3.39-8.49,4.14-.02.22.49.09,1.78-.58,1.28-.68,3.42-1.81,6.71-3.56h0Z"/>
      <path class="st0" d="M433.58,576.95c-.8,6.23-.6,12.37.24,18.25-.53-4.29-.55-7.28-.41-9.72.05-1.22.16-2.31.3-3.37.11-1.06.29-2.09.47-3.2-.36.35-1.3,3.87-.6-1.95h0Z"/>
      <path class="st0" d="M535.51,555.68c2.33.23,4.8,1.19,6.92,2.09l-.29-.88c-2.33-1.08-4.64-1.69-6.55-1.97-1.92-.28-3.43-.28-4.29-.23-.86.09-1.08.18-.44.27.32.04.85.11,1.62.21.77.08,1.77.26,3.03.5h0Z"/>
      <path class="st0" d="M443.33,562.33c.22-.08.48-.31.79-.67.33-.35.72-.8,1.16-1.36.43-.57.91-1.24,1.51-1.94.59-.72,1.19-1.54,1.95-2.35.37-.41.75-.84,1.14-1.29.41-.43.85-.85,1.3-1.29.87-.91,1.9-1.75,2.95-2.65,2.18-1.7,4.63-3.43,7.45-4.74-.67.33-1.3.64-1.97.96.62-.78.38-.98-.56-.71-.46.15-1.07.45-1.82.84-.37.2-.79.42-1.21.69-.41.28-.86.59-1.33.92-1.89,1.3-3.99,3.21-6.02,5.51-2.04,2.3-3.88,5.12-5.36,8.1l.02-.02Z"/>
      <path class="st0" d="M464.25,544.91c3.59-1.35,7.6-2.08,11.46-1.87.38-.16.28-.26-.22-.31-.25-.03-.59-.04-1.01-.05s-.93,0-1.49.08c-2.28.17-5.53.92-8.73,2.15h0Z"/>
      <path class="st0" d="M490.07,663.34c-1.47-.38-2.46-.51-3.17-.55-.7-.06-1.13.02-1.48.12-.7.17-1.1.48-2.7-.29-.88-.09-.92.02-.37.26.54.26,1.69.59,3.17.92,2.96.68,7.29,1.21,10.73,1.11,1.72-.02,3.22-.15,4.24-.26,1.02-.15,1.56-.29,1.39-.37-.18-.11-1.06-.08-2.94-.17-.94-.03-2.12-.05-3.59-.18-1.47-.08-3.21-.3-5.27-.58h-.01Z"/>
      <path class="st0" d="M452.17,556.94c-1.25.66-2.57,1.33-3.78,2.17-.24.5-.51.98-.72,1.49l-.62,1.53c-.44.99-.71,2.06-1.03,3.08,1.63-3.05,3.71-5.85,6.15-8.26h0Z"/>
      <path class="st0" d="M460.1,639.02c-3.87-4.68-6.98-9.91-9.58-15.32-.05.18-.37-.23-.85-.99-.45-.78-1.04-1.91-1.68-3.18,2.2,5.14,5.05,10.29,7.56,13.94.64.9,1.2,1.75,1.76,2.46.57.7,1.06,1.31,1.46,1.8.8.99,1.34,1.43,1.34,1.29h-.01Z"/>
      <path class="st0" d="M447.99,619.53c-2.31-5.35-3.96-10.63-5.01-13.7.19.77.5,1.73.82,2.84.34,1.1.76,2.32,1.19,3.59.46,1.26.97,2.55,1.45,3.8.54,1.23,1.06,2.42,1.56,3.48h-.01Z"/>
      <path class="st0" d="M442.65,578.9l-.45,2.59-.32,2.62c-.19,4.2.08,8.42.68,12.58-.79-5.92-.82-11.94.08-17.79h.01Z"/>
      <path class="st0" d="M619.45,576.34c4.21-4.99,8.29-10.08,12.31-15.22.85-1.88-2.72,2.08-7.27,7.77-2.73,3.82-7.4,9.38-5.04,7.46h0Z"/>
      <path class="st0" d="M575.13,615.43c4.08-3.32,4.59-3.29,7.09-4.96l-.84-1.77c-2.05,2.28-4.17,4.48-6.25,6.72h0Z"/>
      <path class="st0" d="M614.64,574.91c.22-.45,1.43-2.05,2.86-3.91,1.4-1.89,3-4.05,4.11-5.55,2.18-3.02,2.31-3.45-5.64,5.89-.47.9-3.8,5.08-5.57,7.35-.89,1.13-1.36,1.81-.84,1.4.52-.41,2.06-1.89,5.08-5.18h0Z"/>
      <path class="st0" d="M571.07,436.59c1.25-1.07,2.53-2.11,3.81-3.16l-2.47-1.94c-.46,1.71-.93,3.39-1.34,5.09h0Z"/>
      <path class="st0" d="M462.98,367.77c4.47,2.68,6.81,4.47,8.33,5.35,1.48.94,2.06,1.12,2.6,1.25s1.03.22,2.26,1.12c.61.45,1.44,1.07,2.49,2.08.53.5,1.14,1.05,1.8,1.73.65.69,1.39,1.46,2.21,2.36.99.79.85.43.12-.5-.77-.89-2.08-2.39-3.51-3.76-1.39-1.43-2.89-2.71-3.71-3.55-.85-.79-1.05-1.09.08-.42-5.36-3.77-9.68-6.17-12.03-7.2-2.38-.99-2.7-.71-.63,1.52v.02Z"/>
      <path class="st0" d="M475.64,373.44c.85.62,1.72,1.26,2.62,1.92.89.68,1.8,1.39,2.75,2.12-2.93-2.46-4.45-3.42-5.37-4.04Z"/>
      <polygon class="st0" points="462.91 798.85 475.44 807.29 467.67 801.31 462.91 798.85"/>
      <path class="st0" d="M488.91,811.66l2.15,3.43,8.73,2.85c-3.01-1.58-8.84-4.64-10.88-6.28h0Z"/>
      <path class="st0" d="M787.91,514.59l-.17,1.2c.8-.84,1.66-2,2.76-3.67,1.07-1.69,2.35-3.94,4.08-6.91-2.21,3.15-4.34,6.33-6.67,9.39h0Z"/>
      <path class="st0" d="M863.04,331.89l-.7,3.31c1-1.95,1.98-3.91,2.88-5.9l-2.19,2.59h.01Z"/>
      <path class="st0" d="M830.85,179.79c3.96,4.98,8.6,10.96,11.81,16.58-3.72-5.94-6.54-10.71-8.52-13.71-.96-1.52-1.74-2.56-2.28-3.07-.54-.51-.87-.48-1.02.2h.01Z"/>
    </g>
  </g>
</svg>