<svg width="1049" height="559" viewBox="0 0 1049 559" fill="none" xmlns="http://www.w3.org/2000/svg">
<g clip-path="url(#clip0_8_116)">
<path d="M1022.06 557.39C1020.29 560.14 1019.95 558.43 1019.49 558.69C1022.79 554.41 1022.25 557.68 1022.06 557.39Z" fill="#FF8706"/>
<path d="M1045.27 508.2L1044.59 509.08L1045.94 505.16L1047.02 501.16L1046.25 504.71C1045.98 505.89 1045.59 507.05 1045.27 508.21V508.2Z" fill="#FF8706"/>
<path d="M1043.6 456.66C1044.4 457.73 1045.06 459.43 1045.62 461.51C1046.04 463.62 1046.36 466.11 1046.65 468.73C1047.07 474 1047.12 479.8 1047.5 484.43L1048.02 485.96C1047.74 486.66 1047.51 487.36 1047.18 488.05L1046.23 490.11C1046.57 484.53 1046.65 478.08 1046.23 472.04C1045.77 466.02 1044.88 460.42 1043.59 456.66H1043.6Z" fill="#FF8706"/>
<path d="M1030 432.9C1031.46 433.99 1028.13 427.42 1032.94 438.34C1032.59 437.84 1032.47 437.71 1032.26 437.42C1031.8 436.45 1031.15 435.13 1030.01 432.9H1030Z" fill="#FF8706"/>
<path d="M1032.25 437.43C1032.83 438.6 1032.9 439.05 1032.85 439.05C1032.78 439.05 1032.58 438.62 1032.29 438.16C1031.74 437.23 1031.19 436.04 1032.25 437.44V437.43Z" fill="#FF8706"/>
<path d="M1020.4 416.2L1021.3 417.71L1022.11 419.27L1023.72 422.38C1023.11 421.91 1021.94 420.4 1021.04 419.28C1020.16 418.14 1019.44 417.47 1020 418.48C1016.07 412.57 1017.31 413.4 1020.42 416.2H1020.4Z" fill="#FF8706"/>
<path d="M1017.61 409.92C1018.32 410.93 1018.93 412 1019.59 413.03C1019.03 412.65 1018.44 411.89 1017.61 409.92Z" fill="#FF8706"/>
<path d="M1023.54 419.72C1022.9 418.6 1022.35 417.42 1021.65 416.33L1019.59 413.03C1020.48 413.64 1021.11 413.33 1021.54 416.03C1021.66 415.15 1022.16 416.71 1023.55 419.72H1023.54Z" fill="#FF8706"/>
<path d="M1026.23 423.19C1028.62 426.33 1031.42 430.67 1028.52 424.12C1029.33 425.61 1030.01 426.9 1030.56 427.99C1031.12 429.07 1031.53 429.97 1031.75 430.69C1032.24 432.12 1032.32 432.74 1032.04 432.61C1031.76 432.48 1031.16 431.57 1030.23 429.96C1029.2 428.4 1027.88 426.12 1026.23 423.19Z" fill="#FF8706"/>
<path d="M1045.13 453.52L1047 458.73L1047.19 461.12L1047.22 463.53C1047.21 462.93 1047.08 461.98 1046.85 460.9C1046.57 459.84 1046.23 458.64 1045.91 457.54C1045.28 455.32 1044.77 453.43 1045.13 453.51V453.52Z" fill="#FF8706"/>
<path d="M989 385.64C988.94 385 991.61 386.2 992.4 386.09C993.65 387.35 994.95 388.55 996.12 389.87C995.03 389.07 993.38 387.97 991.97 387.06C990.55 386.16 989.34 385.48 988.99 385.64H989Z" fill="#FF8706"/>
<path d="M992.4 386.09L989.57 383.28L986.63 380.57C988.06 381.63 989.21 382.46 990.06 383.19C990.91 383.92 991.5 384.47 991.91 384.89C992.72 385.73 992.74 386.03 992.41 386.09H992.4Z" fill="#FF8706"/>
<path d="M1018.63 407.45C1019.87 409.26 1020.88 411.24 1021.98 413.12L1023.6 415.96L1025.04 418.89C1024.43 417.75 1023.89 416.57 1023.23 415.46L1021.24 412.11C1020.56 411 1019.93 409.85 1019.22 408.76L1017.03 405.5L1018.64 407.45H1018.63Z" fill="#FF8706"/>
<path d="M964.06 368.57L967.36 371.81L961.31 366.27L964.06 368.57Z" fill="#FF8706"/>
<path d="M946.47 358.47C949.06 360.78 941.68 357.68 944.6 359.78C942.18 358.46 940.03 357.07 937.99 355.75C935.96 354.43 934.09 353.13 932.32 351.89C934.27 353.05 936.35 354.14 938.67 355.2C940.99 356.27 943.52 357.37 946.47 358.47Z" fill="#FF8706"/>
<path d="M926.18 348.04C928.17 349.17 930.16 350.47 932.32 351.89C930.21 350.71 928.16 349.48 926.18 348.04Z" fill="#FF8706"/>
<path d="M975.39 372.88C974.72 372.77 973.32 372.72 969.4 370.54L972.73 371.17C973.54 371.69 974.46 372.28 975.39 372.87V372.88Z" fill="#FF8706"/>
<path d="M972.85 371.2L972.73 371.17C971.28 370.26 970.07 369.46 969.09 368.87C968.1 368.28 967.37 367.85 966.93 367.59C967.69 368.04 969.5 369.07 972.85 371.19V371.2Z" fill="#FF8706"/>
<path d="M976.06 373.31C975.81 373.15 975.63 373.04 975.39 372.88C975.71 372.94 975.89 373.01 976.06 373.31Z" fill="#FF8706"/>
<path d="M1003.51 392.98C1000.58 389.29 993.61 382.18 1001.51 387.7C1003.45 390.62 999.02 387.43 1003.51 392.98Z" fill="#FF8706"/>
<path d="M980.19 374.21L983.78 376.53C984.96 377.32 986.12 378.15 987.29 378.97C986.95 379.14 985.43 378.62 987.08 380.3L983.69 377.2L980.18 374.21H980.19Z" fill="#FF8706"/>
<path d="M976.97 371.5C978.07 372.38 979.12 373.31 980.19 374.21L977.53 372.49C977.35 372.15 977.16 371.83 976.97 371.5Z" fill="#FF8706"/>
<path d="M940.04 353.22C936.94 351.1 933.33 349.22 929.14 347.29C933.78 349.04 938.4 351.2 942.73 353.37C943.15 354.05 944.72 355.64 940.04 353.22Z" fill="#FF8706"/>
<path d="M956.34 361.42C956.13 361.27 955.86 361.09 955.66 360.95C956.15 361.11 956.52 361.28 956.34 361.42Z" fill="#FF8706"/>
<path d="M887.27 329.76C887.54 329.76 887.77 329.77 888.04 329.78C888.07 329.87 888.08 329.95 888.12 330.04L887.27 329.75V329.76Z" fill="#FF8706"/>
<path d="M943.57 353.54C946.98 355.01 948.82 356.29 950.47 357.65C948.12 356.2 945.52 354.83 942.73 353.37C942.54 353.07 942.54 352.93 943.57 353.53V353.54Z" fill="#FF8706"/>
<path d="M914.91 342.31C916.78 342.86 918.87 343.55 921.05 344.3C919.16 343.89 915.4 342.89 914.91 342.31Z" fill="#FF8706"/>
<path d="M954.4 360.66C954.55 360.77 954.69 360.86 954.86 360.97C953.66 360.64 953.86 360.59 954.4 360.66Z" fill="#FF8706"/>
<path d="M954.4 360.66C952.82 359.6 951.66 358.61 950.47 357.65C952.4 358.81 954.17 359.91 955.66 360.95C955.22 360.8 954.75 360.71 954.4 360.66Z" fill="#FF8706"/>
<path d="M876.95 317.44C877.07 318.11 879.38 319.52 882.71 320.97C884.38 321.69 886.3 322.42 888.33 323.07C889.35 323.4 890.4 323.7 891.45 323.98C892.49 324.3 893.55 324.59 894.59 324.84C902.07 328.81 895.54 330.34 888.03 329.79C887.97 329.22 888.14 328.77 880.29 325.28C881.81 325.47 886.43 326.68 889.87 327.43C893.26 328.31 895.48 328.68 892.3 326.83C891.65 326.53 891.05 326.26 890.49 326.01C889.92 325.79 889.39 325.58 888.91 325.39C887.93 325.02 887.11 324.72 886.4 324.48C884.98 324 884.02 323.77 883.22 323.62C881.62 323.34 880.66 323.44 877.94 322.82C882.88 322.99 864.95 315.97 867.94 314.76C871.04 316.07 874.11 317.45 877.19 318.78C877.48 318.52 874.21 316.81 876.95 317.44Z" fill="#FF8706"/>
<path d="M903.22 335.67L906.43 337.11C902.63 335.82 899.78 335.19 894.55 334.11C889.34 331.4 888.37 330.54 888.12 330.06C893.52 332.08 898.88 334.22 904.27 336.29L903.22 335.68V335.67Z" fill="#FF8706"/>
<path d="M920.91 343.38C918.94 341.07 911.43 337.08 916.71 337.93C926.13 342.27 922.9 341.9 928.3 344.95C913.22 337.8 932.37 347.57 921.08 343.29C923.97 344.83 926.63 346.1 929.14 347.29C926.34 346.2 923.63 345.19 921.05 344.29C921.2 344.32 921.31 344.35 921.43 344.37L921.5 344.41V344.38C922.22 344.53 922.48 344.54 921.7 344.29C921.66 344.25 921.47 344.16 921.39 344.12C921.36 343.91 921.14 343.64 920.9 343.37C916.4 341.63 920.07 343.37 921.39 344.12C921.41 344.2 921.51 344.31 921.5 344.38C921.48 344.38 921.46 344.38 921.44 344.37C916.46 341.9 911.55 339.27 906.43 337.09C908.1 337.68 909.98 338.33 912.29 339.34C914.59 340.38 917.37 341.68 920.91 343.36V343.38Z" fill="#FF8706"/>
<path d="M996.5 379.81C996.02 379.57 995.98 379.66 995.89 379.7C995.15 378.89 994.89 378.54 996.5 379.81Z" fill="#FF8706"/>
<path d="M990.57 376.17C991.42 377.07 991.98 378.01 995.11 380.42C998.02 382.28 995.49 379.93 995.89 379.71C997.54 381.5 1001.78 385.69 995.59 381.47L994.78 380.59C994.09 380.1 993.37 379.61 992.64 379.13C991.89 378.67 991.12 378.22 990.36 377.78C988.84 376.91 987.36 376.11 986.08 375.45C983.5 374.16 981.7 373.51 982.13 373.9C983.26 373.98 984.31 374.1 985.61 374.41C986.89 374.74 988.42 375.28 990.57 376.18V376.17Z" fill="#FF8706"/>
<path d="M956.4 357.2L950.43 353.61L944.38 350.14L951.22 352.4L950.59 352.82C957.7 356.36 955.8 356.27 956.41 357.19H956.4V357.2Z" fill="#FF8706"/>
<path d="M885.55 329.84L886.81 331.73L879.91 327.28L885.55 329.84Z" fill="#FF8706"/>
<path d="M868.59 323.74L868.84 325.09C867.41 324.36 866.02 323.54 864.56 322.89C865.92 323.11 867.24 323.45 868.58 323.74H868.59Z" fill="#FF8706"/>
<path d="M396.62 225.47C397.39 226.56 398.19 227.63 398.93 228.74C397.82 227.21 397.09 226.23 396.62 225.47Z" fill="#FF8706"/>
<path d="M376.32 204.87L376.18 203.96C376.97 205.09 377.23 205.63 376.32 204.87Z" fill="#FF8706"/>
<path d="M432.95 343.59C427.25 346.02 420.89 349.14 421.34 347.65L422.92 346.01C427.14 345.31 430.31 344.48 432.95 343.59Z" fill="#FF8706"/>
<path d="M193.85 215.02C193.99 215.58 194.14 216.17 194.28 216.76C193.91 218.23 193.63 219.63 193.33 220.89C193.47 219.11 193.55 217.11 193.85 215.02Z" fill="#FF8706"/>
<path d="M199.19 210.87L198.91 207.12C198.8 205.86 198.85 204.62 198.81 203.36C198.88 204.21 198.91 205.24 198.94 206.48C199.04 207.72 199.12 209.18 199.19 210.87Z" fill="#FF8706"/>
<path d="M433.14 370.61C432.31 371.97 431.57 373.34 430.68 374.65C432.55 367.82 432.35 370.98 433.14 370.61Z" fill="#FF8706"/>
<path d="M687.03 294.12C681.9 294.64 677.83 294.81 674.25 294.94C680.4 294.13 685.4 293.06 687.03 294.12Z" fill="#FF8706"/>
<path d="M398.99 207.5C400.63 209.53 401.17 210.54 400.91 210.68C399.27 208.56 398.37 207.32 398.99 207.5Z" fill="#FF8706"/>
<path d="M659.47 295.55C660.37 295.38 661.25 295.28 662.16 295.13C665.91 295.19 669.68 295.21 674.25 294.93C669.71 295.68 664.52 296.24 659.47 295.55Z" fill="#FF8706"/>
<path d="M28.0201 219.36C27.8501 218.97 27.6801 218.49 27.5101 218.14C27.6401 217.97 27.8101 218.53 28.0201 219.36Z" fill="#FF8706"/>
<path d="M4.10005 49.79C3.78005 51.48 3.38005 54.27 2.99005 56.9C3.08005 55.61 3.40005 53.46 4.10005 49.79Z" fill="#FF8706"/>
<path d="M798.36 305.89C802.08 306.77 798.92 306.16 798.36 305.89Z" fill="#FF8706"/>
<path d="M817.68 304.74C816.91 304.43 816.34 304.12 816.31 303.8C816.55 304.17 817.03 304.48 817.68 304.74Z" fill="#FF8706"/>
<path d="M620.61 290.56C620.5 290.58 620.41 290.59 620.28 290.61C621.39 290.21 621.2 290.28 620.61 290.56Z" fill="#FF8706"/>
<path d="M804.1 306.51C802.66 306.37 801.02 306.15 799.24 305.87C800.03 305.94 801.51 306.12 804.1 306.51Z" fill="#FF8706"/>
<path d="M803.22 306.95C804.52 307.18 805.54 307.35 806.51 307.52C806.94 307.83 806.49 307.88 803.22 306.95Z" fill="#FF8706"/>
<path d="M793.14 304.82C795.29 305.19 797.3 305.54 799.24 305.88C798.49 305.81 798.17 305.82 798.36 305.9C797.27 305.66 795.74 305.25 793.15 304.82H793.14Z" fill="#FF8706"/>
<path d="M222.69 452.49C222.44 452.42 222.17 452.32 221.9 452.25C218.65 450.12 220.14 450.92 222.69 452.49Z" fill="#FF8706"/>
<path d="M331.87 338.63C332.04 338.66 332.13 338.71 332.29 338.74C332.11 338.74 331.89 338.73 331.73 338.72L331.87 338.63Z" fill="#FF8706"/>
<path d="M318.65 335.81C319.99 336.44 321.21 336.94 322.35 337.34C323.48 337.75 324.54 338.03 325.57 338.19C327.63 338.54 329.55 338.64 331.73 338.72C330.12 339.79 328.48 340.85 326.81 341.91C323.99 340.02 321.29 337.87 318.65 335.8V335.81Z" fill="#FF8706"/>
<path d="M430.7 284.84L428.57 280.65C427.86 279.26 427.06 277.9 426.32 276.54C426.62 277.93 426.94 279.26 427.25 280.5C427.52 281.76 427.8 282.93 428.06 284C428.61 286.13 428.97 287.87 429.2 289.02C429.64 291.31 429.35 291.22 427.27 287.4C428.17 286.76 427.84 284.34 426.96 281C426.49 279.34 425.8 277.47 425.08 275.48C424.31 273.51 423.4 271.45 422.51 269.38C418.83 261.15 414.28 253.35 415.66 251.75C414.31 250.14 413.04 248.51 411.65 246.95C412.67 248.4 412.58 248.79 413.54 250.25C411.58 247.93 410.35 246.29 409.61 244.82C408.87 243.35 408.5 242.12 408.09 240.77C407.29 238.08 406.4 234.81 401.24 228.87C399.43 226.81 397.7 225.24 396.77 224.49C395.82 223.76 395.61 223.92 396.63 225.49L394.85 223.02L393 220.6L391.14 218.18L389.22 215.81C386.71 213.3 386.81 214.43 389.3 216.91C385.14 212.34 380.73 207.99 376.17 203.8L376.19 203.98C374.66 201.73 370.68 197.07 368.61 194.91C364.51 192.42 370.21 196.73 368.94 196.37L365.18 192.77C363.91 191.58 362.62 190.43 361.33 189.26C357.31 187.62 363.65 193.45 369.24 197.83C364.21 196.41 362.74 194.92 360.19 192.45C358.94 191.19 357.39 189.74 355.01 187.97C353.83 187.07 352.41 186.14 350.72 185.13C349.87 184.63 348.96 184.09 347.96 183.55C346.95 183.03 345.87 182.48 344.7 181.92C347.35 183.76 349.93 185.7 352.51 187.64C350.89 187.25 349.32 186.66 347.73 185.92C346.13 185.18 344.46 184.35 342.71 183.38C340.96 182.41 339.04 181.44 336.98 180.38C334.9 179.35 332.61 178.33 330.08 177.34C331.38 177.62 336.56 179.44 340.24 180.59C342.1 181.13 343.58 181.5 344.04 181.3C344.5 181.1 343.98 180.28 341.7 178.64C338.84 177.28 335.22 175.3 330.26 171.76C329.53 173.02 324.54 169.9 317.88 166.78L317.53 168.73C315.81 167.76 314.56 167.03 313.59 166.42C312.63 165.81 311.97 165.3 311.4 164.82C310.26 163.86 309.52 163.07 307.54 161.8C303.42 160.29 300.78 159.85 298.9 159.8C297.03 159.75 295.9 160.14 294.76 160.43C291.45 159.52 290.4 159.13 290.44 158.93C290.49 158.72 291.64 158.69 292.73 158.67C293.82 158.63 294.84 158.55 294.61 158.18C294.38 157.82 292.9 157.08 288.93 155.95C283.26 154.89 278.44 153.99 273.34 153.04C272.07 152.8 270.78 152.61 269.45 152.37C268.12 152.19 266.76 151.94 265.34 151.77C262.5 151.37 259.45 151.09 256.02 150.93C254.04 151.19 253.15 151.41 252.88 151.6C252.61 151.77 252.95 151.89 253.45 151.98C254.45 152.19 256.05 152.38 254.67 152.73C252.33 152.35 249.98 152.11 247.6 151.92C245.93 152.25 246.55 152.62 246.86 152.8C243.94 152.98 243.74 152.61 243.11 152.25C242.49 151.92 241.4 151.56 236.85 152.68C235.33 152.03 230.84 154.27 226.15 157.81C223.79 159.56 221.38 161.6 219.08 163.71C218.48 164.21 217.92 164.74 217.35 165.27C216.79 165.8 216.17 166.26 215.64 166.8C214.55 167.85 213.4 168.78 212.23 169.63C211.6 170.91 212.04 170.82 212.62 170.57C213.19 170.3 214.02 169.97 214.01 170.51C212.68 171.82 211.61 173.03 210.62 174.05C209.72 175.14 209 176.12 208.34 176.96C208.02 177.39 207.68 177.77 207.42 178.16C207.16 178.56 206.92 178.93 206.7 179.29C206.23 180 205.81 180.64 205.4 181.27C203.85 183.84 202.32 186.03 199.55 192.13C199.34 194.02 199.02 195.87 198.98 197.77L198.83 200.59C198.76 201.52 198.83 202.48 198.83 203.41C198.75 202.37 198.64 201.61 198.51 201.1C198.4 200.6 198.25 200.34 198.07 200.3C197.69 200.22 197.14 200.99 196.64 202.36C196.38 203.04 196.1 203.87 195.81 204.8C195.67 205.27 195.51 205.76 195.38 206.28C195.27 206.8 195.15 207.34 195.03 207.89C194.81 209.01 194.58 210.19 194.34 211.39C194.16 212.6 194.02 213.83 193.87 215.05C193.51 213.52 193.09 212.08 192.88 210.8C192.65 209.52 192.47 208.39 192.36 207.49L191.96 211.43L191.78 215.39L191.7 217.38L191.72 219.37C191.74 220.69 191.73 222.03 191.79 223.35C192.07 224.29 192.32 224.33 192.56 223.82C192.78 223.31 193.05 222.23 193.36 220.92C193.28 222 193.2 223.03 193.18 223.83C194.62 229.32 195.31 226.21 195.9 222.23C195.36 220.39 194.83 218.57 194.32 216.79C194.86 214.85 195.44 213.02 196.02 211.77C196.66 210.53 197.3 209.88 197.84 210.27C197.54 211.23 197.41 213.1 197.35 215.16C197.65 214.18 197.92 213.57 198.12 214.01C198.23 214.26 198.18 214.77 198.06 215.53C197.99 215.91 197.91 216.35 197.82 216.85C197.74 217.35 197.68 217.91 197.6 218.53L199.99 221.72C199.72 222.02 199.47 222.32 199.23 222.62C200.34 229 202.14 235.24 204.41 241.22C205.41 248.14 206.56 254.79 208.89 262.24C211.25 269.66 214.78 278 221.49 287.42C219.28 281.94 222.8 284.92 224.08 283.53C221.43 281.7 219.08 277.97 216.74 273.51C214.46 268.99 212.21 263.76 209.61 258.61C212.43 263.95 212.63 262.34 212.25 260.84C214.72 267.2 217.7 273.41 221.15 279.41C221.64 278.79 222.5 279.52 223.68 280.9C224.28 281.59 224.99 282.41 225.78 283.31C226.58 284.2 227.4 285.21 228.4 286.12C227.17 285.82 227.06 286.47 227.68 287.75C228.3 289.03 229.61 290.96 231.37 293.04C233.06 295.17 235.23 297.41 237.26 299.57C238.31 300.62 239.32 301.64 240.25 302.61C241.18 303.58 242.08 304.42 242.79 305.21C243.32 305 243.37 304.37 242.31 302.98C241.77 302.3 241 301.37 239.88 300.2C239.32 299.62 238.67 298.97 237.93 298.26C237.21 297.53 236.4 296.7 235.49 295.81C236.68 296.61 237.66 297.45 238.57 298.21C239.47 298.98 240.24 299.75 240.92 300.53C242.25 302.12 243.38 303.58 244.43 305.14C246.58 308.19 248.87 311.26 254 313.72C251.95 312.25 250.79 311.54 250.29 310.55C250.81 311.07 251.46 311.66 252.19 312.27C252.92 312.89 253.71 313.55 254.61 314.12C256.37 315.32 258.27 316.52 259.95 317.52C261.61 318.56 263.17 319.2 264.09 319.53C265.02 319.85 265.35 319.79 264.73 319.19L262.56 317.95C264.39 318.94 266.45 320.06 268.68 321.26C269.23 321.57 269.79 321.88 270.36 322.19C270.95 322.47 271.55 322.75 272.15 323.04C273.36 323.62 274.6 324.21 275.85 324.81C276.48 325.11 277.11 325.42 277.74 325.73C278.37 326.05 279.01 326.35 279.67 326.61C280.98 327.16 282.3 327.71 283.62 328.26C284.94 328.82 286.25 329.38 287.54 329.93C288.87 330.42 290.18 330.9 291.46 331.37C296.55 333.41 301.41 334.81 305.01 336.25C308.67 337.46 311.15 338.5 311.64 339.26C311.86 338.97 310.11 335.78 309.25 335.06L312.67 336.91L314.4 337.84C314.98 338.14 315.57 338.4 316.15 338.68L323.27 342.04C328.11 344.07 333.04 346.19 338.11 347.91C336.83 346.72 338.9 345.01 339.48 343.32C339.77 342.47 339.7 341.63 338.7 340.85C338.2 340.46 337.47 340.09 336.43 339.75C335.4 339.39 334.05 339.14 332.34 338.75C333.33 338.81 334.39 338.81 335.55 338.82C336.71 338.84 337.96 338.88 339.35 338.97C340.74 339.04 342.26 339.22 343.96 339.36C345.66 339.48 347.55 339.67 349.65 339.93C346.94 340.15 342.68 342.87 346.45 343.2C349.07 342.67 350.81 342.34 352.17 342.12C353.53 341.9 354.5 341.7 355.54 341.56C356.58 341.42 357.7 341.27 359.35 341.04C360.17 340.92 361.13 340.77 362.27 340.6C363.41 340.4 364.74 340.12 366.31 339.79C362.22 340.42 366.9 343.71 373.48 343.24C372.43 342.79 373.8 339.84 371.41 339.61C376.84 340.35 382.34 341.09 387.88 341.53C383.76 341.38 386.87 338.77 390.33 337.42C388.76 338.39 404.15 335.43 408.46 334.89L401.81 336.84C406.31 335.91 409.73 335.62 412.6 335.45C415.48 335.31 417.82 335.45 420.18 335.61C424.87 335.83 429.61 336.16 438.55 333.88C436.2 333.71 432.22 331.02 441.15 328.37C443.42 328.67 448.53 329.55 455.11 329.85C461.69 330.19 469.73 329.95 477.78 328.31L480.52 326.48L492.87 324.01C484.64 323.75 462.08 324.7 450.08 325.63C456.55 323.05 451.64 324.05 461.64 321.34C464.91 319.45 455.83 321.53 452.88 322.24C460.56 319.97 468.23 317.54 475.91 315.11C475.44 317.36 494.25 311.81 493.85 313.67C485.23 315.5 476.62 317.33 468.02 319.07C467.79 320.18 471.83 320.51 477.99 319.9C484.15 319.28 492.42 317.7 500.62 315.08C504.59 313.07 496.46 312.57 496.61 311.82C498.94 311.84 512.67 308.47 514.06 307.56L506.73 308.58C515.74 305.15 522.52 306.77 533.16 301.85C536.98 300.7 544.07 296.28 545.05 297.3C539.25 301.12 539.9 308.38 544.47 308.94C545.12 308.7 550.02 306.89 555.28 304.94C560.57 303.1 566.25 301.06 568.35 300.02C574.39 296.86 557.82 297.91 562.95 295.21C563.31 295.7 567.01 295.59 568.53 295.48C572.54 294.13 566.48 294.18 575.47 292.48C577.35 294.14 593.74 289.14 580.04 293.4C588.93 292.46 589.31 291.38 599.66 289.69C598.12 290.65 600.6 291.26 604.59 291.84C608.58 292.37 614.03 292.62 618.46 292.35C617.88 291.9 619.78 290.98 620.7 290.55C622.95 290.26 625.07 289.89 627.1 289.68C629.13 289.46 631.06 289.24 632.91 289.04C636.62 288.59 640.06 288.18 643.45 287.77C650.24 286.81 656.92 286.44 665.4 286.05C666.94 285.49 675.13 284.55 671.61 283.81C672.84 283.95 674.02 284.13 675.55 284.34C677.08 284.56 678.96 284.75 681.58 284.78C691.73 283.01 669.86 284.5 677.58 282.38C678.27 283.57 691.21 284.02 698.66 284.77C696.33 286.62 681.42 285.08 673.9 284.42C673.91 285.64 677.19 286.93 682.64 288.07C685.37 288.63 688.64 289.15 692.32 289.61C694.16 289.84 696.11 290.05 698.15 290.24C700.19 290.41 702.31 290.74 704.5 290.96C718.45 292.18 710.63 289.58 713.04 290.04C719.62 290.22 724.31 290.56 727.94 291.31C731.58 291.98 734.19 292.71 736.66 293.39C741.6 294.8 745.98 295.67 756.87 296.24C765.65 295.72 757.65 293.1 759.7 292.19C756.88 291.68 754.37 291.35 752.07 291.13C750.92 291.02 749.83 290.93 748.77 290.87C747.72 290.82 746.7 290.83 745.71 290.82C741.76 290.82 738.27 290.91 734.41 290.56L743.99 290.6C740.42 289.76 732.82 288.71 728.63 288.83C730.47 288.62 734.18 288.73 739.03 289.03C741.45 289.18 744.16 289.37 747.06 289.58C748.51 289.66 750 289.87 751.53 290.05C753.06 290.24 754.62 290.43 756.21 290.62C759.39 291.01 762.67 291.4 765.97 291.8C769.26 292.22 772.58 292.5 775.78 293.05C782.2 294.03 788.31 294.88 793.41 295.41C796.91 296.46 802.9 298.41 799.89 298.4L796.76 297.63L793.6 296.98C790.56 297.13 793.47 298.07 796.11 298.89C798.74 299.77 801.09 300.59 797.06 300.03C801.19 301.37 805.54 302.9 810.34 304.31C812.74 305.02 815.26 305.69 817.93 306.31C818.6 306.46 819.27 306.61 819.96 306.76C820.64 306.93 821.33 307.09 822.03 307.26C823.43 307.59 824.87 307.9 826.36 308.19L829.01 306.97C828.82 307.2 826.83 306.97 824.5 306.51C823.33 306.28 822.08 305.99 820.92 305.68C819.76 305.36 818.67 305.1 817.87 304.77C820.27 305.61 824.88 306.27 829.56 307C834.23 307.76 838.92 308.74 841.29 310.59L832.74 309.71C834.77 310.47 836.91 311.32 839.13 312.21C841.35 313.09 843.67 313.98 846.01 315.01C850.72 316.99 855.71 318.86 860.91 320.13C855.72 320.46 858.6 319.22 850.74 319.06C854.25 318.77 847.74 316.74 841.65 315.03C835.52 313.47 829.87 312.01 835.35 311.98C831.26 312.2 827.94 311.62 824.34 310.92C822.54 310.58 820.68 310.16 818.6 309.89C816.52 309.65 814.24 309.48 811.65 309.47C812.09 308.94 815.42 309.08 806.61 307.52C806.25 307.26 805.37 306.84 804.8 306.59C804.53 306.55 804.43 306.54 804.2 306.51C804.38 306.52 804.51 306.53 804.7 306.54C804.34 306.37 804.31 306.34 804.88 306.55C807.02 306.73 808.78 306.78 809.54 306.6C807.51 305.46 803 304.15 798.41 302.92C796.13 302.26 793.79 301.81 791.75 301.34C789.71 300.87 787.96 300.44 786.8 300.07C781.49 299.46 788.88 301.13 785.9 301.28L778.96 299.01C778.03 300.22 764.68 298.86 776.91 301.73C775.06 301.43 773.21 301.11 771.35 300.84L765.76 300.17C762.42 300.13 758.49 299.9 754.7 299.52C750.91 299.15 747.28 298.56 744.5 298.11C739.19 297.96 731.27 295.5 735.79 296.94L727.02 295.78C725.56 295.61 724.1 295.35 722.63 295.24L718.23 294.85L718.05 295.18C713.69 295.04 709.28 294.74 704.8 294.38C702.56 294.23 700.3 293.96 698.01 293.89C695.73 293.81 693.42 293.73 691.1 293.65C686.45 293.51 681.72 293.44 676.91 293.56L675.1 293.61L673.29 293.76C672.08 293.87 670.86 293.99 669.64 294.12C667.2 294.39 664.74 294.72 662.27 295.13C659.33 295.08 656.34 295.02 652.86 295.07C651.12 295.06 649.26 295.22 647.23 295.4C645.2 295.58 642.99 295.81 640.55 296.12L638.74 297.44C636.86 297.5 634.52 297.72 632.01 298C629.51 298.29 626.83 298.58 624.32 299.05C619.28 299.89 614.76 300.56 613.08 300.16C611.17 301.19 607.97 302.04 604.03 302.76C600.11 303.58 595.48 304.44 590.67 305.17C588.26 305.53 585.81 305.9 583.4 306.26C582.19 306.44 580.99 306.61 579.8 306.78C578.61 306.97 577.46 307.22 576.32 307.43C571.77 308.31 567.61 309.17 564.42 310L563.6 308.62C554.66 310.51 546.09 312.32 535 314.67L535.32 313.19C525.53 314.68 511.25 320.98 496.23 325.31C497.4 325.5 501.16 324.24 503.76 323.15C486.73 331.37 465.31 332.31 449.36 338.72C445.1 339.3 442.17 340.26 439.33 341.26C439.72 341.17 440.07 341.11 440.38 341.08C439.96 341.2 439.33 341.35 438.68 341.5C436.9 342.16 435.07 342.88 433.07 343.58C434.74 342.84 436.34 342.18 437.76 341.71C436.15 342.08 434.13 342.52 431.9 342.95C429.66 343.36 427.21 343.77 424.78 344.13L423.04 345.99C422.64 346.06 422.33 346.11 421.92 346.18C417.28 347.64 417.98 346.26 420.28 344.7C417.81 344.95 415.54 345.11 413.75 345.11C412.05 346.64 408.82 346.97 405.45 347.39C404.6 347.49 403.75 347.6 402.9 347.72C402.05 347.82 401.2 347.95 400.39 348.11C398.76 348.44 397.25 348.93 396 349.74C394.28 349.43 388.08 349.91 381.97 350.14C378.91 350.18 375.86 350.18 373.42 350.02C370.97 349.81 369.12 349.41 368.44 348.81C368.29 349.15 366.85 349.37 369.5 349.28C366.77 349.52 364.05 349.86 361.38 349.89C358.71 349.93 356.11 349.84 353.66 349.49C352.88 350.12 352.09 350.69 351.3 351.28L345.33 349.85C344.34 349.6 343.35 349.39 342.37 349.12L339.43 348.28C335.78 348.56 333.16 348.84 332.36 349.22C331.96 349.41 332 349.67 332.6 350.02C333.19 350.35 334.34 350.74 336.13 351.23C335.04 351.02 334.04 350.82 333.1 350.64C332.17 350.46 331.31 350.23 330.51 350.06C328.92 349.71 327.57 349.41 326.4 349.15C324.05 348.66 322.38 348.37 320.8 347.97C319.22 347.6 317.72 347.25 315.73 346.71C314.74 346.42 313.6 346.16 312.3 345.68C311 345.22 309.5 344.67 307.74 344.01L308.19 345.32C306.89 345.02 305.41 344.59 303.88 344.11C302.36 343.61 300.8 342.96 299.29 342.41C296.28 341.29 293.51 340.41 291.85 340.3C285.85 339.61 271.59 334.8 256.73 325.87C254.91 324.69 253.07 323.5 251.2 322.29C250.27 321.68 249.32 321.09 248.39 320.45C247.48 319.79 246.57 319.12 245.65 318.46C241.98 315.81 238.45 312.89 235.02 309.95C228.2 304.01 222.09 297.62 216.88 291.77C220.1 293.08 217.57 290.49 214.49 287.15C211.43 283.79 208.02 279.46 208.84 278.24C207.2 277.14 204.59 273.59 206.55 278.34C202.72 271.29 199.83 266.01 197.5 261.12C196.93 259.89 196.37 258.7 195.88 257.5C195.41 256.29 194.97 255.08 194.57 253.86C194.37 253.25 194.18 252.64 194 252.01C193.84 251.38 193.7 250.74 193.56 250.09C193.29 248.79 193.06 247.46 192.9 246.07C192.25 245.3 192.18 246.24 192.23 247.15C192.27 248.07 192.35 249 191.86 248.3C191.56 247.04 191.05 243.15 190.09 241.66C189.15 240.18 190.08 244.14 190.47 246.76C189.9 244.73 189.43 242.93 189.06 241.31C188.75 239.68 188.54 238.24 188.4 236.97C188.33 236.34 188.27 235.75 188.24 235.2C188.24 234.64 188.24 234.13 188.24 233.65C188.27 232.69 188.34 231.88 188.46 231.19C188.9 228.43 190.11 227.54 191.2 226.8C189.02 218.85 189.09 214.52 190.85 208.69C190.51 207.26 190.17 205.32 189.9 205C189.75 204.84 189.55 205.09 189.37 206.01C189.21 206.93 189.04 208.54 188.88 211.09C188.88 210.37 188.9 209.29 188.92 207.93C188.92 207.25 188.94 206.51 188.95 205.71C189.01 204.91 189.07 204.06 189.14 203.17C189.21 202.28 189.28 201.34 189.36 200.38C189.44 199.42 189.62 198.43 189.76 197.43C189.91 196.43 190.07 195.41 190.22 194.38C190.42 193.36 190.67 192.35 190.9 191.35C191.14 190.35 191.36 189.35 191.62 188.39C191.93 187.44 192.24 186.51 192.53 185.61C192.84 184.72 193.14 183.86 193.42 183.05C193.77 182.26 194.11 181.52 194.43 180.85C195.08 179.5 195.63 178.39 196.15 177.65C196.69 176.92 197.11 176.53 197.36 176.57C197.46 176.11 197.73 175.42 198.1 174.63C198.47 173.84 198.91 172.92 199.49 172.1C200.6 170.42 201.76 168.83 202.28 168.26C204.25 165.65 205.7 163.56 207.23 162.03C207.96 161.23 208.62 160.5 209.25 159.81C209.88 159.12 210.56 158.55 211.2 157.93C213.83 155.58 216.53 153.24 222.17 150.13L220.7 151.14L219.28 152.23C219.97 152.13 220.62 151.98 221.26 151.79C221.91 151.62 222.55 151.4 223.19 151.13C224.45 150.57 225.78 149.97 227.21 149.18C230.11 147.73 233.63 145.92 238.57 144.77L238.23 144.61C243.76 142.75 247.29 142.23 249.64 141.88C252.01 141.63 253.26 141.59 254.49 141.63C255.72 141.63 256.94 141.66 259.26 141.57C261.59 141.51 265.03 141.28 270.73 141.33L269.37 142.66C270.29 144.28 275.2 144.23 281.53 144.7C284.7 144.92 288.2 145.29 291.69 145.91C295.17 146.55 298.61 147.49 301.62 148.76C300.04 148.56 298.48 148.32 296.9 148.16C300.14 149.66 305.12 150.18 310.23 150.83C312.78 151.14 315.37 151.49 317.69 151.93C320.03 152.36 322.17 152.84 323.84 153.53C325.37 153.95 321.78 152.07 319.83 151.05C328.83 154.06 329.15 154.86 328.84 155.52C328.51 156.21 327.56 156.86 333.68 160.19C336.43 160.5 331.91 156.32 340.37 160.6C341.5 161 343.47 162.21 345.96 163.91C348.42 165.65 351.4 167.84 354.52 170.27C360.81 175.07 367.65 180.65 373.32 183.84C371.97 183.26 370.6 182.74 370.18 182.88C369.75 183.04 370.32 183.82 372.66 186.06C376.5 189.18 382.07 192.94 387.28 197.03C392.48 201.12 397.19 205.67 399.38 209.78C400.42 210.54 400.87 210.78 401.05 210.68C403.38 213.71 407.32 218.48 410.61 223.26C413.97 227.99 416.74 232.66 417.49 234.91C418.51 235.26 419.66 236.16 420.86 237.49C422.06 238.82 423.41 240.51 424.66 242.54C425.95 244.55 427.28 246.8 428.49 249.22C429.77 251.6 430.91 254.16 432.04 256.65C436.55 266.63 439.26 276.26 441.42 275.37C444.13 282.74 446.33 290.3 448.02 297.96L448.33 297.25C448.56 298.17 448.78 299.04 449 299.89C449.17 300.75 449.34 301.57 449.5 302.36C449.8 303.94 450.09 305.39 450.27 306.74C450.59 309.44 450.83 311.69 450.87 313.65C450.89 315.61 450.84 317.26 450.75 318.75C450.65 320.24 450.42 321.58 450.25 322.91C450.79 326.35 451.05 323.8 451.27 323.5C451.84 328.98 451.99 333.25 451.98 336.85C452.01 338.65 451.93 340.28 451.83 341.8C451.73 343.33 451.65 344.76 451.47 346.15C451.07 348.93 450.69 351.6 449.89 354.65C449.18 357.72 448.15 361.18 446.71 365.54L447.76 367.71C447.28 368.88 446.8 371.44 446.01 374.9C445.83 375.77 445.63 376.69 445.43 377.67C445.19 378.64 444.94 379.66 444.68 380.73C444.42 381.8 444.14 382.91 443.86 384.06C443.53 385.2 443.19 386.37 442.84 387.58C441.46 392.42 439.52 397.63 437.24 402.81C436.62 404.08 436 405.36 435.38 406.64C435.06 407.27 434.75 407.91 434.42 408.54L433.37 410.39C432.67 411.62 431.95 412.83 431.23 414.02C430.46 415.18 429.68 416.32 428.9 417.43C429.15 417.33 429.63 417.1 430.69 415.71C429.82 416.97 428.95 418.28 428.09 419.62C427.18 420.93 426.27 422.28 425.37 423.65C424.49 425.04 423.51 426.39 422.56 427.77C421.61 429.15 420.68 430.57 419.65 431.92C415.74 437.48 411.41 442.85 407.03 447.56C402.69 452.32 398.12 456.2 394.1 459.04C392.03 460.38 390.12 461.49 388.4 462.26C386.63 462.97 385.08 463.38 383.78 463.41C383.18 463.72 382.6 464.05 381.99 464.35L380.16 465.21L376.51 466.92L372.78 468.44C371.54 468.94 370.31 469.46 369.03 469.87C370.21 469.35 371.19 468.8 372.03 468.33C372.87 467.86 373.58 467.46 374.15 467.12C375.31 466.43 375.97 465.98 376.25 465.65C376.83 465.01 376.03 465.16 374.87 465.38C372.54 465.83 368.92 466.86 372.41 464.6C370.61 465.42 368.63 466.52 366.7 467.47C364.8 468.46 363.05 469.49 361.76 470.21C359.2 471.7 358.71 472.49 363.37 470.86C363.82 470.6 364.25 470.3 364.69 470.01C366.91 470.57 361.16 473.44 354.68 475.59C348.23 477.81 341.17 479.24 341.63 480.12C321.55 484.19 301.14 484.1 281.64 481.22C262.12 478.29 243.41 472.73 226.03 465.28C227.66 465.17 229.26 465.09 230.88 464.95C226.83 463.32 222.81 461.6 218.84 459.78C215.53 458.75 213.89 459.4 222.48 463.23C219.96 462.8 216.49 460.89 213.69 458.99C210.88 457.09 208.75 455.22 208.74 454.94C200.43 451.1 201.72 452.43 204.44 454.53C207.18 456.58 211.45 459.23 208.92 457.97C206.67 456.75 204.41 455.54 202.2 454.26L203.84 454.85C202.58 453.92 201.63 453.15 200.76 452.44C199.9 451.72 199.14 451.04 198.22 450.32C196.38 448.87 193.94 447.22 189.06 444.46C185.86 442.9 184.96 442.62 184.48 442.69C184.01 442.74 184.02 443.04 182.82 442.33C182.75 442.47 181.91 442.02 179.16 440.07L172.14 435.7L165.3 431.05L171.69 433.4C166.19 428.51 158.97 424.61 166.3 427.35C164.95 426.86 163.13 425.96 160.99 424.75C158.84 423.54 156.48 421.86 153.85 420.04C151.25 418.19 148.39 416.19 145.55 413.97C142.75 411.7 139.87 409.32 137.02 406.95C135.61 405.75 134.15 404.62 132.83 403.38C131.49 402.16 130.17 400.95 128.89 399.78C126.33 397.44 123.91 395.22 121.75 393.25C117.58 389.16 114.4 386.08 113.02 385.04C109.76 381.07 106.64 377.05 103.07 373.07C99.4501 369.13 95.8401 364.82 91.7101 360.14C94.0201 362.25 96.6501 362.42 89.5701 354.4C89.2301 357.21 85.8501 353.63 81.59 348.69C80.5301 347.45 79.4001 346.14 78.2701 344.81C77.1301 343.49 76.0701 342.08 74.9601 340.8C72.7701 338.21 70.6301 335.91 68.76 334.55C71.84 337.15 67.3401 330.93 63.7101 324.8C61.8501 321.77 60.0801 318.84 59.3501 317.22C58.9901 316.41 58.9101 315.9 59.1701 315.9C59.43 315.9 60.0301 316.39 61.1601 317.47C59.8301 315.66 59.2001 314.69 58.7301 314.3C58.2901 313.89 58.1101 314 57.9501 314.18C57.6301 314.53 57.3901 315.16 55.2301 312.48C52.8201 307.67 49.9501 302.83 47.2401 297.65C45.84 295.08 44.3801 292.49 42.8801 289.86C41.39 287.23 40.0401 284.47 38.5601 281.72C37.1201 278.96 35.6001 276.19 34.1801 273.33C32.8301 270.44 31.4601 267.52 30.0901 264.58C27.2501 258.73 25.0001 252.51 22.7001 246.28C23.0501 245.72 25.3901 249.57 24.1001 244C21.7001 239.93 19.4601 235.76 17.1101 231.6C16.4001 229.07 16.7301 227.7 16.7401 225.87C16.7401 224.04 16.3401 221.79 14.1301 217.45C14.9301 218.63 16.1301 220.38 15.3201 216.97C14.8001 215.43 14.2801 213.9 13.7701 212.36C13.2601 210.82 12.8701 209.24 12.4201 207.68C11.5501 204.54 10.7001 201.39 9.87006 198.22L9.25005 195.84L8.73006 193.44L7.72006 188.62C7.07006 185.4 6.38006 182.18 5.80006 178.93C3.71006 165.91 2.06006 152.73 1.37006 139.46C-0.259942 112.92 0.350058 86.31 1.55006 59.8C1.56006 67.02 2.33005 62.3 3.13005 56.91C2.88005 60.46 4.43006 57.01 5.04006 57.8L5.32005 52.28C5.42005 50.44 5.47006 48.59 5.68006 46.76L6.71005 35.7299C7.05005 35.2799 7.37006 34.59 7.68006 33.7C7.84005 33.26 7.98005 32.77 8.14005 32.25C8.31005 31.73 8.48006 31.17 8.65006 30.58C9.33006 28.23 9.99005 25.41 10.6401 22.64C11.3201 19.88 11.8701 17.14 12.6001 15.03C13.3101 12.92 13.9901 11.38 14.6001 10.95C13.8901 13.16 13.0901 15.35 12.4601 17.59C14.7001 13.38 15.0301 16.8299 15.4101 21.2199C15.7601 25.6199 15.9701 30.92 17.5301 30.57C16.9401 31.74 16.4301 33.04 16.0701 34.45C15.7301 35.87 15.4701 37.4 15.2601 39.02C14.8401 42.25 14.6201 45.83 14.3401 49.58C14.1801 53.36 14.0201 57.32 13.4801 61.33C13.3501 62.33 13.1901 63.34 13.0201 64.35C12.8301 65.36 12.6401 66.37 12.4601 67.39C12.0801 69.42 11.5801 71.46 10.9201 73.49C11.1401 77.2 12.1501 70.46 12.6201 72.49C11.8001 74.52 11.2001 76.8 10.7601 79.76C10.6501 80.5 10.5401 81.28 10.4701 82.11C10.4101 82.94 10.3701 83.82 10.3301 84.76C10.2601 86.63 10.2301 88.72 10.2401 91.09L10.6001 90.04C10.4001 93.35 10.1301 96.41 10.0901 99.32C10.0701 102.23 10.0601 104.96 10.0501 107.59C10.0801 110.22 10.0301 112.74 10.1601 115.22C10.3101 117.7 10.4601 120.14 10.6101 122.6C10.7801 125.06 10.9401 127.55 11.1201 130.12C11.4001 132.69 11.7001 135.34 12.0101 138.16C12.3401 140.97 12.5901 143.94 13.0101 147.11C13.4601 150.28 13.9501 153.67 14.4701 157.34L12.8201 155.32C13.2701 158.49 13.6401 160.39 13.9801 161.86C14.3801 163.33 14.7501 164.37 15.1501 165.82C14.6701 169.59 13.8701 165.18 13.2301 160.65C12.6701 156.12 12.0701 151.49 11.2601 154.95C13.0601 159.03 14.6101 170.18 16.6201 180.92C17.1801 183.59 17.7301 186.25 18.2501 188.77C18.8001 191.28 19.2901 193.67 19.9701 195.75C21.2301 199.94 22.4501 203.1 23.5801 204.28C24.7401 209.03 24.1701 208.44 23.6001 207.85C23.3201 207.55 23.0301 207.25 22.9701 207.63C22.9001 208 23.0301 209.05 23.7301 211.41L25.3101 213.67L24.8901 216.37C26.8401 222.52 28.8101 225.3 29.6501 225.29C29.0201 223.86 28.6001 220.99 28.1801 219.38C29.7301 223.25 31.5901 228.79 33.0501 233.75C33.4101 234.99 33.7701 236.19 34.09 237.32C34.25 237.88 34.41 238.43 34.5601 238.95C34.73 239.46 34.9001 239.95 35.0601 240.41C35.7001 242.25 36.2001 243.64 36.5401 244.28L34.6001 239.99C33.9401 238.56 33.41 237.09 32.8101 235.64C33.7101 238.86 34.9201 242.07 36.1201 245.36C37.3501 248.64 38.5301 252.01 39.9001 255.34C42.7901 261.95 45.5701 268.81 48.9201 275.37C49.7201 277.03 50.5201 278.68 51.3201 280.34C52.1101 282 52.8901 283.65 53.7801 285.24C55.4901 288.46 57.1701 291.66 58.7901 294.82C59.2001 295.61 59.6001 296.4 60.0001 297.19C60.4101 297.97 60.8601 298.73 61.2801 299.49C62.1201 301.02 62.96 302.54 63.79 304.04C64.6 305.55 65.4001 307.04 66.1901 308.52C66.9801 309.99 67.7001 311.48 68.5201 312.88C67.9801 312.45 67.4101 312.03 66.8801 311.58C76.7501 328.82 76.0301 324.57 88.6001 342.29L88.2401 341.57C89.3201 343.48 90.7001 345.64 92.2701 347.9C93.0601 349.03 93.8901 350.18 94.7701 351.35C95.6901 352.48 96.6501 353.6 97.6301 354.73C94.6601 350.06 105.51 361.59 101.49 355.56C107.88 364.18 109.68 366.15 110.52 367.74C111.42 369.29 111.56 370.28 115.53 376.34L118.66 377.87C120.03 379.93 120.69 381.12 121.96 382.79C122.59 383.62 123.38 384.58 124.48 385.81C125.04 386.42 125.67 387.11 126.39 387.9C127.16 388.64 128.02 389.48 129 390.43C123.03 383.72 135.3 393.86 128.76 386.22C133.39 389.6 137.15 392.82 140.36 395.82C143.67 398.71 146.46 401.35 148.95 403.76C150.2 404.96 151.38 406.09 152.54 407.14C153.73 408.14 154.89 409.07 156.06 409.9C158.38 411.58 160.71 412.9 163.31 413.77C169.81 422.59 146.57 403.18 150.89 407.19C149.79 406.6 149.56 406.76 149.93 407.41C150.12 407.73 150.45 408.18 150.9 408.71C151.36 409.23 151.95 409.81 152.62 410.46C155.3 413.02 159.29 416.39 162.25 418.46C165.21 420.63 168.39 421.55 172.6 423.35C173.66 423.79 174.78 424.29 175.99 424.86C177.19 425.44 178.49 426.08 179.93 426.78C182.8 428.18 186.07 430 189.92 432.46C188.38 431.5 188.4 431.23 186.86 430.27C192.95 433.38 197.79 438.09 205.66 441.21C208.87 445.14 215.28 446.21 215.42 448.91C210.5 446.23 205.64 443.47 200.9 440.44C204.86 443.13 208.49 446.09 213.04 449.07C217.58 452.04 223.03 455.09 230.55 457.57C229.6 456.66 225.57 454.21 222.82 452.53C227.27 453.81 230.68 456.6 235.36 457.72C235.18 456.36 230.53 454.36 224.95 451.72C219.36 449.11 212.85 445.83 208.83 442.63C211.21 443.36 215.25 445.94 218.33 447.7C221.4 449.48 223.47 450.45 221.73 448.22C224.31 451.26 228.45 453.05 233.22 454.84C238 456.62 243.39 458.42 248.79 461.61L248.49 460C250.24 460.84 253.84 462.77 257.27 463.77C255.39 462.54 253.53 461.33 251.7 460.05C256.12 462.38 260.81 463.41 265.44 464.19C270.08 465.01 274.68 465.48 279.18 466.82C276.78 466.34 274.91 465.95 273.45 465.69C272 465.39 270.96 465.22 270.23 465.14C268.76 464.97 268.51 465.17 268.59 465.48C268.76 466.08 270.3 467.23 266.09 466.67C271.92 468.67 275.82 469.46 278.71 469.78C281.61 470.06 283.52 469.91 285.51 469.65C286.51 469.53 287.52 469.42 288.69 469.31C289.86 469.19 291.19 469.12 292.81 469.12C296.05 469.05 300.43 469.35 307.11 469.71C303.52 469.51 293.43 469.65 299.06 470.79C304.23 470.98 311.01 470.49 314.1 469.68C318.52 469.68 320.55 469.6 321.25 469.74C321.95 469.86 321.31 470.1 320.35 470.38C318.43 470.95 315.19 471.6 319.02 471.85C320.52 471.32 321.81 471.09 323.03 470.98C324.25 470.86 325.4 470.91 326.63 471.03C327.86 471.17 329.14 471.26 330.62 471.36C332.1 471.47 333.77 471.45 335.74 471.25L335.55 469.81C336.79 469.56 337.89 469.3 338.87 469.06C339.85 468.83 340.72 468.65 341.49 468.5C343.02 468.17 344.15 467.94 345.02 467.85C346.77 467.66 347.45 467.83 348.07 468.03C348.7 468.23 349.26 468.44 350.77 468.2C351.53 468.1 352.51 467.85 353.83 467.39C355.16 466.94 356.84 466.34 358.94 465.35C356.28 465.7 353.6 465.84 350.97 466C352.5 465.61 354.02 465.16 355.55 464.75C357.07 464.31 358.57 463.79 360.09 463.32L357.67 462.48C360.19 461.9 362.18 461.2 363.97 460.57C365.78 459.97 367.28 459.23 368.77 458.5C369.52 458.13 370.25 457.75 371.01 457.35C371.75 456.92 372.5 456.44 373.29 455.95C374.08 455.45 374.91 454.92 375.82 454.35C376.71 453.76 377.63 453.07 378.65 452.35C377.95 453.41 378.57 453.79 380.33 453.29C380.77 453.16 381.29 452.98 381.87 452.75C382.45 452.5 383.07 452.16 383.76 451.77C384.45 451.38 385.21 450.92 386.02 450.4C386.43 450.14 386.85 449.87 387.28 449.56C387.7 449.24 388.13 448.9 388.58 448.56C390.74 446.29 389.83 446.57 389.68 446.42C389.51 446.26 390.16 445.8 394.99 441.63C393.6 442.25 392.14 442.86 390.62 443.89C389.06 444.87 387.43 446.25 385.65 448.47C384.91 448.42 382.83 449.38 382.09 449.33C384.47 447.08 387.63 444.55 390.57 442.11C392.01 440.85 393.5 439.74 394.71 438.6C395.94 437.48 397.03 436.5 397.85 435.71C396.63 436.96 395.18 438.48 394.55 439.38C399.45 435.72 404.09 431.63 408.52 427.23C409.89 424.58 408.13 426.16 406.38 427.66C407.62 426.26 408.73 425.13 410 423.84C411.28 422.55 412.57 420.97 414.24 418.77C413.34 419.02 412.69 418.9 411.65 419.46C410.6 420.01 409.24 421.3 406.63 424.11C408.62 422.01 410.44 419.76 412.31 417.53C413.23 416.4 414.08 415.22 414.97 414.07L416.29 412.32L417.54 410.52C417.6 409.87 418.5 407.8 419.04 406.04C419.6 404.28 419.95 402.92 419.23 403.81C421.23 399.45 424.24 394.38 427.07 388.69C428.52 385.86 429.81 382.85 431.01 379.78C431.55 378.23 432.06 376.66 432.53 375.09C433.01 373.52 433.31 371.91 433.62 370.33C434.01 369.74 434.59 368.5 435.31 365.84C435.94 362.87 436.28 359.93 436.65 357.01C436.82 355.55 436.91 354.08 437.05 352.62C437.12 351.89 437.18 351.15 437.25 350.41C437.29 349.67 437.34 348.93 437.38 348.18C437.82 342.21 438.15 336 438.75 328.8C438.04 326.1 437.05 323.46 436.21 320.85C435.86 315.33 436.81 317.94 437.71 319.68C438.56 321.42 439.52 322.27 438.76 312.85C438.59 311.19 438.43 309.87 438.27 308.82C438.1 307.78 437.88 307.02 437.7 306.46C437.33 305.34 437 305.05 436.69 305.03C436.06 304.99 435.49 306.03 434.76 303.83C434.71 302.18 434.53 300.2 434.35 297.98C434.15 295.76 433.75 293.33 433.26 290.73C432.15 285.57 430.27 279.83 427.11 274.48C427.68 276.45 428.34 278.13 429.01 279.78C429.62 281.45 430.25 283.08 430.82 284.89L430.7 284.84ZM341.92 178.74C343.04 179.56 344.61 180.93 346.18 182.12C347.76 183.29 349.31 184.34 350.37 184.55C349.53 182.98 348.48 182.03 347.1 181.24C345.72 180.45 344.07 179.72 341.92 178.74ZM199.36 235.6C199.31 233.51 198.5 230.48 197.39 227.03C197.49 228.33 197.78 229.69 198.07 231.13C198.23 231.85 198.39 232.59 198.6 233.33C198.83 234.07 199.09 234.83 199.36 235.6ZM757.14 298.23C757.02 298.19 756.94 298.16 756.85 298.12C750.6 297.9 752.82 297.95 757.14 298.23ZM770.08 299.23C771.34 299.59 771.23 299.78 770.65 299.91C769.81 299.43 766.92 299.05 763.62 298.73C764.58 298.47 766.28 298.42 770.08 299.23ZM181.7 441.07L184.08 442.14C179.37 438.65 180.55 439.85 181.7 441.07Z" fill="#FF8706"/>
<path d="M198.55 211.41C198.33 210.65 198.07 210.43 197.81 210.25C198.09 209.19 198.38 209.19 198.55 211.41Z" fill="#FF8706"/>
<path d="M433.59 369.85L433.5 370.26C433.36 370.46 433.24 370.56 433.14 370.61L433.59 369.85Z" fill="#FF8706"/>
<path d="M567.84 293.38C565.22 294.16 563.79 294.74 562.86 295.23C562.64 294.92 563.79 294.36 567.84 293.38Z" fill="#FF8706"/>
<path d="M836.69 315.49L828.77 313.07C832.63 314.14 834.09 314.18 836.11 314.47C835.84 314.75 834.19 314.83 836.69 315.5V315.49Z" fill="#FF8706"/>
<path d="M908.03 330.16C909.1 330.78 910.44 331.14 911.5 331.76L910.93 332.26C906.1 330.29 902.91 328.43 908.04 330.17L908.03 330.16Z" fill="#FF8706"/>
<path d="M845.4 312.84C846.36 311.86 851.27 313.78 856.8 315.69C856.46 315.58 856.15 315.48 855.81 315.39C856.96 317.52 851.18 315.18 845.4 312.84Z" fill="#FF8706"/>
<path d="M858.08 316.12C859.79 316.7 861.54 317.26 863.24 317.71C863.69 318.56 861.1 317.21 858.08 316.12Z" fill="#FF8706"/>
<path d="M786.17 302.7C788.94 302.85 787.6 304.52 789.22 304.29C791.99 306.33 771.44 299.38 786.17 302.7Z" fill="#FF8706"/>
<path d="M851.05 310.36L848.61 311.2L845.79 309.08L851.05 310.36Z" fill="#FF8706"/>
<path d="M805.76 300.25L815.03 301.79C814.84 302.01 815.97 302.4 817.38 302.81C811.71 301.66 805.46 300.63 805.77 300.24H805.76V300.25Z" fill="#FF8706"/>
<path d="M817.38 302.81C820.34 303.36 823.1 304.13 824.67 304.79C823.1 304.36 819.72 303.44 817.38 302.81Z" fill="#FF8706"/>
<path d="M838.79 306.46L836.02 306.07L829.56 304.53L838.79 306.46Z" fill="#FF8706"/>
<path d="M705.75 288.66C702.35 288.37 698.94 288.05 695.53 287.96C695.01 287.7 695.45 287.49 696.5 287.38C697.55 287.28 699.2 287.19 701.11 287.41C703.55 287.87 707.34 288.23 705.76 288.66H705.75Z" fill="#FF8706"/>
<path d="M736.98 286.39C734.18 286.47 733.96 286.79 732.36 287.15L732.19 285.27L736.98 286.4V286.39Z" fill="#FF8706"/>
<path d="M707.01 284.16C706.01 283.6 692.07 282.05 705.16 282.71C706.2 283.27 716.5 284.13 707.01 284.16Z" fill="#FF8706"/>
<path d="M553.37 301.75L555.93 301.22L556.27 304.27L553.37 301.75Z" fill="#FF8706"/>
<path d="M420.47 330.4C426.23 328.75 427.02 329.06 427.68 329.38C428.33 329.7 428.85 330.04 434.01 328.32C436.92 328.38 425.55 331.1 428.5 331.03C421.25 331.85 417.64 333.08 420.47 330.4Z" fill="#FF8706"/>
<path d="M428.5 331.03C429.66 330.91 430.89 330.74 432.21 330.63C430.12 330.94 429.12 331.03 428.5 331.03Z" fill="#FF8706"/>
<path d="M8.21005 20.91C8.62005 18.28 8.94005 15.62 9.49005 13.01L9.30006 15.62L9.22005 18.25L8.21005 20.91Z" fill="#FF8706"/>
<path d="M14.2501 6.71997L12.8801 4.38L15.84 0.280029C15.28 1.98003 14.1901 5.28997 14.2501 6.71997Z" fill="#FF8706"/>
<path d="M321.65 172.15L321.34 171.47C322.59 171.55 324.21 172.24 327.37 173.81C325.48 173.19 323.54 172.7 321.64 172.15H321.65Z" fill="#FF8706"/>
<path d="M401.14 234L400.02 232.66C401.17 233.14 402.3 233.64 403.42 234.16L401.14 233.99V234Z" fill="#FF8706"/>
<path d="M433.36 310.55C433.11 308.89 432.76 307.11 432.51 305.3C432.27 303.5 431.88 301.68 431.45 300.03C432.22 303.66 433.16 306.39 433.79 308.19C434.4 309.99 434.48 310.83 433.35 310.55H433.36Z" fill="#FF8706"/>
</g>
<defs>
<clipPath id="clip0_8_116">
<rect width="1049" height="559" fill="white" transform="matrix(1 0 0 -1 0 559)"/>
</clipPath>
</defs>
</svg>
