<svg width="1049" height="559" viewBox="0 0 1049 559" fill="none" xmlns="http://www.w3.org/2000/svg">
<path d="M26.9399 1.86972C28.7099 -0.88028 29.0499 0.829717 29.5099 0.569717C26.2099 4.84972 26.7499 1.57972 26.9399 1.86972Z" fill="#FF8706"/>
<path d="M3.72998 51.0597L4.41003 50.1797L3.06006 54.0997L1.97998 58.0997L2.75 54.5497C3.02 53.3697 3.40998 52.2097 3.72998 51.0497V51.0597Z" fill="#FF8706"/>
<path d="M5.40002 102.6C4.60002 101.53 3.94 99.8296 3.38 97.7496C2.96 95.6396 2.63998 93.1496 2.34998 90.5296C1.92998 85.2596 1.88 79.4597 1.5 74.8297L0.97998 73.2997C1.25998 72.5997 1.48995 71.8997 1.81995 71.2097L2.77002 69.1497C2.43002 74.7297 2.35002 81.1797 2.77002 87.2197C3.23002 93.2397 4.12003 98.8397 5.41003 102.6H5.40002Z" fill="#FF8706"/>
<path d="M19 126.36C17.54 125.27 20.8701 131.84 16.0601 120.92C16.4101 121.42 16.53 121.55 16.74 121.84C17.2 122.81 17.85 124.13 18.99 126.36H19Z" fill="#FF8706"/>
<path d="M16.75 121.83C16.17 120.66 16.1 120.21 16.15 120.21C16.22 120.21 16.42 120.64 16.71 121.1C17.26 122.03 17.81 123.22 16.75 121.82V121.83Z" fill="#FF8706"/>
<path d="M28.6 143.06L27.6999 141.55L26.89 139.99L25.28 136.88C25.89 137.35 27.0599 138.86 27.9599 139.98C28.8399 141.12 29.56 141.79 29 140.78C32.93 146.69 31.6899 145.86 28.5799 143.06H28.6Z" fill="#FF8706"/>
<path d="M31.39 149.34C30.68 148.33 30.07 147.26 29.41 146.23C29.97 146.61 30.56 147.37 31.39 149.34Z" fill="#FF8706"/>
<path d="M25.4599 139.54C26.0999 140.66 26.6499 141.84 27.3499 142.93L29.41 146.23C28.52 145.62 27.8899 145.93 27.4599 143.23C27.3399 144.11 26.8399 142.55 25.4499 139.54H25.4599Z" fill="#FF8706"/>
<path d="M22.77 136.07C20.38 132.93 17.58 128.59 20.48 135.14C19.67 133.65 18.9899 132.36 18.4399 131.27C17.8799 130.19 17.47 129.29 17.25 128.57C16.76 127.14 16.68 126.52 16.96 126.65C17.24 126.78 17.84 127.69 18.77 129.3C19.8 130.86 21.12 133.14 22.77 136.07Z" fill="#FF8706"/>
<path d="M3.87005 105.74L2.00005 100.53L1.81011 98.1397L1.78008 95.7297C1.79008 96.3297 1.92008 97.2797 2.15008 98.3597C2.43008 99.4197 2.77002 100.62 3.09002 101.72C3.72002 103.94 4.23005 105.83 3.87005 105.75V105.74Z" fill="#FF8706"/>
<path d="M59.9999 173.62C60.0599 174.26 57.3899 173.06 56.5999 173.17C55.3499 171.91 54.0499 170.71 52.8799 169.39C53.9699 170.19 55.62 171.29 57.03 172.2C58.45 173.1 59.6599 173.78 60.0099 173.62H59.9999Z" fill="#FF8706"/>
<path d="M56.5999 173.17L59.43 175.98L62.3699 178.69C60.9399 177.63 59.7899 176.8 58.9399 176.07C58.0899 175.34 57.4999 174.79 57.0899 174.37C56.2799 173.53 56.2599 173.23 56.5899 173.17H56.5999Z" fill="#FF8706"/>
<path d="M30.3699 151.81C29.1299 150 28.12 148.02 27.02 146.14L25.4 143.3L23.9599 140.37C24.5699 141.51 25.11 142.69 25.77 143.8L27.7599 147.15C28.4399 148.26 29.07 149.41 29.78 150.5L31.9699 153.76L30.3599 151.81H30.3699Z" fill="#FF8706"/>
<path d="M84.9399 190.69L81.64 187.45L87.6899 192.99L84.9399 190.69Z" fill="#FF8706"/>
<path d="M102.53 200.79C99.94 198.48 107.32 201.58 104.4 199.48C106.82 200.8 108.97 202.19 111.01 203.51C113.04 204.83 114.91 206.13 116.68 207.37C114.73 206.21 112.65 205.12 110.33 204.06C108.01 202.99 105.48 201.89 102.53 200.79Z" fill="#FF8706"/>
<path d="M122.82 211.22C120.83 210.09 118.84 208.79 116.68 207.37C118.79 208.55 120.84 209.78 122.82 211.22Z" fill="#FF8706"/>
<path d="M73.6099 186.38C74.2799 186.49 75.6799 186.54 79.5999 188.72L76.27 188.09C75.46 187.57 74.5399 186.98 73.6099 186.39V186.38Z" fill="#FF8706"/>
<path d="M76.15 188.06L76.27 188.09C77.72 189 78.93 189.8 79.91 190.39C80.9 190.98 81.6299 191.41 82.0699 191.67C81.3099 191.22 79.5 190.19 76.15 188.07V188.06Z" fill="#FF8706"/>
<path d="M72.9399 185.95C73.1899 186.11 73.3699 186.22 73.6099 186.38C73.2899 186.32 73.1099 186.25 72.9399 185.95Z" fill="#FF8706"/>
<path d="M45.49 166.28C48.42 169.97 55.39 177.08 47.49 171.56C45.55 168.64 49.98 171.83 45.49 166.28Z" fill="#FF8706"/>
<path d="M68.81 185.05L65.2199 182.73C64.0399 181.94 62.8799 181.11 61.7099 180.29C62.0499 180.12 63.57 180.64 61.92 178.96L65.31 182.06L68.8199 185.05H68.81Z" fill="#FF8706"/>
<path d="M72.03 187.76C70.93 186.88 69.88 185.95 68.81 185.05L71.4699 186.77C71.6499 187.11 71.84 187.43 72.03 187.76Z" fill="#FF8706"/>
<path d="M108.96 206.04C112.06 208.16 115.67 210.04 119.86 211.97C115.22 210.22 110.6 208.06 106.27 205.89C105.85 205.21 104.28 203.62 108.96 206.04Z" fill="#FF8706"/>
<path d="M92.6599 197.84C92.8699 197.99 93.14 198.17 93.34 198.31C92.85 198.15 92.4799 197.98 92.6599 197.84Z" fill="#FF8706"/>
<path d="M161.73 229.5C161.46 229.5 161.23 229.49 160.96 229.48C160.93 229.39 160.92 229.31 160.88 229.22L161.73 229.51V229.5Z" fill="#FF8706"/>
<path d="M105.43 205.72C102.02 204.25 100.18 202.97 98.5299 201.61C100.88 203.06 103.48 204.43 106.27 205.89C106.46 206.19 106.46 206.33 105.43 205.73V205.72Z" fill="#FF8706"/>
<path d="M134.09 216.95C132.22 216.4 130.13 215.71 127.95 214.96C129.84 215.37 133.6 216.37 134.09 216.95Z" fill="#FF8706"/>
<path d="M94.5999 198.6C94.4499 198.49 94.3099 198.4 94.1399 198.29C95.3399 198.62 95.1399 198.67 94.5999 198.6Z" fill="#FF8706"/>
<path d="M94.5999 198.6C96.1799 199.66 97.34 200.65 98.53 201.61C96.6 200.45 94.83 199.35 93.34 198.31C93.78 198.46 94.2499 198.55 94.5999 198.6Z" fill="#FF8706"/>
<path d="M172.05 241.82C171.93 241.15 169.62 239.74 166.29 238.29C164.62 237.57 162.7 236.84 160.67 236.19C159.65 235.86 158.6 235.56 157.55 235.28C156.51 234.96 155.45 234.67 154.41 234.42C146.93 230.45 153.46 228.92 160.97 229.47C161.03 230.04 160.86 230.49 168.71 233.98C167.19 233.79 162.57 232.58 159.13 231.83C155.74 230.95 153.52 230.58 156.7 232.43C157.35 232.73 157.95 233 158.51 233.25C159.08 233.47 159.61 233.68 160.09 233.87C161.07 234.24 161.89 234.54 162.6 234.78C164.02 235.26 164.98 235.49 165.78 235.64C167.38 235.92 168.34 235.82 171.06 236.44C166.12 236.27 184.05 243.29 181.06 244.5C177.96 243.19 174.89 241.81 171.81 240.48C171.52 240.74 174.79 242.45 172.05 241.82Z" fill="#FF8706"/>
<path d="M145.78 223.59L142.57 222.15C146.37 223.44 149.22 224.07 154.45 225.15C159.66 227.86 160.63 228.72 160.88 229.2C155.48 227.18 150.12 225.04 144.73 222.97L145.78 223.58V223.59Z" fill="#FF8706"/>
<path d="M128.09 215.88C130.06 218.19 137.57 222.18 132.29 221.33C122.87 216.99 126.1 217.36 120.7 214.31C135.78 221.46 116.63 211.69 127.92 215.97C125.03 214.43 122.37 213.16 119.86 211.97C122.66 213.06 125.37 214.07 127.95 214.97C127.8 214.94 127.69 214.91 127.57 214.89L127.5 214.85V214.88C126.78 214.73 126.52 214.72 127.3 214.97C127.34 215.01 127.53 215.1 127.61 215.14C127.64 215.35 127.86 215.62 128.1 215.89C132.6 217.63 128.93 215.89 127.61 215.14C127.59 215.06 127.49 214.95 127.5 214.88C127.52 214.88 127.54 214.88 127.56 214.89C132.54 217.36 137.45 219.99 142.57 222.17C140.9 221.58 139.02 220.93 136.71 219.92C134.41 218.88 131.63 217.58 128.09 215.9V215.88Z" fill="#FF8706"/>
<path d="M52.4999 179.45C52.9799 179.69 53.0199 179.6 53.1099 179.56C53.8499 180.37 54.1099 180.72 52.4999 179.45Z" fill="#FF8706"/>
<path d="M58.43 183.09C57.58 182.19 57.02 181.25 53.89 178.84C50.98 176.98 53.51 179.33 53.11 179.55C51.46 177.76 47.22 173.57 53.41 177.79L54.22 178.67C54.91 179.16 55.63 179.65 56.36 180.13C57.11 180.59 57.88 181.04 58.64 181.48C60.16 182.35 61.64 183.15 62.92 183.81C65.5 185.1 67.3 185.75 66.87 185.36C65.74 185.28 64.69 185.16 63.39 184.85C62.11 184.52 60.58 183.98 58.43 183.08V183.09Z" fill="#FF8706"/>
<path d="M92.5999 202.06L98.5699 205.65L104.62 209.12L97.78 206.86L98.4099 206.44C91.2999 202.9 93.2 202.99 92.59 202.07H92.5999V202.06Z" fill="#FF8706"/>
<path d="M163.45 229.42L162.19 227.53L169.09 231.98L163.45 229.42Z" fill="#FF8706"/>
<path d="M180.41 235.52L180.16 234.17C181.59 234.9 182.98 235.72 184.44 236.37C183.08 236.15 181.76 235.81 180.42 235.52H180.41Z" fill="#FF8706"/>
<path d="M652.38 333.79C651.61 332.7 650.81 331.63 650.07 330.52C651.18 332.05 651.91 333.03 652.38 333.79Z" fill="#FF8706"/>
<path d="M672.68 354.39L672.82 355.3C672.03 354.17 671.77 353.63 672.68 354.39Z" fill="#FF8706"/>
<path d="M616.05 215.67C621.75 213.24 628.11 210.12 627.66 211.61L626.08 213.25C621.86 213.95 618.69 214.78 616.05 215.67Z" fill="#FF8706"/>
<path d="M855.15 344.24C855.01 343.68 854.86 343.09 854.72 342.5C855.09 341.03 855.37 339.63 855.67 338.37C855.53 340.15 855.45 342.15 855.15 344.24Z" fill="#FF8706"/>
<path d="M849.81 348.39L850.09 352.14C850.2 353.4 850.15 354.64 850.19 355.9C850.12 355.05 850.09 354.02 850.06 352.78C849.96 351.54 849.88 350.08 849.81 348.39Z" fill="#FF8706"/>
<path d="M615.86 188.65C616.69 187.29 617.43 185.92 618.32 184.61C616.45 191.44 616.65 188.28 615.86 188.65Z" fill="#FF8706"/>
<path d="M361.97 265.14C367.1 264.62 371.17 264.45 374.75 264.32C368.6 265.13 363.6 266.2 361.97 265.14Z" fill="#FF8706"/>
<path d="M650.01 351.76C648.37 349.73 647.83 348.72 648.09 348.58C649.73 350.7 650.63 351.94 650.01 351.76Z" fill="#FF8706"/>
<path d="M389.53 263.71C388.63 263.88 387.75 263.98 386.84 264.13C383.09 264.07 379.32 264.05 374.75 264.33C379.29 263.58 384.48 263.02 389.53 263.71Z" fill="#FF8706"/>
<path d="M1020.98 339.9C1021.15 340.29 1021.32 340.77 1021.49 341.12C1021.36 341.29 1021.19 340.73 1020.98 339.9Z" fill="#FF8706"/>
<path d="M1044.9 509.47C1045.22 507.78 1045.62 504.99 1046.01 502.36C1045.92 503.65 1045.6 505.8 1044.9 509.47Z" fill="#FF8706"/>
<path d="M250.64 253.37C246.92 252.49 250.08 253.1 250.64 253.37Z" fill="#FF8706"/>
<path d="M231.32 254.52C232.09 254.83 232.66 255.14 232.69 255.46C232.45 255.09 231.97 254.78 231.32 254.52Z" fill="#FF8706"/>
<path d="M428.39 268.7C428.5 268.68 428.59 268.67 428.72 268.65C427.61 269.05 427.8 268.98 428.39 268.7Z" fill="#FF8706"/>
<path d="M244.9 252.75C246.34 252.89 247.98 253.11 249.76 253.39C248.97 253.32 247.49 253.14 244.9 252.75Z" fill="#FF8706"/>
<path d="M245.78 252.31C244.48 252.08 243.46 251.91 242.49 251.74C242.06 251.43 242.51 251.38 245.78 252.31Z" fill="#FF8706"/>
<path d="M255.86 254.44C253.71 254.07 251.7 253.72 249.76 253.38C250.51 253.45 250.83 253.44 250.64 253.36C251.73 253.6 253.26 254.01 255.85 254.44H255.86Z" fill="#FF8706"/>
<path d="M826.31 106.77C826.56 106.84 826.83 106.94 827.1 107.01C830.35 109.14 828.86 108.34 826.31 106.77Z" fill="#FF8706"/>
<path d="M717.13 220.63C716.96 220.6 716.87 220.55 716.71 220.52C716.89 220.52 717.11 220.53 717.27 220.54L717.13 220.63Z" fill="#FF8706"/>
<path d="M730.35 223.45C729.01 222.82 727.79 222.32 726.65 221.92C725.52 221.51 724.46 221.23 723.43 221.07C721.37 220.72 719.45 220.62 717.27 220.54C718.88 219.47 720.52 218.41 722.19 217.35C725.01 219.24 727.71 221.39 730.35 223.46V223.45Z" fill="#FF8706"/>
<path d="M618.3 274.42L620.43 278.61C621.14 280 621.94 281.36 622.68 282.72C622.38 281.33 622.06 280 621.75 278.76C621.48 277.5 621.2 276.33 620.94 275.26C620.39 273.13 620.03 271.39 619.8 270.24C619.36 267.95 619.65 268.04 621.73 271.86C620.83 272.5 621.16 274.92 622.04 278.26C622.51 279.92 623.2 281.79 623.92 283.78C624.69 285.75 625.6 287.81 626.49 289.88C630.17 298.11 634.72 305.91 633.34 307.51C634.69 309.12 635.96 310.75 637.35 312.31C636.33 310.86 636.42 310.47 635.46 309.01C637.42 311.33 638.65 312.97 639.39 314.44C640.13 315.91 640.5 317.14 640.91 318.49C641.71 321.18 642.6 324.45 647.76 330.39C649.57 332.45 651.3 334.02 652.23 334.77C653.18 335.5 653.39 335.34 652.37 333.77L654.15 336.24L656 338.66L657.86 341.08L659.78 343.45C662.29 345.96 662.19 344.83 659.7 342.35C663.86 346.92 668.27 351.27 672.83 355.46L672.81 355.28C674.34 357.53 678.32 362.19 680.39 364.35C684.49 366.84 678.79 362.53 680.06 362.89L683.82 366.49C685.09 367.68 686.38 368.83 687.67 370C691.69 371.64 685.35 365.81 679.76 361.43C684.79 362.85 686.26 364.34 688.81 366.81C690.06 368.07 691.61 369.52 693.99 371.29C695.17 372.19 696.59 373.12 698.28 374.13C699.13 374.63 700.04 375.17 701.04 375.71C702.05 376.23 703.13 376.78 704.3 377.34C701.65 375.5 699.07 373.56 696.49 371.62C698.11 372.01 699.68 372.6 701.27 373.34C702.87 374.08 704.54 374.91 706.29 375.88C708.04 376.85 709.96 377.82 712.02 378.88C714.1 379.91 716.39 380.93 718.92 381.92C717.62 381.64 712.44 379.82 708.76 378.67C706.9 378.13 705.42 377.76 704.96 377.96C704.5 378.16 705.02 378.98 707.3 380.62C710.16 381.98 713.78 383.96 718.74 387.5C719.47 386.24 724.46 389.36 731.12 392.48L731.47 390.53C733.19 391.5 734.44 392.23 735.41 392.84C736.37 393.45 737.03 393.96 737.6 394.44C738.74 395.4 739.48 396.19 741.46 397.46C745.58 398.97 748.22 399.41 750.1 399.46C751.97 399.51 753.1 399.12 754.24 398.83C757.55 399.74 758.6 400.13 758.56 400.33C758.51 400.54 757.36 400.57 756.27 400.59C755.18 400.63 754.16 400.71 754.39 401.08C754.62 401.44 756.1 402.18 760.07 403.31C765.74 404.37 770.56 405.27 775.66 406.22C776.93 406.46 778.22 406.65 779.55 406.89C780.88 407.07 782.24 407.32 783.66 407.49C786.5 407.89 789.55 408.17 792.98 408.33C794.96 408.07 795.85 407.85 796.12 407.66C796.39 407.49 796.05 407.37 795.55 407.28C794.55 407.07 792.95 406.88 794.33 406.53C796.67 406.91 799.02 407.15 801.4 407.34C803.07 407.01 802.45 406.64 802.14 406.46C805.06 406.28 805.26 406.65 805.89 407.01C806.51 407.34 807.6 407.7 812.15 406.58C813.67 407.23 818.16 404.99 822.85 401.45C825.21 399.7 827.62 397.66 829.92 395.55C830.52 395.05 831.08 394.52 831.65 393.99C832.21 393.46 832.83 393 833.36 392.46C834.45 391.41 835.6 390.48 836.77 389.63C837.4 388.35 836.96 388.44 836.38 388.69C835.81 388.96 834.98 389.29 834.99 388.75C836.32 387.44 837.39 386.23 838.38 385.21C839.28 384.12 840 383.14 840.66 382.3C840.98 381.87 841.32 381.49 841.58 381.1C841.84 380.7 842.08 380.33 842.3 379.97C842.77 379.26 843.19 378.62 843.6 377.99C845.15 375.42 846.68 373.23 849.45 367.13C849.66 365.24 849.98 363.39 850.02 361.49L850.17 358.67C850.24 357.74 850.17 356.78 850.17 355.85C850.25 356.89 850.36 357.65 850.49 358.16C850.6 358.66 850.75 358.92 850.93 358.96C851.31 359.04 851.86 358.27 852.36 356.9C852.62 356.22 852.9 355.39 853.19 354.46C853.33 353.99 853.49 353.5 853.62 352.98C853.73 352.46 853.85 351.92 853.97 351.37C854.19 350.25 854.42 349.07 854.66 347.87C854.84 346.66 854.98 345.43 855.13 344.21C855.49 345.74 855.91 347.18 856.12 348.46C856.35 349.74 856.53 350.87 856.64 351.77L857.04 347.83L857.22 343.87L857.3 341.88L857.28 339.89C857.26 338.57 857.27 337.23 857.21 335.91C856.93 334.97 856.68 334.93 856.44 335.44C856.22 335.95 855.95 337.03 855.64 338.34C855.72 337.26 855.8 336.23 855.82 335.43C854.38 329.94 853.69 333.05 853.1 337.03C853.64 338.87 854.17 340.69 854.68 342.47C854.14 344.41 853.56 346.24 852.98 347.49C852.34 348.73 851.7 349.38 851.16 348.99C851.46 348.03 851.59 346.16 851.65 344.1C851.35 345.08 851.08 345.69 850.88 345.25C850.77 345 850.82 344.49 850.94 343.73C851.01 343.35 851.09 342.91 851.18 342.41C851.26 341.91 851.32 341.35 851.4 340.73L849.01 337.54C849.28 337.24 849.53 336.94 849.77 336.64C848.66 330.26 846.86 324.02 844.59 318.04C843.59 311.12 842.44 304.47 840.11 297.02C837.75 289.6 834.22 281.26 827.51 271.84C829.72 277.32 826.2 274.34 824.92 275.73C827.57 277.56 829.92 281.29 832.26 285.75C834.54 290.27 836.79 295.5 839.39 300.65C836.57 295.31 836.37 296.92 836.75 298.42C834.28 292.06 831.3 285.85 827.85 279.85C827.36 280.47 826.5 279.74 825.32 278.36C824.72 277.67 824.01 276.85 823.22 275.95C822.42 275.06 821.6 274.05 820.6 273.14C821.83 273.44 821.94 272.79 821.32 271.51C820.7 270.23 819.39 268.3 817.63 266.22C815.94 264.09 813.77 261.85 811.74 259.69C810.69 258.64 809.68 257.62 808.75 256.65C807.82 255.68 806.92 254.84 806.21 254.05C805.68 254.26 805.63 254.89 806.69 256.28C807.23 256.96 808 257.89 809.12 259.06C809.68 259.64 810.33 260.29 811.07 261C811.79 261.73 812.6 262.56 813.51 263.45C812.32 262.65 811.34 261.81 810.43 261.05C809.53 260.28 808.76 259.51 808.08 258.73C806.75 257.14 805.62 255.68 804.57 254.12C802.42 251.07 800.13 248 795 245.54C797.05 247.01 798.21 247.72 798.71 248.71C798.19 248.19 797.54 247.6 796.81 246.99C796.08 246.37 795.29 245.71 794.39 245.14C792.63 243.94 790.73 242.74 789.05 241.74C787.39 240.7 785.83 240.06 784.91 239.73C783.98 239.41 783.65 239.47 784.27 240.07L786.44 241.31C784.61 240.32 782.55 239.2 780.32 238C779.77 237.69 779.21 237.38 778.64 237.07C778.05 236.79 777.45 236.51 776.85 236.22C775.64 235.64 774.4 235.05 773.15 234.45C772.52 234.15 771.89 233.84 771.26 233.53C770.63 233.21 769.99 232.91 769.33 232.65C768.02 232.1 766.7 231.55 765.38 231C764.06 230.44 762.75 229.88 761.46 229.33C760.13 228.84 758.82 228.36 757.54 227.89C752.45 225.85 747.59 224.45 743.99 223.01C740.33 221.8 737.85 220.76 737.36 220C737.14 220.29 738.89 223.48 739.75 224.2L736.33 222.35L734.6 221.42C734.02 221.12 733.43 220.86 732.85 220.58L725.73 217.22C720.89 215.19 715.96 213.07 710.89 211.35C712.17 212.54 710.1 214.25 709.52 215.94C709.23 216.79 709.3 217.63 710.3 218.41C710.8 218.8 711.53 219.17 712.57 219.51C713.6 219.87 714.95 220.12 716.66 220.51C715.67 220.45 714.61 220.45 713.45 220.44C712.29 220.42 711.04 220.38 709.65 220.29C708.26 220.22 706.74 220.04 705.04 219.9C703.34 219.78 701.45 219.59 699.35 219.33C702.06 219.11 706.32 216.39 702.55 216.06C699.93 216.59 698.19 216.92 696.83 217.14C695.47 217.36 694.5 217.56 693.46 217.7C692.42 217.84 691.3 217.99 689.65 218.22C688.83 218.34 687.87 218.49 686.73 218.66C685.59 218.86 684.26 219.14 682.69 219.47C686.78 218.84 682.1 215.55 675.52 216.02C676.57 216.47 675.2 219.42 677.59 219.65C672.16 218.91 666.66 218.17 661.12 217.73C665.24 217.88 662.13 220.49 658.67 221.84C660.24 220.87 644.85 223.83 640.54 224.37L647.19 222.42C642.69 223.35 639.27 223.64 636.4 223.81C633.52 223.95 631.18 223.81 628.82 223.65C624.13 223.43 619.39 223.1 610.45 225.38C612.8 225.55 616.78 228.24 607.85 230.89C605.58 230.59 600.47 229.71 593.89 229.41C587.31 229.07 579.27 229.31 571.22 230.95L568.48 232.78L556.13 235.25C564.36 235.51 586.92 234.56 598.92 233.63C592.45 236.21 597.36 235.21 587.36 237.92C584.09 239.81 593.17 237.73 596.12 237.02C588.44 239.29 580.77 241.72 573.09 244.15C573.56 241.9 554.75 247.45 555.15 245.59C563.77 243.76 572.38 241.93 580.98 240.19C581.21 239.08 577.17 238.75 571.01 239.36C564.85 239.98 556.58 241.56 548.38 244.18C544.41 246.19 552.54 246.69 552.39 247.44C550.06 247.42 536.33 250.79 534.94 251.7L542.27 250.68C533.26 254.11 526.48 252.49 515.84 257.41C512.02 258.56 504.93 262.98 503.95 261.96C509.75 258.14 509.1 250.88 504.53 250.32C503.88 250.56 498.98 252.37 493.72 254.32C488.43 256.16 482.75 258.2 480.65 259.24C474.61 262.4 491.18 261.35 486.05 264.05C485.69 263.56 481.99 263.67 480.47 263.78C476.46 265.13 482.52 265.08 473.53 266.78C471.65 265.12 455.26 270.12 468.96 265.86C460.07 266.8 459.69 267.88 449.34 269.57C450.88 268.61 448.4 268 444.41 267.42C440.42 266.89 434.97 266.64 430.54 266.91C431.12 267.36 429.22 268.28 428.3 268.71C426.05 269 423.93 269.37 421.9 269.58C419.87 269.8 417.94 270.02 416.09 270.22C412.38 270.67 408.94 271.08 405.55 271.49C398.76 272.45 392.08 272.82 383.6 273.21C382.06 273.77 373.87 274.71 377.39 275.45C376.16 275.31 374.98 275.13 373.45 274.92C371.92 274.7 370.04 274.51 367.42 274.48C357.27 276.25 379.14 274.76 371.42 276.88C370.73 275.69 357.79 275.24 350.34 274.49C352.67 272.64 367.58 274.18 375.1 274.84C375.09 273.62 371.81 272.33 366.36 271.19C363.63 270.63 360.36 270.11 356.68 269.65C354.84 269.42 352.89 269.21 350.85 269.02C348.81 268.85 346.69 268.52 344.5 268.3C330.55 267.08 338.37 269.68 335.96 269.22C329.38 269.04 324.69 268.7 321.06 267.95C317.42 267.28 314.81 266.55 312.34 265.87C307.4 264.46 303.02 263.59 292.13 263.02C283.35 263.54 291.35 266.16 289.3 267.07C292.12 267.58 294.63 267.91 296.93 268.13C298.08 268.24 299.17 268.33 300.23 268.39C301.28 268.44 302.3 268.43 303.29 268.44C307.24 268.44 310.73 268.35 314.59 268.7L305.01 268.66C308.58 269.5 316.18 270.55 320.37 270.43C318.53 270.64 314.82 270.53 309.97 270.23C307.55 270.08 304.84 269.89 301.94 269.68C300.49 269.6 299 269.39 297.47 269.21C295.94 269.02 294.38 268.83 292.79 268.64C289.61 268.25 286.33 267.86 283.03 267.46C279.74 267.04 276.42 266.76 273.22 266.21C266.8 265.23 260.69 264.38 255.59 263.85C252.09 262.8 246.1 260.85 249.11 260.86L252.24 261.63L255.4 262.28C258.44 262.13 255.53 261.19 252.89 260.37C250.26 259.49 247.91 258.67 251.94 259.23C247.81 257.89 243.46 256.36 238.66 254.95C236.26 254.24 233.74 253.57 231.07 252.95C230.4 252.8 229.73 252.65 229.04 252.5C228.36 252.33 227.67 252.17 226.97 252C225.57 251.67 224.13 251.36 222.64 251.07L219.99 252.29C220.18 252.06 222.17 252.29 224.5 252.75C225.67 252.98 226.92 253.27 228.08 253.58C229.24 253.9 230.33 254.16 231.13 254.49C228.73 253.65 224.12 252.99 219.44 252.26C214.77 251.5 210.08 250.52 207.71 248.67L216.26 249.55C214.23 248.79 212.09 247.94 209.87 247.05C207.65 246.17 205.33 245.28 202.99 244.25C198.28 242.27 193.29 240.4 188.09 239.13C193.28 238.8 190.4 240.04 198.26 240.2C194.75 240.49 201.26 242.52 207.35 244.23C213.48 245.79 219.13 247.25 213.65 247.28C217.74 247.06 221.06 247.64 224.66 248.34C226.46 248.68 228.32 249.1 230.4 249.37C232.48 249.61 234.76 249.78 237.35 249.79C236.91 250.32 233.58 250.18 242.39 251.74C242.75 252 243.63 252.42 244.2 252.67C244.47 252.71 244.57 252.72 244.8 252.75C244.62 252.74 244.49 252.73 244.3 252.72C244.66 252.89 244.69 252.92 244.12 252.71C241.98 252.53 240.22 252.48 239.46 252.66C241.49 253.8 246 255.11 250.59 256.34C252.87 257 255.21 257.45 257.25 257.92C259.29 258.39 261.04 258.82 262.2 259.19C267.51 259.8 260.12 258.13 263.1 257.98L270.04 260.25C270.97 259.04 284.32 260.4 272.09 257.53C273.94 257.83 275.79 258.15 277.65 258.42L283.24 259.09C286.58 259.13 290.51 259.36 294.3 259.74C298.09 260.11 301.72 260.7 304.5 261.15C309.81 261.3 317.73 263.76 313.21 262.32L321.98 263.48C323.44 263.65 324.9 263.91 326.37 264.02L330.77 264.41L330.95 264.08C335.31 264.22 339.72 264.52 344.2 264.88C346.44 265.03 348.7 265.3 350.99 265.37C353.27 265.45 355.58 265.53 357.9 265.61C362.55 265.75 367.28 265.82 372.09 265.7L373.9 265.65L375.71 265.5C376.92 265.39 378.14 265.27 379.36 265.14C381.8 264.87 384.26 264.54 386.73 264.13C389.67 264.18 392.66 264.24 396.14 264.19C397.88 264.2 399.74 264.04 401.77 263.86C403.8 263.68 406.01 263.45 408.45 263.14L410.26 261.82C412.14 261.76 414.48 261.54 416.99 261.26C419.49 260.97 422.17 260.68 424.68 260.21C429.72 259.37 434.24 258.7 435.92 259.1C437.83 258.07 441.03 257.22 444.97 256.5C448.89 255.68 453.52 254.82 458.33 254.09C460.74 253.73 463.19 253.36 465.6 253C466.81 252.82 468.01 252.65 469.2 252.48C470.39 252.29 471.54 252.04 472.68 251.83C477.23 250.95 481.39 250.09 484.58 249.26L485.4 250.64C494.34 248.75 502.91 246.94 514 244.59L513.68 246.07C523.47 244.58 537.75 238.28 552.77 233.95C551.6 233.76 547.84 235.02 545.24 236.11C562.27 227.89 583.69 226.95 599.64 220.54C603.9 219.96 606.83 219 609.67 218C609.28 218.09 608.93 218.15 608.62 218.18C609.04 218.06 609.67 217.91 610.32 217.76C612.1 217.1 613.93 216.38 615.93 215.68C614.26 216.42 612.66 217.08 611.24 217.55C612.85 217.18 614.87 216.74 617.1 216.31C619.34 215.9 621.79 215.49 624.22 215.13L625.96 213.27C626.36 213.2 626.67 213.15 627.08 213.08C631.72 211.62 631.02 213 628.72 214.56C631.19 214.31 633.46 214.15 635.25 214.15C636.95 212.62 640.18 212.29 643.55 211.87C644.4 211.77 645.25 211.66 646.1 211.54C646.95 211.44 647.8 211.31 648.61 211.15C650.24 210.82 651.75 210.33 653 209.52C654.72 209.83 660.92 209.35 667.03 209.12C670.09 209.08 673.14 209.08 675.58 209.24C678.03 209.45 679.88 209.85 680.56 210.45C680.71 210.11 682.15 209.89 679.5 209.98C682.23 209.74 684.95 209.4 687.62 209.37C690.29 209.33 692.89 209.42 695.34 209.77C696.12 209.14 696.91 208.57 697.7 207.98L703.67 209.41C704.66 209.66 705.65 209.87 706.63 210.14L709.57 210.98C713.22 210.7 715.84 210.42 716.64 210.04C717.04 209.85 717 209.59 716.4 209.24C715.81 208.91 714.66 208.52 712.87 208.03C713.96 208.24 714.96 208.44 715.9 208.62C716.83 208.8 717.69 209.03 718.49 209.2C720.08 209.55 721.43 209.85 722.6 210.11C724.95 210.6 726.62 210.89 728.2 211.29C729.78 211.66 731.28 212.01 733.27 212.55C734.26 212.84 735.4 213.1 736.7 213.58C738 214.04 739.5 214.59 741.26 215.25L740.81 213.94C742.11 214.24 743.59 214.67 745.12 215.15C746.64 215.65 748.2 216.3 749.71 216.85C752.72 217.97 755.49 218.85 757.15 218.96C763.15 219.65 777.41 224.46 792.27 233.39C794.09 234.57 795.93 235.76 797.8 236.97C798.73 237.58 799.68 238.17 800.61 238.81C801.52 239.47 802.43 240.14 803.35 240.8C807.02 243.45 810.55 246.37 813.98 249.31C820.8 255.25 826.91 261.64 832.12 267.49C828.9 266.18 831.43 268.77 834.51 272.11C837.57 275.47 840.98 279.8 840.16 281.02C841.8 282.12 844.41 285.67 842.45 280.92C846.28 287.97 849.17 293.25 851.5 298.14C852.07 299.37 852.63 300.56 853.12 301.76C853.59 302.97 854.03 304.18 854.43 305.4C854.63 306.01 854.82 306.62 855 307.25C855.16 307.88 855.3 308.52 855.44 309.17C855.71 310.47 855.94 311.8 856.1 313.19C856.75 313.96 856.82 313.02 856.77 312.11C856.73 311.19 856.65 310.26 857.14 310.96C857.44 312.22 857.95 316.11 858.91 317.6C859.85 319.08 858.92 315.12 858.53 312.5C859.1 314.53 859.57 316.33 859.94 317.95C860.25 319.58 860.46 321.02 860.6 322.29C860.67 322.92 860.73 323.51 860.76 324.06C860.76 324.62 860.76 325.13 860.76 325.61C860.73 326.57 860.66 327.38 860.54 328.07C860.1 330.83 858.89 331.72 857.8 332.46C859.98 340.41 859.91 344.74 858.15 350.57C858.49 352 858.83 353.94 859.1 354.26C859.25 354.42 859.45 354.17 859.63 353.25C859.79 352.33 859.96 350.72 860.12 348.17C860.12 348.89 860.1 349.97 860.08 351.33C860.08 352.01 860.06 352.75 860.05 353.55C859.99 354.35 859.93 355.2 859.86 356.09C859.79 356.98 859.72 357.92 859.64 358.88C859.56 359.84 859.38 360.83 859.24 361.83C859.09 362.83 858.93 363.85 858.78 364.88C858.58 365.9 858.33 366.91 858.1 367.91C857.86 368.91 857.64 369.91 857.38 370.87C857.07 371.82 856.76 372.75 856.47 373.65C856.16 374.54 855.86 375.4 855.58 376.21C855.23 377 854.89 377.74 854.57 378.41C853.92 379.76 853.37 380.87 852.85 381.61C852.31 382.34 851.89 382.73 851.64 382.69C851.54 383.15 851.27 383.84 850.9 384.63C850.53 385.42 850.09 386.34 849.51 387.16C848.4 388.84 847.24 390.43 846.72 391C844.75 393.61 843.3 395.7 841.77 397.23C841.04 398.03 840.38 398.76 839.75 399.45C839.12 400.14 838.44 400.71 837.8 401.33C835.17 403.68 832.47 406.02 826.83 409.13L828.3 408.12L829.72 407.03C829.03 407.13 828.38 407.28 827.74 407.47C827.09 407.64 826.45 407.86 825.81 408.13C824.55 408.69 823.22 409.29 821.79 410.08C818.89 411.53 815.37 413.34 810.43 414.49L810.77 414.65C805.24 416.51 801.71 417.03 799.36 417.38C796.99 417.63 795.74 417.67 794.51 417.63C793.28 417.63 792.06 417.6 789.74 417.69C787.41 417.75 783.97 417.98 778.27 417.93L779.63 416.6C778.71 414.98 773.8 415.03 767.47 414.56C764.3 414.34 760.8 413.97 757.31 413.35C753.83 412.71 750.39 411.77 747.38 410.5C748.96 410.7 750.52 410.94 752.1 411.1C748.86 409.6 743.88 409.08 738.77 408.43C736.22 408.12 733.63 407.77 731.31 407.33C728.97 406.9 726.83 406.42 725.16 405.73C723.63 405.31 727.22 407.19 729.17 408.21C720.17 405.2 719.85 404.4 720.16 403.74C720.49 403.05 721.44 402.4 715.32 399.07C712.57 398.76 717.09 402.94 708.63 398.66C707.5 398.26 705.53 397.05 703.04 395.35C700.58 393.61 697.6 391.42 694.48 388.99C688.19 384.19 681.35 378.61 675.68 375.42C677.03 376 678.4 376.52 678.82 376.38C679.25 376.22 678.68 375.44 676.34 373.2C672.5 370.08 666.93 366.32 661.72 362.23C656.52 358.14 651.81 353.59 649.62 349.48C648.58 348.72 648.13 348.48 647.95 348.58C645.62 345.55 641.68 340.78 638.39 336C635.03 331.27 632.26 326.6 631.51 324.35C630.49 324 629.34 323.1 628.14 321.77C626.94 320.44 625.59 318.75 624.34 316.72C623.05 314.71 621.72 312.46 620.51 310.04C619.23 307.66 618.09 305.1 616.96 302.61C612.45 292.63 609.74 283 607.58 283.89C604.87 276.52 602.67 268.96 600.98 261.3L600.67 262.01C600.44 261.09 600.22 260.22 600 259.37C599.83 258.51 599.66 257.69 599.5 256.9C599.2 255.32 598.91 253.87 598.73 252.52C598.41 249.82 598.17 247.57 598.13 245.61C598.11 243.65 598.16 242 598.25 240.51C598.35 239.02 598.58 237.68 598.75 236.35C598.21 232.91 597.95 235.46 597.73 235.76C597.16 230.28 597.01 226.01 597.02 222.41C596.99 220.61 597.07 218.98 597.17 217.46C597.27 215.93 597.35 214.5 597.53 213.11C597.93 210.33 598.31 207.66 599.11 204.61C599.82 201.54 600.85 198.08 602.29 193.72L601.24 191.55C601.72 190.38 602.2 187.82 602.99 184.36C603.17 183.49 603.37 182.57 603.57 181.59C603.81 180.62 604.06 179.6 604.32 178.53C604.58 177.46 604.86 176.35 605.14 175.2C605.47 174.06 605.81 172.89 606.16 171.68C607.54 166.84 609.48 161.63 611.76 156.45C612.38 155.18 613 153.9 613.62 152.62C613.94 151.99 614.25 151.35 614.58 150.72L615.63 148.87C616.33 147.64 617.05 146.43 617.77 145.24C618.54 144.08 619.32 142.94 620.1 141.83C619.85 141.93 619.37 142.16 618.31 143.55C619.18 142.29 620.05 140.98 620.91 139.64C621.82 138.33 622.73 136.98 623.63 135.61C624.51 134.22 625.49 132.87 626.44 131.49C627.39 130.11 628.32 128.69 629.35 127.34C633.26 121.78 637.59 116.41 641.97 111.7C646.31 106.94 650.88 103.06 654.9 100.22C656.97 98.8797 658.88 97.7697 660.6 96.9997C662.37 96.2897 663.92 95.8797 665.22 95.8497C665.82 95.5397 666.4 95.2097 667.01 94.9097L668.84 94.0497L672.49 92.3397L676.22 90.8197C677.46 90.3197 678.69 89.7997 679.97 89.3897C678.79 89.9097 677.81 90.4597 676.97 90.9297C676.13 91.3997 675.42 91.7997 674.85 92.1397C673.69 92.8297 673.03 93.2797 672.75 93.6097C672.17 94.2497 672.97 94.0997 674.13 93.8797C676.46 93.4297 680.08 92.3997 676.59 94.6597C678.39 93.8397 680.37 92.7397 682.3 91.7897C684.2 90.7997 685.95 89.7697 687.24 89.0497C689.8 87.5597 690.29 86.7697 685.63 88.3997C685.18 88.6597 684.75 88.9597 684.31 89.2497C682.09 88.6897 687.84 85.8197 694.32 83.6697C700.77 81.4497 707.83 80.0197 707.37 79.1397C727.45 75.0697 747.86 75.1597 767.36 78.0397C786.88 80.9697 805.59 86.5297 822.97 93.9797C821.34 94.0897 819.74 94.1697 818.12 94.3097C822.17 95.9397 826.19 97.6597 830.16 99.4797C833.47 100.51 835.11 99.8597 826.52 96.0297C829.04 96.4597 832.51 98.3697 835.31 100.27C838.12 102.17 840.25 104.04 840.26 104.32C848.57 108.16 847.28 106.83 844.56 104.73C841.82 102.68 837.55 100.03 840.08 101.29C842.33 102.51 844.59 103.72 846.8 105L845.16 104.41C846.42 105.34 847.37 106.11 848.24 106.82C849.1 107.54 849.86 108.22 850.78 108.94C852.62 110.39 855.06 112.04 859.94 114.8C863.14 116.36 864.04 116.64 864.52 116.57C864.99 116.52 864.98 116.22 866.18 116.93C866.25 116.79 867.09 117.24 869.84 119.19L876.86 123.56L883.7 128.21L877.31 125.86C882.81 130.75 890.03 134.65 882.7 131.91C884.05 132.4 885.87 133.3 888.01 134.51C890.16 135.72 892.52 137.4 895.15 139.22C897.75 141.07 900.61 143.07 903.45 145.29C906.25 147.56 909.13 149.94 911.98 152.31C913.39 153.51 914.85 154.64 916.17 155.88C917.51 157.1 918.83 158.31 920.11 159.48C922.67 161.82 925.09 164.04 927.25 166.01C931.42 170.1 934.6 173.18 935.98 174.22C939.24 178.19 942.36 182.21 945.93 186.19C949.55 190.13 953.16 194.44 957.29 199.12C954.98 197.01 952.35 196.84 959.43 204.86C959.77 202.05 963.15 205.63 967.41 210.57C968.47 211.81 969.6 213.12 970.73 214.45C971.87 215.77 972.93 217.18 974.04 218.46C976.23 221.05 978.37 223.35 980.24 224.71C977.16 222.11 981.66 228.33 985.29 234.46C987.15 237.49 988.92 240.42 989.65 242.04C990.01 242.85 990.09 243.36 989.83 243.36C989.57 243.36 988.97 242.87 987.84 241.79C989.17 243.6 989.8 244.57 990.27 244.96C990.71 245.37 990.89 245.26 991.05 245.08C991.37 244.73 991.61 244.1 993.77 246.78C996.18 251.59 999.05 256.43 1001.76 261.61C1003.16 264.18 1004.62 266.77 1006.12 269.4C1007.61 272.03 1008.96 274.79 1010.44 277.54C1011.88 280.3 1013.4 283.07 1014.82 285.93C1016.17 288.82 1017.54 291.74 1018.91 294.68C1021.75 300.53 1024 306.75 1026.3 312.98C1025.95 313.54 1023.61 309.69 1024.9 315.26C1027.3 319.33 1029.54 323.5 1031.89 327.66C1032.6 330.19 1032.27 331.56 1032.26 333.39C1032.26 335.22 1032.66 337.47 1034.87 341.81C1034.07 340.63 1032.87 338.88 1033.68 342.29C1034.2 343.83 1034.72 345.36 1035.23 346.9C1035.74 348.44 1036.13 350.02 1036.58 351.58C1037.45 354.72 1038.3 357.87 1039.13 361.04L1039.75 363.42L1040.27 365.82L1041.28 370.64C1041.93 373.86 1042.62 377.08 1043.2 380.33C1045.29 393.35 1046.94 406.53 1047.63 419.8C1049.26 446.34 1048.65 472.95 1047.45 499.46C1047.44 492.24 1046.67 496.96 1045.87 502.35C1046.12 498.8 1044.57 502.25 1043.96 501.46L1043.68 506.98C1043.58 508.82 1043.53 510.67 1043.32 512.5L1042.29 523.53C1041.95 523.98 1041.63 524.67 1041.32 525.56C1041.16 526 1041.02 526.49 1040.86 527.01C1040.69 527.53 1040.52 528.09 1040.35 528.68C1039.67 531.03 1039.01 533.85 1038.36 536.62C1037.68 539.38 1037.13 542.12 1036.4 544.23C1035.69 546.34 1035.01 547.88 1034.4 548.31C1035.11 546.1 1035.91 543.91 1036.54 541.67C1034.3 545.88 1033.97 542.43 1033.59 538.04C1033.24 533.64 1033.03 528.34 1031.47 528.69C1032.06 527.52 1032.57 526.22 1032.93 524.81C1033.27 523.39 1033.53 521.86 1033.74 520.24C1034.16 517.01 1034.38 513.43 1034.66 509.68C1034.82 505.9 1034.98 501.94 1035.52 497.93C1035.65 496.93 1035.81 495.92 1035.98 494.91C1036.17 493.9 1036.36 492.89 1036.54 491.87C1036.92 489.84 1037.42 487.8 1038.08 485.77C1037.86 482.06 1036.85 488.8 1036.38 486.77C1037.2 484.74 1037.8 482.46 1038.24 479.5C1038.35 478.76 1038.46 477.98 1038.53 477.15C1038.59 476.32 1038.63 475.44 1038.67 474.5C1038.74 472.63 1038.77 470.54 1038.76 468.17L1038.4 469.22C1038.6 465.91 1038.87 462.85 1038.91 459.94C1038.93 457.03 1038.94 454.3 1038.95 451.67C1038.92 449.04 1038.97 446.52 1038.84 444.04C1038.69 441.56 1038.54 439.12 1038.39 436.66C1038.22 434.2 1038.06 431.71 1037.88 429.14C1037.6 426.57 1037.3 423.92 1036.99 421.1C1036.66 418.29 1036.41 415.32 1035.99 412.15C1035.54 408.98 1035.05 405.59 1034.53 401.92L1036.18 403.94C1035.73 400.77 1035.36 398.87 1035.02 397.4C1034.62 395.93 1034.25 394.89 1033.85 393.44C1034.33 389.67 1035.13 394.08 1035.77 398.61C1036.33 403.14 1036.93 407.77 1037.74 404.31C1035.94 400.23 1034.39 389.08 1032.38 378.34C1031.82 375.67 1031.27 373.01 1030.75 370.49C1030.2 367.98 1029.71 365.59 1029.03 363.51C1027.77 359.32 1026.55 356.16 1025.42 354.98C1024.26 350.23 1024.83 350.82 1025.4 351.41C1025.68 351.71 1025.97 352.01 1026.03 351.63C1026.1 351.26 1025.97 350.21 1025.27 347.85L1023.69 345.59L1024.11 342.89C1022.16 336.74 1020.19 333.96 1019.35 333.97C1019.98 335.4 1020.4 338.27 1020.82 339.88C1019.27 336.01 1017.41 330.47 1015.95 325.51C1015.59 324.27 1015.23 323.07 1014.91 321.94C1014.75 321.38 1014.59 320.83 1014.44 320.31C1014.27 319.8 1014.1 319.31 1013.94 318.85C1013.3 317.01 1012.8 315.62 1012.46 314.98L1014.4 319.27C1015.06 320.7 1015.59 322.17 1016.19 323.62C1015.29 320.4 1014.08 317.19 1012.88 313.9C1011.65 310.62 1010.47 307.25 1009.1 303.92C1006.21 297.31 1003.43 290.45 1000.08 283.89C999.28 282.23 998.48 280.58 997.68 278.92C996.89 277.26 996.11 275.61 995.22 274.02C993.51 270.8 991.83 267.6 990.21 264.44C989.8 263.65 989.4 262.86 989 262.07C988.59 261.29 988.14 260.53 987.72 259.77C986.88 258.24 986.04 256.72 985.21 255.22C984.4 253.71 983.6 252.22 982.81 250.74C982.02 249.27 981.3 247.78 980.48 246.38C981.02 246.81 981.59 247.23 982.12 247.68C972.25 230.44 972.97 234.69 960.4 216.97L960.76 217.69C959.68 215.78 958.3 213.62 956.73 211.36C955.94 210.23 955.11 209.08 954.23 207.91C953.31 206.78 952.35 205.66 951.37 204.53C954.34 209.2 943.49 197.67 947.51 203.7C941.12 195.08 939.32 193.11 938.48 191.52C937.58 189.97 937.44 188.98 933.47 182.92L930.34 181.39C928.97 179.33 928.31 178.14 927.04 176.47C926.41 175.64 925.62 174.68 924.52 173.45C923.96 172.84 923.33 172.15 922.61 171.36C921.84 170.62 920.98 169.78 920 168.83C925.97 175.54 913.7 165.4 920.24 173.04C915.61 169.66 911.85 166.44 908.64 163.44C905.33 160.55 902.54 157.91 900.05 155.5C898.8 154.3 897.62 153.17 896.46 152.12C895.27 151.12 894.11 150.19 892.94 149.36C890.62 147.68 888.29 146.36 885.69 145.49C879.19 136.67 902.43 156.08 898.11 152.07C899.21 152.66 899.44 152.5 899.07 151.85C898.88 151.53 898.55 151.08 898.1 150.55C897.64 150.03 897.05 149.45 896.38 148.8C893.7 146.24 889.71 142.87 886.75 140.8C883.79 138.63 880.61 137.71 876.4 135.91C875.34 135.47 874.22 134.97 873.01 134.4C871.81 133.82 870.51 133.18 869.07 132.48C866.2 131.08 862.93 129.26 859.08 126.8C860.62 127.76 860.6 128.03 862.14 128.99C856.05 125.88 851.21 121.17 843.34 118.05C840.13 114.12 833.72 113.05 833.58 110.35C838.5 113.03 843.36 115.79 848.1 118.82C844.14 116.13 840.51 113.17 835.96 110.19C831.42 107.22 825.97 104.17 818.45 101.69C819.4 102.6 823.43 105.05 826.18 106.73C821.73 105.45 818.32 102.66 813.64 101.54C813.82 102.9 818.47 104.9 824.05 107.54C829.64 110.15 836.15 113.43 840.17 116.63C837.79 115.9 833.75 113.32 830.67 111.56C827.6 109.78 825.53 108.81 827.27 111.04C824.69 108 820.55 106.21 815.78 104.42C811 102.64 805.61 100.84 800.21 97.6497L800.51 99.2597C798.76 98.4197 795.16 96.4897 791.73 95.4897C793.61 96.7197 795.47 97.9297 797.3 99.2097C792.88 96.8797 788.19 95.8497 783.56 95.0697C778.92 94.2497 774.32 93.7797 769.82 92.4397C772.22 92.9197 774.09 93.3097 775.55 93.5697C777 93.8697 778.04 94.0397 778.77 94.1197C780.24 94.2897 780.49 94.0897 780.41 93.7797C780.24 93.1797 778.7 92.0297 782.91 92.5897C777.08 90.5897 773.18 89.7997 770.29 89.4797C767.39 89.1997 765.48 89.3497 763.49 89.6097C762.49 89.7297 761.48 89.8397 760.31 89.9497C759.14 90.0697 757.81 90.1397 756.19 90.1397C752.95 90.2097 748.57 89.9097 741.89 89.5497C745.48 89.7497 755.57 89.6097 749.94 88.4697C744.77 88.2797 737.99 88.7697 734.9 89.5797C730.48 89.5797 728.45 89.6597 727.75 89.5197C727.05 89.3997 727.69 89.1597 728.65 88.8797C730.57 88.3097 733.81 87.6597 729.98 87.4097C728.48 87.9397 727.19 88.1697 725.97 88.2797C724.75 88.3997 723.6 88.3497 722.37 88.2297C721.14 88.0897 719.86 87.9997 718.38 87.8997C716.9 87.7897 715.23 87.8097 713.26 88.0097L713.45 89.4497C712.21 89.6997 711.11 89.9597 710.13 90.1997C709.15 90.4297 708.28 90.6097 707.51 90.7597C705.98 91.0897 704.85 91.3197 703.98 91.4097C702.23 91.5997 701.55 91.4297 700.93 91.2297C700.3 91.0297 699.74 90.8197 698.23 91.0597C697.47 91.1597 696.49 91.4097 695.17 91.8697C693.84 92.3197 692.16 92.9197 690.06 93.9097C692.72 93.5597 695.4 93.4197 698.03 93.2597C696.5 93.6497 694.98 94.0997 693.45 94.5097C691.93 94.9497 690.43 95.4697 688.91 95.9397L691.33 96.7797C688.81 97.3597 686.82 98.0597 685.03 98.6897C683.22 99.2897 681.72 100.03 680.23 100.76C679.48 101.13 678.75 101.51 677.99 101.91C677.25 102.34 676.5 102.82 675.71 103.31C674.92 103.81 674.09 104.34 673.18 104.91C672.29 105.5 671.37 106.19 670.35 106.91C671.05 105.85 670.43 105.47 668.67 105.97C668.23 106.1 667.71 106.28 667.13 106.51C666.55 106.76 665.93 107.1 665.24 107.49C664.55 107.88 663.79 108.34 662.98 108.86C662.57 109.12 662.15 109.39 661.72 109.7C661.3 110.02 660.87 110.36 660.42 110.7C658.26 112.97 659.17 112.69 659.32 112.84C659.49 113 658.84 113.46 654.01 117.63C655.4 117.01 656.86 116.4 658.38 115.37C659.94 114.39 661.57 113.01 663.35 110.79C664.09 110.84 666.17 109.88 666.91 109.93C664.53 112.18 661.37 114.71 658.43 117.15C656.99 118.41 655.5 119.52 654.29 120.66C653.06 121.78 651.97 122.76 651.15 123.55C652.37 122.3 653.82 120.78 654.45 119.88C649.55 123.54 644.91 127.63 640.48 132.03C639.11 134.68 640.87 133.1 642.62 131.6C641.38 133 640.27 134.13 639 135.42C637.72 136.71 636.43 138.29 634.76 140.49C635.66 140.24 636.31 140.36 637.35 139.8C638.4 139.25 639.76 137.96 642.37 135.15C640.38 137.25 638.56 139.5 636.69 141.73C635.77 142.86 634.92 144.04 634.03 145.19L632.71 146.94L631.46 148.74C631.4 149.39 630.5 151.46 629.96 153.22C629.4 154.98 629.05 156.34 629.77 155.45C627.77 159.81 624.76 164.88 621.93 170.57C620.48 173.4 619.19 176.41 617.99 179.48C617.45 181.03 616.94 182.6 616.47 184.17C615.99 185.74 615.69 187.35 615.38 188.93C614.99 189.52 614.41 190.76 613.69 193.42C613.06 196.39 612.72 199.33 612.35 202.25C612.18 203.71 612.09 205.18 611.95 206.64C611.88 207.37 611.82 208.11 611.75 208.85C611.71 209.59 611.66 210.33 611.62 211.08C611.18 217.05 610.85 223.26 610.25 230.46C610.96 233.16 611.95 235.8 612.79 238.41C613.14 243.93 612.19 241.32 611.29 239.58C610.44 237.84 609.48 236.99 610.24 246.41C610.41 248.07 610.57 249.39 610.73 250.44C610.9 251.48 611.12 252.24 611.3 252.8C611.67 253.92 612 254.21 612.31 254.23C612.94 254.27 613.51 253.23 614.24 255.43C614.29 257.08 614.47 259.06 614.65 261.28C614.85 263.5 615.25 265.93 615.74 268.53C616.85 273.69 618.73 279.43 621.89 284.78C621.32 282.81 620.66 281.13 619.99 279.48C619.38 277.81 618.75 276.18 618.18 274.37L618.3 274.42ZM707.08 380.52C705.96 379.7 704.39 378.33 702.82 377.14C701.24 375.97 699.69 374.92 698.63 374.71C699.47 376.28 700.52 377.23 701.9 378.02C703.28 378.81 704.93 379.54 707.08 380.52ZM849.64 323.66C849.69 325.75 850.5 328.78 851.61 332.23C851.51 330.93 851.22 329.57 850.93 328.13C850.77 327.41 850.61 326.67 850.4 325.93C850.17 325.19 849.91 324.43 849.64 323.66ZM291.86 261.03C291.98 261.07 292.06 261.1 292.15 261.14C298.4 261.36 296.18 261.31 291.86 261.03ZM278.92 260.03C277.66 259.67 277.77 259.48 278.35 259.35C279.19 259.83 282.08 260.21 285.38 260.53C284.42 260.79 282.72 260.84 278.92 260.03ZM867.3 118.19L864.92 117.12C869.63 120.61 868.45 119.41 867.3 118.19Z" fill="#FF8706"/>
<path d="M850.45 347.85C850.67 348.61 850.93 348.83 851.19 349.01C850.91 350.07 850.62 350.07 850.45 347.85Z" fill="#FF8706"/>
<path d="M615.41 189.41L615.5 189C615.64 188.8 615.76 188.7 615.86 188.65L615.41 189.41Z" fill="#FF8706"/>
<path d="M481.16 265.88C483.78 265.1 485.21 264.52 486.14 264.03C486.36 264.34 485.21 264.9 481.16 265.88Z" fill="#FF8706"/>
<path d="M212.31 243.77L220.23 246.19C216.37 245.12 214.91 245.08 212.89 244.79C213.16 244.51 214.81 244.43 212.31 243.76V243.77Z" fill="#FF8706"/>
<path d="M140.97 229.1C139.9 228.48 138.56 228.12 137.5 227.5L138.07 227C142.9 228.97 146.09 230.83 140.96 229.09L140.97 229.1Z" fill="#FF8706"/>
<path d="M203.6 246.42C202.64 247.4 197.73 245.48 192.2 243.57C192.54 243.68 192.85 243.78 193.19 243.87C192.04 241.74 197.82 244.08 203.6 246.42Z" fill="#FF8706"/>
<path d="M190.92 243.14C189.21 242.56 187.46 242 185.76 241.55C185.31 240.7 187.9 242.05 190.92 243.14Z" fill="#FF8706"/>
<path d="M262.83 256.56C260.06 256.41 261.4 254.74 259.78 254.97C257.01 252.93 277.56 259.88 262.83 256.56Z" fill="#FF8706"/>
<path d="M197.95 248.9L200.39 248.06L203.21 250.18L197.95 248.9Z" fill="#FF8706"/>
<path d="M243.24 259.01L233.97 257.47C234.16 257.25 233.03 256.86 231.62 256.45C237.29 257.6 243.54 258.63 243.23 259.02H243.24V259.01Z" fill="#FF8706"/>
<path d="M231.62 256.45C228.66 255.9 225.9 255.13 224.33 254.47C225.9 254.9 229.28 255.82 231.62 256.45Z" fill="#FF8706"/>
<path d="M210.21 252.8L212.98 253.19L219.44 254.73L210.21 252.8Z" fill="#FF8706"/>
<path d="M343.25 270.6C346.65 270.89 350.06 271.21 353.47 271.3C353.99 271.56 353.55 271.77 352.5 271.88C351.45 271.98 349.8 272.07 347.89 271.85C345.45 271.39 341.66 271.03 343.24 270.6H343.25Z" fill="#FF8706"/>
<path d="M312.02 272.87C314.82 272.79 315.04 272.47 316.64 272.11L316.81 273.99L312.02 272.86V272.87Z" fill="#FF8706"/>
<path d="M341.99 275.1C342.99 275.66 356.93 277.21 343.84 276.55C342.8 275.99 332.5 275.13 341.99 275.1Z" fill="#FF8706"/>
<path d="M495.63 257.51L493.07 258.04L492.73 254.99L495.63 257.51Z" fill="#FF8706"/>
<path d="M628.53 228.86C622.77 230.51 621.98 230.2 621.32 229.88C620.67 229.56 620.15 229.22 614.99 230.94C612.08 230.88 623.45 228.16 620.5 228.23C627.75 227.41 631.36 226.18 628.53 228.86Z" fill="#FF8706"/>
<path d="M620.5 228.23C619.34 228.35 618.11 228.52 616.79 228.63C618.88 228.32 619.88 228.23 620.5 228.23Z" fill="#FF8706"/>
<path d="M1040.79 538.35C1040.38 540.98 1040.06 543.64 1039.51 546.25L1039.7 543.64L1039.78 541.01L1040.79 538.35Z" fill="#FF8706"/>
<path d="M1034.75 552.54L1036.12 554.88L1033.16 558.98C1033.72 557.28 1034.81 553.97 1034.75 552.54Z" fill="#FF8706"/>
<path d="M727.35 387.11L727.66 387.79C726.41 387.71 724.79 387.02 721.63 385.45C723.52 386.07 725.46 386.56 727.36 387.11H727.35Z" fill="#FF8706"/>
<path d="M647.86 325.26L648.98 326.6C647.83 326.12 646.7 325.62 645.58 325.1L647.86 325.27V325.26Z" fill="#FF8706"/>
<path d="M615.64 248.71C615.89 250.37 616.24 252.15 616.49 253.96C616.73 255.76 617.12 257.58 617.55 259.23C616.78 255.6 615.84 252.87 615.21 251.07C614.6 249.27 614.52 248.43 615.65 248.71H615.64Z" fill="#FF8706"/>
</svg>
