<svg width="399" height="128" viewBox="0 0 399 128" fill="none" xmlns="http://www.w3.org/2000/svg">
<path d="M63.4 48.7C63.4 67.6 46.3 87 26 86.4L17 127.1L0.600006 105.4C7.50001 96.6 14.4 87.8 21.3 78.9C26.6 78 34.4 75.7 41.4 69.5C42 69 55.5 56.8 52.8 46.2C52.1 43.3 50.5 42.2 50.2 41.9C46.8 38.8 40.6 39.8 38.5 43.8C39.3 55.8 33.1 68.1 24.6 74.5C16 65.3 12.5 50.3 16.6 37.9C18.1 32.2 21.9 26 27.9 26.4C33.8 26.3 38.5 31.5 38.3 37.1C40 29.7 33 22.4 25.6 23.8C16.3 0.199978 55.5 -10.8 55.4 15.1C57.5 15.4 58.9 18.2 58.3 20.4C54.7 14.8 46 16.1 43.7 21.1C41.4 25.2 43.1 30.7 47.3 32.8C57 30.8 64.5 38.2 63.5 48.4L63.4 48.7Z" fill="white"/>
<path d="M99.4 17.7V69.5C99.4 72.8 99.9 75.1 100.8 76.3C101.7 77.6 103.1 78.2 105 78.2C106.9 78.2 108.3 77.6 109.2 76.3C110.1 75 110.6 72.7 110.6 69.5V17.7H129.3V64.8C129.3 74.5 127.3 81.3 123.4 85C119.4 88.8 113.3 90.6 105 90.6C96.7 90.6 90.6 88.7 86.6 85C82.6 81.2 80.7 74.5 80.7 64.8V17.7H99.4Z" fill="white"/>
<path d="M137.4 17.7H158.3L170.4 61.9H170.6V17.7H188.1V89.5H167.6L155.1 45.2H154.9V89.5H137.4V17.7Z" fill="white"/>
<path d="M196.2 17.7H214.9V89.5H196.2V17.7Z" fill="white"/>
<path d="M226.2 65.6C225.4 72.9 227.4 78.7 232.1 82.8C236.8 87 243.2 89.1 251.2 89.1C259.2 89.1 254.2 89 255.8 88.7C257.4 88.5 259.1 88.1 260.9 87.6C262.7 87.1 264.5 86.4 266 85.4C267.6 84.4 269 83.3 270.3 81.9C271.6 80.6 272.6 78.9 273.4 76.8C274.2 74.8 274.6 72.5 274.6 69.9C274.6 67.3 273.6 63.9 271.6 61.6C269.6 59.4 267.1 57.7 264.1 56.7C261.1 55.7 257.9 54.6 254.4 53.5C250.9 52.4 247.7 51.3 244.7 50.2C241.7 49.1 239.2 47.3 237.2 44.9C235.2 42.5 234.2 39.4 234.2 35.8C234.3 29.2 236.8 24.2 241.5 20.8C246.2 17.4 252 15.7 258.8 15.7C265.6 15.7 272.9 17.5 277.3 21.1C281.7 24.7 283.7 30.3 283.1 37.9H281.1C281.6 30.9 279.9 25.7 275.8 22.5C271.7 19.3 266 17.7 258.8 17.7C251.6 17.7 251.3 18.3 248.1 19.5C244.8 20.7 242.1 22.7 239.8 25.5C237.5 28.3 236.3 31.8 236.2 35.9C236.2 38.7 236.8 41.1 238.3 43.1C239.7 45.1 241.7 46.7 244 47.8C246.4 48.9 249 49.9 251.9 50.8C254.8 51.7 257.7 52.6 260.6 53.5C263.5 54.4 266.2 55.5 268.5 56.7C270.9 57.9 272.8 59.7 274.3 61.9C275.8 64.1 276.6 66.8 276.6 70C276.6 73.2 275.8 77.4 274.1 80.3C272.4 83.2 270.2 85.4 267.6 86.8C264.9 88.3 262.2 89.3 259.5 90C256.8 90.6 254 91 251.2 91C242.7 91 235.9 88.8 230.8 84.5C225.7 80.2 223.5 73.9 224.3 65.5H226.3L226.2 65.6Z" fill="white"/>
<path d="M298.8 86.8L327.1 37.7H329.6L295.7 96.2C293.1 100.4 291.1 103.1 289.9 104.1C287.8 105.8 285.1 106.8 281.8 106.9C281.6 106.9 281.3 107 281 107H278.4L278.7 105C282.5 105.1 285.2 104.7 286.9 103.6C288.6 102.6 290.6 100.4 292.7 97L297.1 89.3L287 37.6H289.2L298.8 86.7V86.8Z" fill="white"/>
<path d="M334.7 37.8H336.9L334.4 49.7H334.6C336.5 45.9 339.1 42.7 342.1 40.3C345.2 37.9 348.7 36.6 352.6 36.6C356.5 36.6 360.2 37.9 362.5 40.5C364.8 43.1 365.9 46.5 365.8 50.6L366 50.8C367.3 46.6 369.6 43.2 372.9 40.6C376.2 38 379.9 36.6 384.2 36.6C388.5 36.6 391.9 37.8 394.6 40.2C397.2 42.6 398.5 45.9 398.5 50.3C398.5 54.7 398.1 55.3 397.3 58.5L390.5 89.5H388.4L395.6 56.6C396.2 53.9 396.5 51.7 396.5 50.3C396.5 46.7 395.4 43.8 393.2 41.8C391 39.7 388 38.7 384.2 38.7C378.8 38.7 374.4 40.9 371.1 45.3C367.8 49.7 365.6 54.7 364.5 60.2L358.1 89.6H356L363.3 55C363.6 53.2 363.8 51.5 363.8 50.1C363.8 46.7 362.8 43.9 360.8 41.9C358.8 39.8 356.1 38.8 352.7 38.8C347.6 38.8 343.1 41.2 339.3 46C335.4 50.8 333 56 331.9 61.6L325.9 89.7H323.8L334.9 38L334.7 37.8Z" fill="white"/>
</svg>
